<svg width="974" height="555" xmlns="http://www.w3.org/2000/svg" xmlns:xlink="http://www.w3.org/1999/xlink" xml:space="preserve" overflow="hidden"><defs><clipPath id="clip0"><rect x="1705" y="968" width="974" height="555"/></clipPath></defs><g clip-path="url(#clip0)" transform="translate(-1705 -968)"><path d="M2634 1455 2632.28 1455 2632.28 968 2634 968 2634 1455ZM2550.4 1455 2548.68 1455 2548.68 968 2550.4 968 2550.4 1455ZM2467.07 1455 2465.35 1455 2465.35 968 2467.07 968 2467.07 1455ZM2383.33 1455 2381.61 1455 2381.61 968 2383.33 968 2383.33 1455ZM2299.59 1455 2297.87 1455 2297.87 968 2299.59 968 2299.59 1455ZM2216.26 1455 2214.55 1455 2214.55 968 2216.26 968 2216.26 1455ZM2132.53 1455 2130.81 1455 2130.81 968 2132.53 968 2132.53 1455ZM2049.2 1455 2047.48 1455 2047.48 968 2049.2 968 2049.2 1455ZM1965.46 1455 1963.74 1455 1963.74 968 1965.46 968 1965.46 1455ZM1881.72 1455 1880 1455 1880 968 1881.72 968 1881.72 1455Z" fill="#D9D9D9" fill-rule="evenodd"/><path d="M1797.45 968.412 1797.45 968 2674.59 968 2674.9 968.137 2675 968.412 2675 1454.55 2674.9 1454.86 2674.59 1455 1797.45 1455 1797.14 1454.86 1797 1454.55 1797 968.412 1797.14 968.137 1797.45 968 1797.45 968.412 1797.86 968.412 1797.86 1454.14 2674.14 1454.14 2674.14 968.859 1797.45 968.859 1797.45 968.412 1797.86 968.412Z" fill="#D9D9D9" fill-rule="evenodd"/><path d="M1796 968 1799 968 1799 1455 1796 1455Z" fill="#BFBFBF" fill-rule="evenodd"/><path d="M1798 1431 1799.72 1431 1799.72 1429 1798 1429 1798 1431ZM1801.44 1431 1803.15 1431 1803.15 1429 1801.44 1429 1801.44 1431ZM1804.87 1431 1806.59 1431 1806.59 1429 1804.87 1429 1804.87 1431ZM1808.31 1431 1810.03 1431 1810.03 1429 1808.31 1429 1808.31 1431ZM1811.74 1431 1813.46 1431 1813.46 1429 1811.74 1429 1811.74 1431ZM1815.18 1431 1816.9 1431 1816.9 1429 1815.18 1429 1815.18 1431ZM1818.61 1431 1820.33 1431 1820.33 1429 1818.61 1429 1818.61 1431ZM1822.05 1431 1823.77 1431 1823.77 1429 1822.05 1429 1822.05 1431ZM1825.49 1431 1827.2 1431 1827.2 1429 1825.49 1429 1825.49 1431ZM1828.92 1431 1830.64 1431 1830.64 1429 1828.92 1429 1828.92 1431ZM1832.36 1431 1834.08 1431 1834.08 1429 1832.36 1429 1832.36 1431ZM1835.79 1431 1837.51 1431 1837.51 1429 1835.79 1429 1835.79 1431ZM1839.23 1431 1840.95 1431 1840.95 1429 1839.23 1429 1839.23 1431ZM1842.66 1431 1844.38 1431 1844.38 1429 1842.66 1429 1842.66 1431ZM1846.1 1431 1847.82 1431 1847.82 1429 1846.1 1429 1846.1 1431ZM1849.54 1431 1851.25 1431 1851.25 1429 1849.54 1429 1849.54 1431ZM1852.97 1431 1854.69 1431 1854.69 1429 1852.97 1429 1852.97 1431ZM1856.41 1431 1858.13 1431 1858.13 1429 1856.41 1429 1856.41 1431ZM1859.84 1431 1861.56 1431 1861.56 1429 1859.84 1429 1859.84 1431ZM1863.28 1431 1865 1431 1865 1429 1863.28 1429 1863.28 1431ZM1866.71 1431 1868.43 1431 1868.43 1429 1866.71 1429 1866.71 1431ZM1870.15 1431 1871.87 1431 1871.87 1429 1870.15 1429 1870.15 1431ZM1873.59 1431 1875.3 1431 1875.3 1429 1873.59 1429 1873.59 1431ZM1877.02 1431 1878.74 1431 1878.74 1429 1877.02 1429 1877.02 1431ZM1880.46 1431 1882.18 1431 1882.18 1429 1880.46 1429 1880.46 1431ZM1883.89 1431 1885.61 1431 1885.61 1429 1883.89 1429 1883.89 1431ZM1887.33 1431 1889.05 1431 1889.05 1429 1887.33 1429 1887.33 1431ZM1890.76 1431 1892.48 1431 1892.48 1429 1890.76 1429 1890.76 1431ZM1894.2 1431 1895.92 1431 1895.92 1429 1894.2 1429 1894.2 1431ZM1897.64 1431 1899.35 1431 1899.35 1429 1897.64 1429 1897.64 1431ZM1901.07 1431 1902.79 1431 1902.79 1429 1901.07 1429 1901.07 1431ZM1904.51 1431 1906.23 1431 1906.23 1429 1904.51 1429 1904.51 1431ZM1907.94 1431 1909.66 1431 1909.66 1429 1907.94 1429 1907.94 1431ZM1911.38 1431 1913.1 1431 1913.1 1429 1911.38 1429 1911.38 1431ZM1914.81 1431 1916.53 1431 1916.53 1429 1914.81 1429 1914.81 1431ZM1918.25 1431 1919.97 1431 1919.97 1429 1918.25 1429 1918.25 1431ZM1921.69 1431 1923.4 1431 1923.4 1429 1921.69 1429 1921.69 1431ZM1925.12 1431 1926.84 1431 1926.84 1429 1925.12 1429 1925.12 1431ZM1928.56 1431 1930.28 1431 1930.28 1429 1928.56 1429 1928.56 1431ZM1931.99 1431 1933.71 1431 1933.71 1429 1931.99 1429 1931.99 1431ZM1935.43 1431 1937.15 1431 1937.15 1429 1935.43 1429 1935.43 1431ZM1938.86 1431 1940.58 1431 1940.58 1429 1938.86 1429 1938.86 1431ZM1942.3 1431 1944.02 1431 1944.02 1429 1942.3 1429 1942.3 1431ZM1945.74 1431 1947.45 1431 1947.45 1429 1945.74 1429 1945.74 1431ZM1949.17 1431 1950.89 1431 1950.89 1429 1949.17 1429 1949.17 1431ZM1952.61 1431 1954.33 1431 1954.33 1429 1952.61 1429 1952.61 1431ZM1956.04 1431 1957.76 1431 1957.76 1429 1956.04 1429 1956.04 1431ZM1959.48 1431 1961.2 1431 1961.2 1429 1959.48 1429 1959.48 1431ZM1962.91 1431 1964.63 1431 1964.63 1429 1962.91 1429 1962.91 1431ZM1966.35 1431 1968.07 1431 1968.07 1429 1966.35 1429 1966.35 1431ZM1969.79 1431 1971.5 1431 1971.5 1429 1969.79 1429 1969.79 1431ZM1973.22 1431 1974.94 1431 1974.94 1429 1973.22 1429 1973.22 1431ZM1976.66 1431 1978.38 1431 1978.38 1429 1976.66 1429 1976.66 1431ZM1980.09 1431 1981.81 1431 1981.81 1429 1980.09 1429 1980.09 1431ZM1983.53 1431 1985.25 1431 1985.25 1429 1983.53 1429 1983.53 1431ZM1986.96 1431 1988.68 1431 1988.68 1429 1986.96 1429 1986.96 1431ZM1990.4 1431 1992.12 1431 1992.12 1429 1990.4 1429 1990.4 1431ZM1993.84 1431 1995.55 1431 1995.55 1429 1993.84 1429 1993.84 1431ZM1997.27 1431 1998.99 1431 1998.99 1429 1997.27 1429 1997.27 1431ZM2000.71 1431 2002.43 1431 2002.43 1429 2000.71 1429 2000.71 1431ZM2004.14 1431 2005.86 1431 2005.86 1429 2004.14 1429 2004.14 1431ZM2007.58 1431 2009.3 1431 2009.3 1429 2007.58 1429 2007.58 1431ZM2011.01 1431 2012.73 1431 2012.73 1429 2011.01 1429 2011.01 1431ZM2014.45 1431 2016.17 1431 2016.17 1429 2014.45 1429 2014.45 1431ZM2017.89 1431 2019.6 1431 2019.6 1429 2017.89 1429 2017.89 1431ZM2021.32 1431 2023.04 1431 2023.04 1429 2021.32 1429 2021.32 1431ZM2024.76 1431 2026.48 1431 2026.48 1429 2024.76 1429 2024.76 1431ZM2028.19 1431 2029.91 1431 2029.91 1429 2028.19 1429 2028.19 1431ZM2031.63 1431 2033.35 1431 2033.35 1429 2031.63 1429 2031.63 1431ZM2035.06 1431 2036.78 1431 2036.78 1429 2035.06 1429 2035.06 1431ZM2038.5 1431 2040.22 1431 2040.22 1429 2038.5 1429 2038.5 1431ZM2041.94 1431 2043.65 1431 2043.65 1429 2041.94 1429 2041.94 1431ZM2045.37 1431 2047.09 1431 2047.09 1429 2045.37 1429 2045.37 1431ZM2048.81 1431 2050.53 1431 2050.53 1429 2048.81 1429 2048.81 1431ZM2052.24 1431 2053.96 1431 2053.96 1429 2052.24 1429 2052.24 1431ZM2055.68 1431 2057.4 1431 2057.4 1429 2055.68 1429 2055.68 1431ZM2059.11 1431 2060.83 1431 2060.83 1429 2059.11 1429 2059.11 1431ZM2062.55 1431 2064.27 1431 2064.27 1429 2062.55 1429 2062.55 1431ZM2065.99 1431 2067.7 1431 2067.7 1429 2065.99 1429 2065.99 1431ZM2069.42 1431 2071.14 1431 2071.14 1429 2069.42 1429 2069.42 1431ZM2072.86 1431 2074.58 1431 2074.58 1429 2072.86 1429 2072.86 1431ZM2076.29 1431 2078.01 1431 2078.01 1429 2076.29 1429 2076.29 1431ZM2079.73 1431 2081.45 1431 2081.45 1429 2079.73 1429 2079.73 1431ZM2083.16 1431 2084.88 1431 2084.88 1429 2083.16 1429 2083.16 1431ZM2086.6 1431 2088.32 1431 2088.32 1429 2086.6 1429 2086.6 1431ZM2090.04 1431 2091.75 1431 2091.75 1429 2090.04 1429 2090.04 1431ZM2093.47 1431 2095.19 1431 2095.19 1429 2093.47 1429 2093.47 1431ZM2096.91 1431 2098.63 1431 2098.63 1429 2096.91 1429 2096.91 1431ZM2100.34 1431 2102.06 1431 2102.06 1429 2100.34 1429 2100.34 1431ZM2103.78 1431 2105.5 1431 2105.5 1429 2103.78 1429 2103.78 1431ZM2107.21 1431 2108.93 1431 2108.93 1429 2107.21 1429 2107.21 1431ZM2110.65 1431 2112.37 1431 2112.37 1429 2110.65 1429 2110.65 1431ZM2114.09 1431 2115.8 1431 2115.8 1429 2114.09 1429 2114.09 1431ZM2117.52 1431 2119.24 1431 2119.24 1429 2117.52 1429 2117.52 1431ZM2120.96 1431 2122.68 1431 2122.68 1429 2120.96 1429 2120.96 1431ZM2124.39 1431 2126.11 1431 2126.11 1429 2124.39 1429 2124.39 1431ZM2127.83 1431 2129.55 1431 2129.55 1429 2127.83 1429 2127.83 1431ZM2131.26 1431 2132.98 1431 2132.98 1429 2131.26 1429 2131.26 1431ZM2134.7 1431 2136.42 1431 2136.42 1429 2134.7 1429 2134.7 1431ZM2138.14 1431 2139.85 1431 2139.85 1429 2138.14 1429 2138.14 1431ZM2141.57 1431 2143.29 1431 2143.29 1429 2141.57 1429 2141.57 1431ZM2145.01 1431 2146.73 1431 2146.73 1429 2145.01 1429 2145.01 1431ZM2148.44 1431 2150.16 1431 2150.16 1429 2148.44 1429 2148.44 1431ZM2151.88 1431 2153.6 1431 2153.6 1429 2151.88 1429 2151.88 1431ZM2155.31 1431 2157.03 1431 2157.03 1429 2155.31 1429 2155.31 1431ZM2158.75 1431 2160.47 1431 2160.47 1429 2158.75 1429 2158.75 1431ZM2162.19 1431 2163.9 1431 2163.9 1429 2162.19 1429 2162.19 1431ZM2165.62 1431 2167.34 1431 2167.34 1429 2165.62 1429 2165.62 1431ZM2169.06 1431 2170.78 1431 2170.78 1429 2169.06 1429 2169.06 1431ZM2172.49 1431 2174.21 1431 2174.21 1429 2172.49 1429 2172.49 1431ZM2175.93 1431 2177.65 1431 2177.65 1429 2175.93 1429 2175.93 1431ZM2179.36 1431 2181.08 1431 2181.08 1429 2179.36 1429 2179.36 1431ZM2182.8 1431 2184.52 1431 2184.52 1429 2182.8 1429 2182.8 1431ZM2186.24 1431 2187.95 1431 2187.95 1429 2186.24 1429 2186.24 1431ZM2189.67 1431 2191.39 1431 2191.39 1429 2189.67 1429 2189.67 1431ZM2193.11 1431 2194.83 1431 2194.83 1429 2193.11 1429 2193.11 1431ZM2196.54 1431 2198.26 1431 2198.26 1429 2196.54 1429 2196.54 1431ZM2199.98 1431 2201.7 1431 2201.7 1429 2199.98 1429 2199.98 1431ZM2203.41 1431 2205.13 1431 2205.13 1429 2203.41 1429 2203.41 1431ZM2206.85 1431 2208.57 1431 2208.57 1429 2206.85 1429 2206.85 1431ZM2210.29 1431 2212 1431 2212 1429 2210.29 1429 2210.29 1431ZM2213.72 1431 2215.44 1431 2215.44 1429 2213.72 1429 2213.72 1431ZM2217.16 1431 2218.88 1431 2218.88 1429 2217.16 1429 2217.16 1431ZM2220.59 1431 2222.31 1431 2222.31 1429 2220.59 1429 2220.59 1431ZM2224.03 1431 2225.75 1431 2225.75 1429 2224.03 1429 2224.03 1431ZM2227.46 1431 2229.18 1431 2229.18 1429 2227.46 1429 2227.46 1431ZM2230.9 1431 2232.62 1431 2232.62 1429 2230.9 1429 2230.9 1431ZM2234.34 1431 2236.05 1431 2236.05 1429 2234.34 1429 2234.34 1431ZM2237.77 1431 2239.49 1431 2239.49 1429 2237.77 1429 2237.77 1431ZM2241.21 1431 2242.93 1431 2242.93 1429 2241.21 1429 2241.21 1431ZM2244.64 1431 2246.36 1431 2246.36 1429 2244.64 1429 2244.64 1431ZM2248.08 1431 2249.8 1431 2249.8 1429 2248.08 1429 2248.08 1431ZM2251.51 1431 2253.23 1431 2253.23 1429 2251.51 1429 2251.51 1431ZM2254.95 1431 2256.67 1431 2256.67 1429 2254.95 1429 2254.95 1431ZM2258.39 1431 2260.1 1431 2260.1 1429 2258.39 1429 2258.39 1431ZM2261.82 1431 2263.54 1431 2263.54 1429 2261.82 1429 2261.82 1431ZM2265.26 1431 2266.98 1431 2266.98 1429 2265.26 1429 2265.26 1431ZM2268.69 1431 2270.41 1431 2270.41 1429 2268.69 1429 2268.69 1431ZM2272.13 1431 2273.85 1431 2273.85 1429 2272.13 1429 2272.13 1431ZM2275.56 1431 2277.28 1431 2277.28 1429 2275.56 1429 2275.56 1431ZM2279 1431 2280.72 1431 2280.72 1429 2279 1429 2279 1431ZM2282.44 1431 2284.15 1431 2284.15 1429 2282.44 1429 2282.44 1431ZM2285.87 1431 2287.59 1431 2287.59 1429 2285.87 1429 2285.87 1431ZM2289.31 1431 2291.03 1431 2291.03 1429 2289.31 1429 2289.31 1431ZM2292.74 1431 2294.46 1431 2294.46 1429 2292.74 1429 2292.74 1431ZM2296.18 1431 2297.9 1431 2297.9 1429 2296.18 1429 2296.18 1431ZM2299.61 1431 2301.33 1431 2301.33 1429 2299.61 1429 2299.61 1431ZM2303.05 1431 2304.77 1431 2304.77 1429 2303.05 1429 2303.05 1431ZM2306.49 1431 2308.2 1431 2308.2 1429 2306.49 1429 2306.49 1431ZM2309.92 1431 2311.64 1431 2311.64 1429 2309.92 1429 2309.92 1431ZM2313.36 1431 2315.08 1431 2315.08 1429 2313.36 1429 2313.36 1431ZM2316.79 1431 2318.51 1431 2318.51 1429 2316.79 1429 2316.79 1431ZM2320.23 1431 2321.95 1431 2321.95 1429 2320.23 1429 2320.23 1431ZM2323.66 1431 2325.38 1431 2325.38 1429 2323.66 1429 2323.66 1431ZM2327.1 1431 2328.82 1431 2328.82 1429 2327.1 1429 2327.1 1431ZM2330.54 1431 2332.25 1431 2332.25 1429 2330.54 1429 2330.54 1431ZM2333.97 1431 2335.69 1431 2335.69 1429 2333.97 1429 2333.97 1431ZM2337.41 1431 2339.12 1431 2339.12 1429 2337.41 1429 2337.41 1431ZM2340.84 1431 2342.56 1431 2342.56 1429 2340.84 1429 2340.84 1431ZM2344.28 1431 2346 1431 2346 1429 2344.28 1429 2344.28 1431ZM2347.71 1431 2349.43 1431 2349.43 1429 2347.71 1429 2347.71 1431ZM2351.15 1431 2352.87 1431 2352.87 1429 2351.15 1429 2351.15 1431ZM2354.59 1431 2356.3 1431 2356.3 1429 2354.59 1429 2354.59 1431ZM2358.02 1431 2359.74 1431 2359.74 1429 2358.02 1429 2358.02 1431ZM2361.46 1431 2363.18 1431 2363.18 1429 2361.46 1429 2361.46 1431ZM2364.89 1431 2366.61 1431 2366.61 1429 2364.89 1429 2364.89 1431ZM2368.33 1431 2370.05 1431 2370.05 1429 2368.33 1429 2368.33 1431ZM2371.76 1431 2373.48 1431 2373.48 1429 2371.76 1429 2371.76 1431ZM2375.2 1431 2376.92 1431 2376.92 1429 2375.2 1429 2375.2 1431ZM2378.64 1431 2380.35 1431 2380.35 1429 2378.64 1429 2378.64 1431ZM2382.07 1431 2383.79 1431 2383.79 1429 2382.07 1429 2382.07 1431ZM2385.51 1431 2387.23 1431 2387.23 1429 2385.51 1429 2385.51 1431ZM2388.94 1431 2390.66 1431 2390.66 1429 2388.94 1429 2388.94 1431ZM2392.38 1431 2394.1 1431 2394.1 1429 2392.38 1429 2392.38 1431ZM2395.81 1431 2397.53 1431 2397.53 1429 2395.81 1429 2395.81 1431ZM2399.25 1431 2400.97 1431 2400.97 1429 2399.25 1429 2399.25 1431ZM2402.69 1431 2404.4 1431 2404.4 1429 2402.69 1429 2402.69 1431ZM2406.12 1431 2407.84 1431 2407.84 1429 2406.12 1429 2406.12 1431ZM2409.56 1431 2411.28 1431 2411.28 1429 2409.56 1429 2409.56 1431ZM2412.99 1431 2414.71 1431 2414.71 1429 2412.99 1429 2412.99 1431ZM2416.43 1431 2418.15 1431 2418.15 1429 2416.43 1429 2416.43 1431ZM2419.86 1431 2421.58 1431 2421.58 1429 2419.86 1429 2419.86 1431ZM2423.3 1431 2425.02 1431 2425.02 1429 2423.3 1429 2423.3 1431ZM2426.74 1431 2428.45 1431 2428.45 1429 2426.74 1429 2426.74 1431ZM2430.17 1431 2431.89 1431 2431.89 1429 2430.17 1429 2430.17 1431ZM2433.61 1431 2435.33 1431 2435.33 1429 2433.61 1429 2433.61 1431ZM2437.04 1431 2438.76 1431 2438.76 1429 2437.04 1429 2437.04 1431ZM2440.48 1431 2442.2 1431 2442.2 1429 2440.48 1429 2440.48 1431ZM2443.91 1431 2445.63 1431 2445.63 1429 2443.91 1429 2443.91 1431ZM2447.35 1431 2449.07 1431 2449.07 1429 2447.35 1429 2447.35 1431ZM2450.79 1431 2452.5 1431 2452.5 1429 2450.79 1429 2450.79 1431ZM2454.22 1431 2455.94 1431 2455.94 1429 2454.22 1429 2454.22 1431ZM2457.66 1431 2459.38 1431 2459.38 1429 2457.66 1429 2457.66 1431ZM2461.09 1431 2462.81 1431 2462.81 1429 2461.09 1429 2461.09 1431ZM2464.53 1431 2466.25 1431 2466.25 1429 2464.53 1429 2464.53 1431ZM2467.96 1431 2469.68 1431 2469.68 1429 2467.96 1429 2467.96 1431ZM2471.4 1431 2473.12 1431 2473.12 1429 2471.4 1429 2471.4 1431ZM2474.84 1431 2476.55 1431 2476.55 1429 2474.84 1429 2474.84 1431ZM2478.27 1431 2479.99 1431 2479.99 1429 2478.27 1429 2478.27 1431ZM2481.71 1431 2483.43 1431 2483.43 1429 2481.71 1429 2481.71 1431ZM2485.14 1431 2486.86 1431 2486.86 1429 2485.14 1429 2485.14 1431ZM2488.58 1431 2490.3 1431 2490.3 1429 2488.58 1429 2488.58 1431ZM2492.01 1431 2493.73 1431 2493.73 1429 2492.01 1429 2492.01 1431ZM2495.45 1431 2497.17 1431 2497.17 1429 2495.45 1429 2495.45 1431ZM2498.89 1431 2500.6 1431 2500.6 1429 2498.89 1429 2498.89 1431ZM2502.32 1431 2504.04 1431 2504.04 1429 2502.32 1429 2502.32 1431ZM2505.76 1431 2507.48 1431 2507.48 1429 2505.76 1429 2505.76 1431ZM2509.19 1431 2510.91 1431 2510.91 1429 2509.19 1429 2509.19 1431ZM2512.63 1431 2514.35 1431 2514.35 1429 2512.63 1429 2512.63 1431ZM2516.06 1431 2517.78 1431 2517.78 1429 2516.06 1429 2516.06 1431ZM2519.5 1431 2521.22 1431 2521.22 1429 2519.5 1429 2519.5 1431ZM2522.94 1431 2524.65 1431 2524.65 1429 2522.94 1429 2522.94 1431ZM2526.37 1431 2528.09 1431 2528.09 1429 2526.37 1429 2526.37 1431ZM2529.81 1431 2531.52 1431 2531.52 1429 2529.81 1429 2529.81 1431ZM2533.24 1431 2534.96 1431 2534.96 1429 2533.24 1429 2533.24 1431ZM2536.68 1431 2538.4 1431 2538.4 1429 2536.68 1429 2536.68 1431ZM2540.11 1431 2541.83 1431 2541.83 1429 2540.11 1429 2540.11 1431ZM2543.55 1431 2545.27 1431 2545.27 1429 2543.55 1429 2543.55 1431ZM2546.99 1431 2548.7 1431 2548.7 1429 2546.99 1429 2546.99 1431ZM2550.42 1431 2552.14 1431 2552.14 1429 2550.42 1429 2550.42 1431ZM2553.86 1431 2555.57 1431 2555.57 1429 2553.86 1429 2553.86 1431ZM2557.29 1431 2559.01 1431 2559.01 1429 2557.29 1429 2557.29 1431ZM2560.73 1431 2562.45 1431 2562.45 1429 2560.73 1429 2560.73 1431ZM2564.16 1431 2565.88 1431 2565.88 1429 2564.16 1429 2564.16 1431ZM2567.6 1431 2569.32 1431 2569.32 1429 2567.6 1429 2567.6 1431ZM2571.04 1431 2572.75 1431 2572.75 1429 2571.04 1429 2571.04 1431ZM2574.47 1431 2576.19 1431 2576.19 1429 2574.47 1429 2574.47 1431ZM2577.91 1431 2579.62 1431 2579.62 1429 2577.91 1429 2577.91 1431ZM2581.34 1431 2583.06 1431 2583.06 1429 2581.34 1429 2581.34 1431ZM2584.78 1431 2586.5 1431 2586.5 1429 2584.78 1429 2584.78 1431ZM2588.21 1431 2589.93 1431 2589.93 1429 2588.21 1429 2588.21 1431ZM2591.65 1431 2593.37 1431 2593.37 1429 2591.65 1429 2591.65 1431ZM2595.09 1431 2596.8 1431 2596.8 1429 2595.09 1429 2595.09 1431ZM2598.52 1431 2600.24 1431 2600.24 1429 2598.52 1429 2598.52 1431ZM2601.96 1431 2603.68 1431 2603.68 1429 2601.96 1429 2601.96 1431ZM2605.39 1431 2607.11 1431 2607.11 1429 2605.39 1429 2605.39 1431ZM2608.83 1431 2610.55 1431 2610.55 1429 2608.83 1429 2608.83 1431ZM2612.26 1431 2613.98 1431 2613.98 1429 2612.26 1429 2612.26 1431ZM2615.7 1431 2617.42 1431 2617.42 1429 2615.7 1429 2615.7 1431ZM2619.14 1431 2620.85 1431 2620.85 1429 2619.14 1429 2619.14 1431ZM2622.57 1431 2624.29 1431 2624.29 1429 2622.57 1429 2622.57 1431ZM2626.01 1431 2627.73 1431 2627.73 1429 2626.01 1429 2626.01 1431ZM2629.44 1431 2631.16 1431 2631.16 1429 2629.44 1429 2629.44 1431ZM2632.88 1431 2634.6 1431 2634.6 1429 2632.88 1429 2632.88 1431ZM2636.31 1431 2638.03 1431 2638.03 1429 2636.31 1429 2636.31 1431ZM2639.75 1431 2641.47 1431 2641.47 1429 2639.75 1429 2639.75 1431ZM2643.19 1431 2644.9 1431 2644.9 1429 2643.19 1429 2643.19 1431ZM2646.62 1431 2648.34 1431 2648.34 1429 2646.62 1429 2646.62 1431ZM2650.06 1431 2651.77 1431 2651.77 1429 2650.06 1429 2650.06 1431ZM2653.49 1431 2655.21 1431 2655.21 1429 2653.49 1429 2653.49 1431ZM2656.93 1431 2658.65 1431 2658.65 1429 2656.93 1429 2656.93 1431ZM2660.36 1431 2662.08 1431 2662.08 1429 2660.36 1429 2660.36 1431ZM2663.8 1431 2665.52 1431 2665.52 1429 2663.8 1429 2663.8 1431ZM2667.24 1431 2668.95 1431 2668.95 1429 2667.24 1429 2667.24 1431ZM2670.67 1431 2672.39 1431 2672.39 1429 2670.67 1429 2670.67 1431ZM2674.11 1431 2675 1431 2675 1429 2674.11 1429 2674.11 1431Z" fill="#BFBFBF" fill-rule="evenodd"/><text font-family="Arial,Arial_MSFontService,sans-serif" font-weight="400" font-size="14" transform="matrix(1 0 0 1 1772.41 1434)">0 K<tspan font-size="14" x="-15.0695" y="-121">500 K</tspan><tspan font-size="14" x="-22.611" y="-243">1000 K</tspan><tspan font-size="14" x="-22.611" y="-365">1500 K</tspan><tspan font-size="14" x="93.7086" y="47">1830</tspan><tspan font-size="14" x="177.276" y="47">1850</tspan><tspan font-size="14" x="260.844" y="47">1870</tspan><tspan font-size="14" x="344.412" y="47">1890</tspan><tspan font-size="14" x="427.978" y="47">1910</tspan><tspan font-size="14" x="511.543" y="47">1930</tspan><tspan font-size="14" x="595.109" y="47">1950</tspan><tspan font-size="14" x="678.678" y="47">1970</tspan><tspan font-size="14" x="762.247" y="47">1990</tspan><tspan font-size="14" x="845.813" y="47">2010</tspan><tspan font-size="14" x="435.121" y="68">Fiscal year</tspan></text><text font-family="Arial,Arial_MSFontService,sans-serif" font-weight="400" font-size="14" transform="matrix(-1.83697e-16 -1 1 -1.83697e-16 1734.83 1336)">Number of legal permanent residents</text><path d="M1797.72 1308 2674.28 1308C2674.68 1308 2675 1308.22 2675 1308.5 2675 1308.78 2674.68 1309 2674.28 1309L1797.72 1309C1797.32 1309 1797 1308.78 1797 1308.5 1797 1308.22 1797.32 1308 1797.72 1308" fill="#D9D9D9" fill-rule="evenodd"/><path d="M1797.72 1186 2674.28 1186C2674.68 1186 2675 1186.44 2675 1187 2675 1187.56 2674.68 1188 2674.28 1188L1797.72 1188C1797.32 1188 1797 1187.56 1797 1187 1797 1186.48 1797.32 1186 1797.72 1186" fill="#D9D9D9" fill-rule="evenodd"/><path d="M1797.72 1065 2674.28 1065C2674.68 1065 2675 1065.22 2675 1065.5 2675 1065.78 2674.68 1066 2674.28 1066L1797.72 1066C1797.32 1066 1797 1065.76 1797 1065.5 1797 1065.22 1797.32 1065 1797.72 1065" fill="#D9D9D9" fill-rule="evenodd"/><path d="M1839.72 1426.05 1843.77 1426.05 1843.94 1426.05 1848.03 1426.47 1852.42 1426.67 1856.34 1426.47 1860.32 1425.68 1860.66 1425.64 1864.37 1425.64 1868.12 1423.75 1872.24 1421.7C1872.61 1421.49 1873.06 1421.45 1873.51 1421.59L1877.39 1422.76 1881.27 1422.76 1884.7 1422.76 1888.38 1414.69C1888.68 1414.01 1889.37 1413.63 1890.13 1413.7L1893.84 1414.08 1897.58 1412.6C1898.23 1412.33 1899.02 1412.5 1899.5 1413.05L1902.01 1415.79 1904.96 1410.47C1905.2 1410.03 1905.65 1409.72 1906.13 1409.62L1910.25 1408.79C1911.04 1408.62 1911.86 1409.07 1912.17 1409.82L1915.02 1416.68 1917.77 1412.43 1918.08 1412.09 1922.2 1408.38C1922.61 1408 1923.16 1407.87 1923.68 1407.97L1926.7 1408.59 1930.17 1403.71C1930.54 1403.2 1931.2 1402.92 1931.81 1403.03 1932.47 1403.13 1932.98 1403.58 1933.19 1404.19L1936.21 1413.22 1938.3 1410.06 1942.36 1401.55 1946.41 1391.84 1950.91 1372.62C1951.04 1372.11 1951.39 1371.69 1951.83 1371.45 1952.32 1371.21 1952.86 1371.25 1953.35 1371.49L1955.54 1372.59 1959.15 1357.38 1959.15 1357.38 1963.27 1339.68C1963.37 1339.16 1963.72 1338.75 1964.16 1338.54L1968.28 1336.48C1968.73 1336.28 1969.24 1336.24 1969.69 1336.42L1973.67 1337.99 1976.11 1338.47 1980.16 1325.54C1980.4 1324.75 1981.19 1324.27 1981.98 1324.34 1982.81 1324.44 1983.43 1325.09 1983.5 1325.91L1987.51 1379.52 1988.82 1379.52 1992.56 1368.33C1992.8 1367.58 1993.56 1367.1 1994.35 1367.16 1995.14 1367.23 1995.79 1367.85 1995.89 1368.64L1999.84 1398.6 2001.45 1398.77 2005.03 1391.98C2005.37 1391.36 2006.02 1390.98 2006.74 1391.08 2007.43 1391.15 2008.01 1391.63 2008.22 1392.32L2012 1405.87 2013.82 1405.87 2017.66 1386.66C2017.73 1386.31 2017.9 1386 2018.14 1385.76L2021.95 1381.96 2025.94 1369.22 2030.06 1352C2030.27 1351.1 2031.16 1350.52 2032.05 1350.73L2036.17 1351.55C2036.93 1351.69 2037.48 1352.3 2037.55 1353.06L2039.78 1376.43 2042.35 1344.03 2042.56 1343.35 2047.09 1335.11C2047.43 1334.49 2048.12 1334.15 2048.81 1334.22 2049.5 1334.32 2050.08 1334.8 2050.25 1335.49L2052.52 1344.34 2055.13 1331.47 2055.16 1331.34 2059.28 1317.75C2059.52 1316.96 2060.28 1316.48 2061.07 1316.55 2061.89 1316.61 2062.51 1317.27 2062.61 1318.06L2066.73 1353.81 2070.82 1374.27 2074.84 1387.96 2078.85 1394.14 2080.88 1394.55 2084.35 1386.24 2088.47 1319.02 2088.47 1318.98 2092.59 1267.51 2092.59 1267.4 2096.71 1238.16C2096.85 1237.31 2097.57 1236.65 2098.46 1236.69 2099.32 1236.72 2100.04 1237.37 2100.15 1238.23L2104.27 1283.43 2108.39 1303.5 2108.39 1303.61 2112.92 1333.57 2114.6 1339.68 2117.76 1310.68 2117.83 1310.37 2121.95 1296.78C2122.19 1296.02 2122.91 1295.51 2123.7 1295.58 2124.49 1295.65 2125.14 1296.23 2125.28 1297.02L2128.99 1319.22 2130.26 1318.47 2134.24 1293.72 2134.62 1292.9 2138.74 1287.96C2139.19 1287.44 2139.88 1287.2 2140.53 1287.41 2141.18 1287.58 2141.66 1288.16 2141.76 1288.82L2146.3 1323 2146.3 1323.03 2150.38 1360.13 2152 1362.74 2155.26 1346.37C2155.43 1345.54 2156.15 1344.96 2156.98 1344.99 2157.8 1345.03 2158.52 1345.61 2158.62 1346.44L2162.54 1372.31 2163.78 1372.45 2167.59 1353.85 2171.71 1320.97 2171.85 1320.46 2176.24 1311.26 2180.33 1272.45 2184.45 1221.83C2184.52 1221.04 2185.13 1220.39 2185.92 1220.28 2186.71 1220.18 2187.47 1220.63 2187.78 1221.38L2189.19 1225.02 2192.72 1180.68 2192.76 1180.44 2196.84 1162.42 2200.97 1117.64C2201.03 1116.75 2201.82 1116.06 2202.72 1116.09 2203.61 1116.13 2204.36 1116.85 2204.4 1117.74L2208.93 1239.64 2210 1241.53 2213.77 1177.01C2213.81 1176.12 2214.56 1175.4 2215.46 1175.4 2216.35 1175.36 2217.1 1176.05 2217.21 1176.94L2221.29 1216.23 2222.39 1218.84 2226.17 1139.16C2226.17 1138.78 2226.31 1138.44 2226.55 1138.13L2230.67 1133.19C2231.12 1132.64 2231.87 1132.43 2232.56 1132.67 2233.24 1132.91 2233.69 1133.53 2233.69 1134.25L2237.81 1350.35 2241.66 1355.94 2245.09 1356.63C2245.85 1356.77 2246.4 1357.38 2246.46 1358.14L2250.07 1397.5 2251.31 1395.3 2255.39 1325.71 2259.51 1234.29C2259.55 1233.36 2260.3 1232.64 2261.23 1232.64 2262.16 1232.64 2262.91 1233.36 2262.95 1234.29L2266.04 1324.71 2267.76 1302.99 2267.76 1302.96 2272.29 1258.07C2272.39 1257.18 2273.15 1256.49 2274.04 1256.52 2274.93 1256.56 2275.65 1257.28 2275.72 1258.17L2279.74 1355.77 2280.98 1355.02 2284.89 1348.01C2285.2 1347.5 2285.75 1347.16 2286.33 1347.12 2286.95 1347.12 2287.5 1347.43 2287.84 1347.91L2291.96 1354.5 2296.08 1361.09 2296.19 1361.33 2300.31 1370.8 2300.45 1371.28 2304.53 1406.15 2308.86 1420.32 2311.78 1422.66 2314.97 1421.39C2324.41 1418.09 2322.56 1422.45 2331.01 1412.19L2335.54 1408.48C2336.16 1407.97 2337.05 1407.97 2337.7 1408.48L2341.82 1411.78 2342.03 1411.95 2346.15 1416.48 2346.25 1416.58 2350.03 1421.49 2353.12 1422.42 2356.59 1421.39 2359.85 1419.74 2363.8 1403.23C2365.76 1397.5 2368.75 1392.11 2372.87 1387.65L2376.71 1383.43 2380.73 1368.98C2380.94 1368.26 2381.56 1367.75 2382.31 1367.75 2383.07 1367.71 2383.72 1368.16 2383.99 1368.85L2386.26 1374.75 2388.97 1365.28C2389.18 1364.52 2389.9 1364.01 2390.72 1364.04 2391.51 1364.08 2392.2 1364.66 2392.34 1365.45L2395.5 1383.09 2397.35 1379.04 2397.45 1378.87 2401.85 1371.69 2405.9 1351.82C2406.04 1351.21 2406.49 1350.69 2407.1 1350.52L2411.22 1349.28C2411.67 1349.15 2412.19 1349.22 2412.56 1349.46 2412.98 1349.7 2413.28 1350.11 2413.39 1350.55L2417.06 1366.31 2419.33 1365.41 2419.47 1365.38 2423.52 1364.18 2427.4 1362.63 2431.18 1359.99 2435.57 1354.81C2436.19 1354.09 2437.22 1353.99 2437.94 1354.57L2441.37 1357.32 2444.05 1356.53 2447.73 1351 2451.71 1341.84 2455.8 1319.39C2455.93 1318.57 2456.66 1317.99 2457.48 1317.99 2458.3 1317.99 2459.02 1318.6 2459.16 1319.39L2462.77 1339.98 2465.03 1338.13C2465.45 1337.79 2465.96 1337.69 2466.44 1337.79L2469.7 1338.44 2473.17 1335.32 2473.24 1335.25 2477.36 1331.95C2477.81 1331.61 2478.39 1331.47 2478.94 1331.65L2483.06 1332.88 2483.34 1332.98 2485.33 1333.98 2489.11 1308.72C2489.21 1307.97 2489.83 1307.38 2490.58 1307.28 2491.34 1307.18 2492.09 1307.62 2492.37 1308.31L2494.08 1312.43 2497.76 1286.52C2497.9 1285.66 2498.62 1285.01 2499.51 1285.04 2500.4 1285.08 2501.09 1285.73 2501.16 1286.62L2503.91 1318.57 2505.97 1302.61 2506 1302.44 2510.12 1285.14C2510.29 1284.39 2510.98 1283.84 2511.77 1283.84 2512.56 1283.84 2513.25 1284.36 2513.45 1285.11L2516.78 1297.5 2518.81 1295.47C2519.32 1294.96 2520.11 1294.82 2520.8 1295.17L2523.51 1296.54 2526.78 1291.29 2531.31 1283.5C2531.65 1282.91 2532.3 1282.57 2532.96 1282.64L2535.77 1282.91 2539.31 1274.09 2543.43 1165.27 2547.55 1057.38 2547.55 1057.34 2551.67 986.614C2551.74 985.687 2552.5 984.967 2553.42 985.001 2554.35 985.035 2555.11 985.756 2555.11 986.683L2559.23 1193.52 2563.69 1210.19 2563.72 1210.37 2567.85 1234.63 2569.6 1243.41 2572.69 1207.62C2572.76 1206.76 2573.48 1206.08 2574.34 1206.04 2575.19 1206.01 2575.95 1206.66 2576.09 1207.52L2580.21 1236.34 2580.21 1236.38 2584.23 1270.46 2585.26 1270.97 2589.17 1225.71 2593.7 1172.99C2593.77 1172.1 2594.53 1171.42 2595.42 1171.42L2599.54 1171.42C2600.47 1171.42 2601.22 1172.14 2601.26 1173.06L2603.94 1229.21 2606.06 1197.36 2606.06 1197.29 2610.19 1157.76 2610.19 1157.72 2614.31 1122.72C2614.41 1121.83 2615.16 1121.17 2616.06 1121.21 2616.95 1121.24 2617.67 1121.93 2617.74 1122.79L2621.14 1165.62 2622.62 1160.71 2622.89 1160.16 2627.42 1154.39C2627.84 1153.88 2628.52 1153.64 2629.18 1153.78 2629.83 1153.95 2630.34 1154.46 2630.45 1155.11L2633.91 1173.17 2635.73 1171.18C2636.11 1170.76 2636.66 1170.56 2637.21 1170.63 2637.76 1170.69 2638.24 1171 2638.52 1171.48L2642.64 1178.9 2642.71 1179.07 2646.86 1188.95C2647.24 1189.84 2646.83 1190.84 2645.93 1191.18 2645.04 1191.56 2644.04 1191.15 2643.7 1190.26L2639.58 1180.44 2636.66 1175.19 2634.15 1177.94C2633.71 1178.42 2633.06 1178.62 2632.4 1178.42 2631.78 1178.24 2631.3 1177.73 2631.17 1177.08L2627.77 1159.37 2625.74 1161.91 2621.72 1175.19C2621.48 1175.98 2620.73 1176.49 2619.9 1176.39 2619.08 1176.29 2618.43 1175.64 2618.39 1174.81L2615.65 1140.29 2613.55 1157.96 2609.43 1197.46 2605.31 1259.2C2605.24 1260.13 2604.49 1260.81 2603.59 1260.81 2602.7 1260.81 2601.94 1260.09 2601.91 1259.17L2597.86 1174.74 2596.97 1174.74 2592.57 1225.88 2588.45 1273.65C2588.41 1274.2 2588.07 1274.71 2587.59 1274.99 2587.11 1275.26 2586.49 1275.3 2585.98 1275.02L2581.86 1272.96C2581.34 1272.69 2581 1272.21 2580.93 1271.62L2576.81 1236.62 2574.82 1222.65 2571.97 1255.49C2571.9 1256.35 2571.21 1257 2570.35 1257.07 2569.49 1257.11 2568.74 1256.52 2568.57 1255.7L2564.45 1235.11 2564.45 1235.07 2560.33 1210.85 2555.83 1194.03 2555.76 1193.62 2552.5 1030.51 2550.95 1057.34 2546.83 1165.24 2542.71 1274.37 2542.57 1274.95 2538.45 1285.25C2538.18 1285.97 2537.46 1286.38 2536.7 1286.31L2533.68 1286 2529.69 1292.87 2529.66 1292.9 2525.54 1299.49C2525.06 1300.24 2524.1 1300.52 2523.31 1300.11L2520.29 1298.6 2517.02 1301.86C2516.58 1302.3 2515.96 1302.44 2515.38 1302.3 2514.79 1302.13 2514.31 1301.69 2514.17 1301.1L2511.8 1292.39 2509.26 1303.02 2505.14 1334.63C2505.04 1335.49 2504.28 1336.14 2503.39 1336.14 2502.5 1336.11 2501.78 1335.45 2501.71 1334.56L2498.89 1301.86 2496.45 1319.02C2496.35 1319.77 2495.73 1320.39 2494.98 1320.49 2494.22 1320.59 2493.47 1320.15 2493.16 1319.46L2491.41 1315.28 2488.21 1336.76C2488.14 1337.31 2487.8 1337.79 2487.32 1338.03 2486.84 1338.27 2486.26 1338.3 2485.74 1338.03L2481.76 1336.04 2478.63 1335.11 2475.27 1337.82 2471.18 1341.49C2470.77 1341.87 2470.22 1342.01 2469.7 1341.91L2466.37 1341.25 2462.46 1344.45C2461.98 1344.82 2461.33 1344.93 2460.78 1344.72 2460.19 1344.51 2459.78 1344 2459.68 1343.42L2457.2 1329.41 2454.8 1342.63 2454.7 1343 2450.58 1352.48 2450.44 1352.75 2446.32 1358.93C2446.11 1359.27 2445.77 1359.51 2445.39 1359.61L2441.27 1360.85C2440.72 1361.02 2440.14 1360.88 2439.69 1360.54L2436.88 1358.28 2433.41 1362.36C2429.87 1365.93 2424.96 1367.3 2420.29 1368.64L2416.24 1370.25C2415.76 1370.42 2415.24 1370.42 2414.8 1370.18 2414.35 1369.94 2414.04 1369.53 2413.9 1369.05L2410.19 1353.13 2408.82 1353.54 2404.91 1372.72 2404.7 1373.27 2400.24 1380.58 2396.15 1389.54C2395.84 1390.23 2395.12 1390.64 2394.36 1390.53 2393.61 1390.43 2393.02 1389.88 2392.89 1389.13L2390.07 1373.38 2387.98 1380.65C2387.77 1381.37 2387.15 1381.85 2386.4 1381.89 2385.68 1381.92 2384.99 1381.47 2384.71 1380.79L2382.45 1374.92 2379.74 1384.73 2379.36 1385.42 2375.27 1389.88 2371.29 1395.03 2366.93 1404.16 2362.84 1421.28C2362.74 1421.76 2362.39 1422.18 2361.95 1422.42L2357.83 1424.47 2357.55 1424.58 2353.43 1425.81C2353.12 1425.92 2352.78 1425.92 2352.44 1425.81L2348.31 1424.58C2347.97 1424.47 2347.66 1424.27 2347.46 1423.99L2343.37 1418.71 2339.39 1414.32 2336.47 1411.98 2333.1 1414.73 2329.08 1419.16 2328.88 1419.33 2324.76 1422.62C2324.48 1422.83 2324.17 1422.96 2323.87 1423L2319.92 1423.41 2316.04 1424.58 2311.98 1426.19C2311.4 1426.43 2310.75 1426.33 2310.27 1425.95L2306.15 1422.66C2305.87 1422.45 2305.67 1422.14 2305.56 1421.83L2301.03 1407.01 2300.96 1406.7 2296.87 1371.93 2292.89 1362.81 2288.84 1356.32 2286.26 1352.2 2283.55 1357.07 2282.93 1357.73 2278.81 1360.2C2278.3 1360.51 2277.64 1360.51 2277.13 1360.23 2276.58 1359.96 2276.24 1359.41 2276.24 1358.79L2273.11 1282.5 2271.02 1303.26 2266.9 1355.15C2266.83 1356.05 2266.07 1356.77 2265.15 1356.73 2264.22 1356.7 2263.5 1355.98 2263.46 1355.08L2260.82 1277.73 2258.66 1325.85 2258.66 1325.88 2254.53 1395.89 2254.33 1396.61 2250.21 1404.02C2249.83 1404.67 2249.07 1405.02 2248.35 1404.88 2247.63 1404.74 2247.05 1404.12 2247.01 1403.37L2243 1359.75 2240.15 1359.17C2239.7 1359.06 2239.32 1358.83 2239.08 1358.45L2234.55 1351.86C2234.34 1351.58 2234.24 1351.24 2234.24 1350.93L2230.22 1138.92 2229.54 1139.74 2225.45 1226.46C2225.42 1227.25 2224.83 1227.94 2224.04 1228.07 2223.25 1228.21 2222.46 1227.8 2222.15 1227.04L2218.03 1217.16 2217.89 1216.68 2215.97 1198.15 2213.09 1247.5C2213.05 1248.25 2212.5 1248.91 2211.75 1249.08 2210.99 1249.25 2210.24 1248.91 2209.86 1248.25L2205.74 1240.84 2205.53 1240.09 2202 1144.44 2200.31 1162.77 2200.28 1163.01 2196.19 1180.99 2192.07 1232.74C2192 1233.53 2191.38 1234.18 2190.59 1234.32 2189.8 1234.42 2189.02 1233.98 2188.74 1233.22L2187.33 1229.55 2183.83 1272.72 2183.83 1272.76 2179.71 1311.88 2179.54 1312.43 2175.11 1321.66 2171.02 1354.33 2170.99 1354.47 2166.87 1374.65C2166.69 1375.5 2165.87 1376.09 2165.01 1376.02L2160.89 1375.61C2160.1 1375.54 2159.48 1374.92 2159.38 1374.16L2156.74 1356.63 2154.54 1367.64C2154.4 1368.33 2153.85 1368.88 2153.17 1368.98 2152.48 1369.12 2151.79 1368.81 2151.41 1368.19L2147.29 1361.6 2147.05 1360.88 2142.93 1323.44 2138.91 1293.14 2137.61 1294.72 2133.56 1319.77C2133.49 1320.29 2133.18 1320.7 2132.73 1320.97L2128.61 1323.44C2128.13 1323.72 2127.51 1323.75 2127 1323.51 2126.48 1323.27 2126.11 1322.79 2126.04 1322.24L2123.12 1304.77 2121.16 1311.19 2117.04 1348.91C2116.94 1349.73 2116.28 1350.35 2115.46 1350.42 2114.64 1350.49 2113.88 1349.97 2113.68 1349.18L2109.55 1334.36 2109.52 1334.15 2104.99 1304.12 2100.87 1283.98 2100.83 1283.81 2098.05 1253.26 2095.99 1267.78 2091.87 1319.19 2087.75 1386.69 2087.61 1387.24 2083.49 1397.12C2083.18 1397.88 2082.36 1398.32 2081.57 1398.15L2077.45 1397.33C2077 1397.23 2076.59 1396.99 2076.35 1396.57L2071.82 1389.57 2071.61 1389.13 2067.49 1375.13 2067.45 1374.99 2063.33 1354.4 2063.3 1354.26 2060.14 1326.67 2058.46 1332.26 2054.34 1352.37C2054.17 1353.16 2053.51 1353.71 2052.69 1353.75 2051.9 1353.78 2051.18 1353.23 2050.97 1352.44L2047.92 1340.57 2045.65 1344.69 2041.56 1396.2C2041.49 1397.09 2040.77 1397.78 2039.88 1397.78 2038.99 1397.78 2038.23 1397.12 2038.16 1396.23L2034.18 1354.67 2032.94 1354.43 2029.2 1370.12 2029.17 1370.22 2025.05 1383.4 2024.63 1384.12 2020.89 1387.86 2016.87 1407.93C2016.7 1408.72 2016.01 1409.31 2015.19 1409.31L2010.66 1409.31C2009.9 1409.31 2009.22 1408.79 2009.01 1408.04L2006.06 1397.4 2003.96 1401.41C2003.65 1402.03 2002.97 1402.37 2002.28 1402.31L1998.16 1401.89C1997.37 1401.83 1996.75 1401.21 1996.61 1400.42L1993.45 1376.5 1991.7 1381.78C1991.46 1382.5 1990.81 1382.95 1990.09 1382.95L1985.97 1382.95C1985.07 1382.95 1984.32 1382.26 1984.25 1381.37L1980.78 1335.11 1978.93 1340.98C1978.65 1341.8 1977.79 1342.32 1976.94 1342.15L1972.82 1341.32 1972.51 1341.22 1969.11 1339.85 1966.39 1341.19 1962.45 1358.1 1962.45 1358.1 1958.32 1375.4C1958.19 1375.92 1957.84 1376.33 1957.4 1376.57 1956.92 1376.77 1956.37 1376.77 1955.89 1376.53L1953.72 1375.43 1949.67 1392.66C1947.92 1397.74 1943.73 1406.8 1941.19 1411.74L1937.07 1417.92C1936.69 1418.47 1936.07 1418.74 1935.42 1418.68 1934.77 1418.57 1934.22 1418.13 1934.01 1417.51L1930.96 1408.35 1928.79 1411.37C1928.42 1411.91 1927.73 1412.19 1927.04 1412.05L1923.78 1411.4 1920.48 1414.39 1916.09 1421.21C1915.74 1421.73 1915.13 1422.04 1914.51 1422 1913.89 1421.94 1913.31 1421.52 1913.07 1420.94L1909.49 1412.36 1907.54 1412.74 1903.79 1419.46C1903.52 1419.94 1903.04 1420.25 1902.49 1420.32 1901.94 1420.39 1901.39 1420.19 1901.01 1419.77L1897.68 1416.14 1894.66 1417.34 1893.84 1417.44 1890.95 1417.17 1887.35 1425.09C1887.07 1425.71 1886.45 1426.09 1885.8 1426.09L1881.27 1426.09 1877.15 1426.09 1876.67 1426.02 1873.2 1424.99 1869.7 1426.74 1865.57 1428.8 1864.82 1428.97 1860.87 1428.97 1856.92 1429.76 1856.68 1429.79 1852.56 1430 1852.39 1430 1847.86 1429.79 1847.75 1429.79 1843.7 1429.38 1839.72 1429.38C1838.76 1429.38 1838 1428.63 1838 1427.67 1838 1426.81 1838.79 1426.05 1839.72 1426.05" fill-rule="evenodd"/></g></svg>