<svg width="978" height="586" xmlns="http://www.w3.org/2000/svg" xmlns:xlink="http://www.w3.org/1999/xlink" xml:space="preserve" overflow="hidden"><defs><clipPath id="clip0"><rect x="1708" y="952" width="978" height="586"/></clipPath></defs><g clip-path="url(#clip0)" transform="translate(-1708 -952)"><path d="M1800 953 2585 953 2585 1495 1800 1495Z" fill="#FFFFFF" fill-rule="evenodd"/><path d="M1800 1001 2585 1001M1800 1062.86 2585 1062.86M1800 1124.35 2585 1124.35M1800 1186.24 2585 1186.24M1800 1247.72 2585 1247.72M1800 1309.62 2585 1309.62M1800 1371.52 2585 1371.52M1800 1433 2585 1433" stroke="#F2F2F2" stroke-width="1.71893" stroke-linejoin="round" stroke-miterlimit="10" fill="none" fill-rule="evenodd"/><path d="M2585 953 2585 1495M2497.55 953 2497.55 1495M2410.45 953 2410.45 1495M2323.34 953 2323.34 1495M2235.83 953 2235.83 1495M2148.72 953 2148.72 1495M2061.62 953 2061.62 1495M1974.1 953 1974.1 1495M1887 953 1887 1495" stroke="#F2F2F2" stroke-width="1.71893" stroke-linejoin="round" stroke-miterlimit="10" fill="none" fill-rule="evenodd"/><path d="M1800 953 2585 953 2585 1495 1800 1495Z" stroke="#D9D9D9" stroke-width="1.71893" stroke-linejoin="round" stroke-miterlimit="10" fill="none" fill-rule="evenodd"/><path d="M2585 1495 2585 953" stroke="#BFBFBF" stroke-width="1.71893" stroke-linejoin="round" stroke-miterlimit="10" fill="none" fill-rule="evenodd"/><path d="M2585 1009 2589 1009M2585 1078.64 2589 1078.64M2585 1147.91 2589 1147.91M2585 1217.18 2589 1217.18M2585 1286.86 2589 1286.86M2585 1356.12 2589 1356.12M2585 1425.39 2589 1425.39M2585 1495 2589 1495" stroke="#BFBFBF" stroke-width="1.71893" stroke-linejoin="round" stroke-miterlimit="10" fill="none" fill-rule="evenodd"/><path d="M1800 1495 1800 953" stroke="#BFBFBF" stroke-width="1.71893" stroke-linejoin="round" stroke-miterlimit="10" fill="none" fill-rule="evenodd"/><path d="M1800 1495 2585 1495" stroke="#BFBFBF" stroke-width="1.71893" stroke-linejoin="round" stroke-miterlimit="10" fill="none" fill-rule="evenodd"/><path d="M2585 1495 2585 1500M2497.58 1495 2497.58 1500M2410.49 1495 2410.49 1500M2323.41 1495 2323.41 1500M2235.92 1495 2235.92 1500M2148.84 1495 2148.84 1500M2061.76 1495 2061.76 1500M1974.26 1495 1974.26 1500M1887.18 1495 1887.18 1500M1800 1495 1800 1500" stroke="#BFBFBF" stroke-width="1.71893" stroke-linejoin="round" stroke-miterlimit="10" fill="none" fill-rule="evenodd"/><path d="M1844 1467 1887.52 1443.65 1931.22 1425.94 1974.5 1412.34 2018.19 1380.62 2061.89 1367.02 2105.17 1327.88 2148.86 1322.94 2192.56 1319.64 2235.84 1351.78 2279.54 1367.02 2323.23 1374.44 2366.51 1376.09 2410.21 1321.29 2453.9 1250.84 2497.18 1111.17 2540.88 1001.99 2554 985" stroke="#327DC8" stroke-width="6.01572" stroke-linecap="round" stroke-linejoin="round" stroke-miterlimit="10" fill="none" fill-rule="evenodd"/><path d="M1844 1158.19 1887.52 1036.42 1931.22 994.725 1974.5 1033.11 2018.19 981 2061.89 1022.79 2105.17 984.406 2148.86 1036.42 2192.56 1092.14 2235.84 1189.56 2279.54 1255.6 2323.23 1307.61 2366.51 1332 2410.21 1279.96 2453.9 1220.93 2497.18 1109.48 2540.88 1047.15 2554 1040.13" stroke="#ED7D28" stroke-width="6.01572" stroke-linecap="round" stroke-linejoin="round" stroke-miterlimit="10" fill="none" fill-rule="evenodd"/><text font-family="Arial,Arial_MSFontService,sans-serif" font-weight="400" font-size="17" transform="matrix(1 0 0 1 1766.74 1494)">0M<tspan font-size="17" x="0" y="-56">5M</tspan><tspan font-size="17" x="-8.85596" y="-117">10M</tspan><tspan font-size="17" x="-8.85596" y="-179">15M</tspan><tspan font-size="17" x="-8.85596" y="-241">20M</tspan><tspan font-size="17" x="-8.85596" y="-302">25M</tspan><tspan font-size="17" x="-8.85596" y="-364">30M</tspan><tspan font-size="17" x="-8.85596" y="-426">35M</tspan><tspan font-size="17" x="-8.85596" y="-488">40M</tspan><tspan font-size="17" x="103.205" y="24">1860</tspan><tspan font-size="17" x="190.388" y="24">1880</tspan><tspan font-size="17" x="277.558" y="24">1900</tspan><tspan font-size="17" x="364.739" y="24">1920</tspan><tspan font-size="17" x="451.911" y="24">1940</tspan><tspan font-size="17" x="539.096" y="24">1960</tspan><tspan font-size="17" x="626.261" y="24">1980</tspan><tspan font-size="17" x="713.45" y="24">2000</tspan><tspan font-size="17" x="800.618" y="24">2020</tspan><tspan font-size="17" x="831.153" y="6">0.0%</tspan><tspan font-size="17" x="831.153" y="-64">2.0%</tspan><tspan font-size="17" x="831.153" y="-133">4.0%</tspan><tspan font-size="17" x="831.153" y="-203">6.0%</tspan><tspan font-size="17" x="831.153" y="-272">8.0%</tspan><tspan font-size="17" x="831.153" y="-342">10.0%</tspan><tspan font-size="17" x="831.153" y="-411">12.0%</tspan><tspan font-size="17" x="831.153" y="-481">14.0%</tspan></text><path d="M2070 1447 2080 1447 2080 1457 2070 1457Z" fill="#327EC4" fill-rule="evenodd"/><path d="M2070.5 1447.5 2080.5 1447.5 2080.5 1457.5 2070.5 1457.5Z" stroke="#327EC4" stroke-width="5.15643" stroke-miterlimit="8" fill="none" fill-rule="evenodd"/><text font-family="Arial,Arial_MSFontService,sans-serif" font-weight="400" font-size="17" transform="matrix(-1.83697e-16 -1 1 -1.83697e-16 1742 1295)">Number of immigrants<tspan font-size="17" x="-78" y="924.278">Immigrant share of the total U.S. population</tspan></text><path d="M2070 1470 2080 1470 2080 1480 2070 1480Z" fill="#ED7D31" fill-rule="evenodd"/><path d="M2070.5 1470.5 2080.5 1470.5 2080.5 1480.5 2070.5 1480.5Z" stroke="#ED7D31" stroke-width="5.15643" stroke-miterlimit="8" fill="none" fill-rule="evenodd"/><text font-family="Arial,Arial_MSFontService,sans-serif" font-weight="400" font-size="17" transform="matrix(1 0 0 1 2090.43 1457)">Number of immigrants<tspan font-size="17" x="0" y="23">Immigrant share of the total U.S. population</tspan></text></g></svg>