<svg width="674" height="554" xmlns="http://www.w3.org/2000/svg" xmlns:xlink="http://www.w3.org/1999/xlink" xml:space="preserve" overflow="hidden"><defs><clipPath id="clip0"><rect x="1864" y="951" width="674" height="554"/></clipPath></defs><g clip-path="url(#clip0)" transform="translate(-1864 -951)"><path d="M2202 1001C2224.98 1001 2247.85 1004.16 2270 1010.42L2202 1253 2202 1001Z" fill="#FF7F0E" fill-rule="evenodd"/><path d="M2270.14 1010C2284.17 1013.96 2297.86 1019.16 2311 1025.49L2202 1253 2270.14 1010Z" fill="#FFBB78" fill-rule="evenodd"/><path d="M2311.18 1026C2322.59 1031.5 2333.55 1037.82 2344 1044.93L2202 1253 2311.18 1026Z" fill="#2CA02C" fill-rule="evenodd"/><path d="M2344.15 1045C2357.37 1054 2369.72 1064.26 2381 1075.6L2202 1253 2344.15 1045Z" fill="#98DF8A" fill-rule="evenodd"/><path d="M2380.47 1075C2388.56 1083.2 2396.11 1091.95 2403 1101.19L2202 1253 2380.47 1075Z" fill="#FF9896" fill-rule="evenodd"/><path d="M2403.46 1101C2419.1 1121.87 2431.41 1145.05 2440 1169.72L2202 1253 2403.46 1101Z" fill="#C5B0D5" fill-rule="evenodd"/><path d="M2439.73 1170C2444.23 1182.93 2447.67 1196.17 2450 1209.64L2202 1253 2439.73 1170Z" fill="#E377C2" fill-rule="evenodd"/><path d="M2450.21 1209C2474.11 1346.42 2382.46 1477.26 2245.52 1501.24 2229.83 1504 2213.93 1505.24 2198 1504.96L2202.22 1252.44 2450.21 1209Z" fill="#F7B6D2" fill-rule="evenodd"/><path d="M2197.81 1505C2058.62 1502.66 1947.7 1387.98 1950.04 1248.84 1951.58 1155.95 2004.14 1071.48 2086.78 1029L2202 1253.06 2197.81 1505Z" fill="#7F7F7F" fill-rule="evenodd"/><path d="M2087 1029.11C2107.93 1018.33 2130.26 1010.57 2153.35 1006L2202 1253 2087 1029.11Z" fill="#C7C7C7" fill-rule="evenodd"/><path d="M2153 1005.78C2169.14 1002.62 2185.55 1001 2202 1001L2202 1253 2153 1005.78Z" fill="#9EDAE5" fill-rule="evenodd"/><text font-family="Arial,Arial_MSFontService,sans-serif" font-weight="400" font-size="21" transform="matrix(1 0 0 1 2237.41 995)">China*<tspan font-size="21" x="53.0723" y="14">Cuba</tspan><tspan font-size="21" x="91.4981" y="33">Dominican Republic</tspan><tspan font-size="21" x="131.31" y="59">El </tspan>Salvador<tspan font-size="21" x="163.417" y="89">Guatemala</tspan><tspan font-size="21" x="192.883" y="135">India</tspan><tspan font-size="21" x="215.897" y="190">Korea</tspan><tspan font-size="21" x="162.903" y="442">Mexico</tspan><tspan font-size="21" x="-340.884" y="335">Other</tspan><tspan font-size="21" x="-207.453" y="9">Philippines</tspan><tspan font-size="21" x="-94.343" y="-7">Vietnam</tspan></text></g></svg>