<svg width="999" height="524" xmlns="http://www.w3.org/2000/svg" xmlns:xlink="http://www.w3.org/1999/xlink" xml:space="preserve" overflow="hidden"><defs><clipPath id="clip0"><rect x="1685" y="976" width="999" height="524"/></clipPath></defs><g clip-path="url(#clip0)" transform="translate(-1685 -976)"><path d="M1893 1317.66C1894.41 1316.59 1895.89 1315.56 1897.27 1314.46 1907.53 1306.38 1919.31 1301.4 1931.47 1296.86 1941.11 1293.25 1950.3 1288.37 1959.74 1284.18 1971.04 1279.16 1982.4 1274.28 1993.73 1269.36 2009.81 1262.38 2025.86 1255.3 2042.01 1248.5 2053.38 1243.68 2064.84 1239.08 2076.38 1234.68 2083.09 1232.13 2090.15 1230.52 2096.8 1227.91 2108.06 1223.47 2119.19 1218.76 2130.21 1213.81 2138.57 1210.07 2146.74 1205.84 2154.86 1201.61 2161.23 1198.31 2167.4 1194.56 2173.73 1191.19 2177.94 1188.96 2182.17 1186.83 2186.54 1184.94 2194.36 1181.57 2202.15 1178.06 2210.2 1175.38 2215.71 1173.56 2221.71 1173.22 2227.42 1171.91 2236.69 1169.81 2246.02 1167.92 2255.08 1165.17 2264.51 1162.28 2273.78 1158.81 2282.87 1154.96 2290.27 1151.8 2297.23 1147.54 2304.49 1144.03 2309.04 1141.83 2313.34 1138.94 2319.13 1140.39 2323.3 1141.42 2327.84 1140.97 2332.18 1141.42 2333.73 1141.59 2335.35 1142.35 2336.66 1143.21 2341.41 1146.3 2341 1150.18 2336.04 1152.93 2325.12 1158.98 2314.48 1165.52 2303.43 1171.29 2292.3 1177.07 2280.39 1180.88 2268.09 1183.49 2260.14 1185.18 2252.36 1187.48 2244.4 1189.2 2235.03 1191.26 2225.63 1193.29 2216.13 1194.77 2208.41 1195.97 2202.83 1200.61 2196.98 1204.98 2191.37 1209.17 2185.75 1213.33 2180.11 1217.42 2175.77 1220.55 2171.36 1223.61 2166.98 1226.67 2166.64 1226.91 2166.26 1227.01 2165.88 1227.18 2157.38 1231.03 2148.8 1234.75 2140.4 1238.77 2133.68 1241.97 2127.28 1245.78 2120.49 1248.81 2112.44 1252.42 2103.93 1255.1 2095.94 1258.84 2080.93 1265.86 2064.84 1269.43 2049.17 1274.35 2037.4 1278.03 2025.83 1282.43 2014.43 1287.13 2000.34 1292.98 1986.29 1298.68 1971.38 1302.16 1962.43 1304.25 1953.54 1306.8 1944.55 1308.72 1933.15 1311.2 1921.69 1313.19 1910.25 1315.49 1904.74 1316.59 1899.27 1317.83 1893.76 1319 1893.52 1318.55 1893.28 1318.11 1893 1317.66Z" fill="#DBD8C7" fill-rule="evenodd"/><path d="M1816 1066 2599 1066 2599 1069.43 1816 1069.43 1816 1066ZM1816 1118.27 2599 1118.27 2599 1121.7 1816 1121.7 1816 1118.27ZM1816 1170.17 2599 1170.17 2599 1173.6 1816 1173.6 1816 1170.17ZM1816 1222.47 2599 1222.47 2599 1225.91 1816 1225.91 1816 1222.47ZM1816 1274.37 2599 1274.37 2599 1277.8 1816 1277.8 1816 1274.37ZM1816 1326.67 2599 1326.67 2599 1330.11 1816 1330.11 1816 1326.67ZM1816 1378.57 2599 1378.57 2599 1382 1816 1382 1816 1378.57Z" fill="#D9D9D9" fill-rule="evenodd"/><path d="M1816 1431 2599 1431 2599 1434 1816 1434Z" fill="#BFBFBF" fill-rule="evenodd"/><path d="M1813.97 1337.6 1991.88 1280.04 2027.21 1266.03 2027.18 1266.03 2063.06 1251.58 2063.3 1251.51 2098.53 1239.61 2133.73 1222.81 2169.44 1204.75 2204.77 1183.76C2205.15 1183.52 2205.6 1183.35 2206.05 1183.24L2241.38 1175.43 2276.85 1165.21 2312.05 1149.62 2312.6 1149.42 2347.93 1139.13 2383.54 1126.02 2418.87 1110.36C2419.9 1109.92 2421.07 1109.88 2422.1 1110.26L2457.44 1123.44 2492.43 1133.52 2527.14 1131.11 2562.58 1128.22C2563.03 1128.19 2563.4 1128.22 2563.85 1128.29L2599.63 1136.14C2601.94 1136.65 2603.41 1138.92 2602.9 1141.26 2602.38 1143.57 2600.11 1145.05 2597.78 1144.53L2562.61 1136.82 2527.8 1139.68 2527.76 1139.68 2492.29 1142.16C2491.77 1142.19 2491.29 1142.16 2490.81 1141.99L2454.93 1131.66 2454.62 1131.56 2420.8 1118.97 2386.91 1133.97 2386.67 1134.07 2350.78 1147.28 2350.51 1147.39 2315.31 1157.64 2280.12 1173.23 2279.57 1173.44 2243.68 1183.76 2243.41 1183.83 2208.62 1191.54 2173.74 1212.25 2173.5 1212.39 2137.61 1230.56 2137.51 1230.59 2102.04 1247.52 2101.56 1247.73 2066.22 1259.67 2030.44 1274.08 2030.41 1274.08 1994.9 1288.05 1994.63 1288.16 1816.62 1345.79C1814.35 1346.52 1811.94 1345.28 1811.22 1343.01 1810.47 1340.74 1811.7 1338.33 1813.97 1337.6" fill="#A55A26" fill-rule="evenodd"/><path d="M1822 1341.5C1822 1345.08 1818.85 1348 1815 1348 1811.15 1348 1808 1345.08 1808 1341.5 1808 1337.92 1811.15 1335 1815 1335 1818.85 1335 1822 1337.92 1822 1341.5" fill="#FFFFFF" fill-rule="evenodd"/><path d="M1821.44 1341.5 1823 1341.5C1823 1346.2 1819.42 1350 1815 1350 1810.58 1350 1807 1346.2 1807 1341.5 1807 1336.8 1810.58 1333 1815 1333 1819.42 1333 1823 1336.8 1823 1341.5L1821.44 1341.5 1819.88 1341.5C1819.88 1338.63 1817.7 1336.32 1815 1336.32 1812.3 1336.32 1810.12 1338.63 1810.12 1341.5 1810.12 1344.37 1812.3 1346.68 1815 1346.68 1817.7 1346.68 1819.88 1344.37 1819.88 1341.5L1821.44 1341.5Z" fill="#A55A26" fill-rule="evenodd"/><path d="M2000 1283.5C2000 1287.08 1996.85 1290 1993 1290 1989.15 1290 1986 1287.08 1986 1283.5 1986 1279.92 1989.15 1277 1993 1277 1996.85 1277 2000 1279.92 2000 1283.5" fill="#FFFFFF" fill-rule="evenodd"/><path d="M2000.34 1283.5 2002 1283.5C2002 1288.2 1998.2 1292 1993.5 1292 1988.8 1292 1985 1288.2 1985 1283.5 1985 1278.8 1988.8 1275 1993.5 1275 1998.2 1275 2002 1278.8 2002 1283.5L2000.34 1283.5 1998.68 1283.5C1998.68 1280.63 1996.37 1278.32 1993.5 1278.32 1990.63 1278.32 1988.32 1280.63 1988.32 1283.5 1988.32 1286.37 1990.63 1288.68 1993.5 1288.68 1996.37 1288.68 1998.68 1286.37 1998.68 1283.5L2000.34 1283.5Z" fill="#A55A26" fill-rule="evenodd"/><path d="M2035 1269.5C2035 1273.08 2032.08 1276 2028.5 1276 2024.92 1276 2022 1273.08 2022 1269.5 2022 1265.92 2024.92 1263 2028.5 1263 2032.08 1263 2035 1265.92 2035 1269.5" fill="#FFFFFF" fill-rule="evenodd"/><path d="M2035.34 1269.5 2037 1269.5C2037 1274.2 2033.2 1278 2028.5 1278 2023.8 1278 2020 1274.2 2020 1269.5 2020 1264.8 2023.8 1261 2028.5 1261 2033.2 1261 2037 1264.8 2037 1269.5L2035.34 1269.5 2033.68 1269.5C2033.68 1266.63 2031.37 1264.32 2028.5 1264.32 2025.63 1264.32 2023.32 1266.63 2023.32 1269.5 2023.32 1272.37 2025.63 1274.68 2028.5 1274.68 2031.37 1274.68 2033.68 1272.37 2033.68 1269.5L2035.34 1269.5Z" fill="#A55A26" fill-rule="evenodd"/><path d="M2071 1255C2071 1258.85 2068.08 1262 2064.5 1262 2060.92 1262 2058 1258.85 2058 1255 2058 1251.15 2060.92 1248 2064.5 1248 2068.08 1248 2071 1251.15 2071 1255" fill="#FFFFFF" fill-rule="evenodd"/><path d="M2071.34 1255.5 2073 1255.5C2073 1260.2 2069.2 1264 2064.5 1264 2059.8 1264 2056 1260.2 2056 1255.5 2056 1250.8 2059.8 1247 2064.5 1247 2069.2 1247 2073 1250.8 2073 1255.5L2071.34 1255.5 2069.68 1255.5C2069.68 1252.63 2067.37 1250.32 2064.5 1250.32 2061.63 1250.32 2059.32 1252.63 2059.32 1255.5 2059.32 1258.37 2061.63 1260.68 2064.5 1260.68 2067.37 1260.68 2069.68 1258.37 2069.68 1255.5L2071.34 1255.5Z" fill="#A55A26" fill-rule="evenodd"/><path d="M2107 1243C2107 1246.85 2103.85 1250 2100 1250 2096.15 1250 2093 1246.85 2093 1243 2093 1239.15 2096.15 1236 2100 1236 2103.85 1236 2107 1239.15 2107 1243" fill="#FFFFFF" fill-rule="evenodd"/><path d="M2106.44 1243.5 2108 1243.5C2108 1248.2 2104.42 1252 2100 1252 2095.58 1252 2092 1248.2 2092 1243.5 2092 1238.8 2095.58 1235 2100 1235 2104.42 1235 2108 1238.8 2108 1243.5L2106.44 1243.5 2104.88 1243.5C2104.88 1240.63 2102.7 1238.32 2100 1238.32 2097.3 1238.32 2095.12 1240.63 2095.12 1243.5 2095.12 1246.37 2097.3 1248.68 2100 1248.68 2102.7 1248.68 2104.88 1246.37 2104.88 1243.5L2106.44 1243.5Z" fill="#A55A26" fill-rule="evenodd"/><path d="M2142 1226.5C2142 1230.08 2139.08 1233 2135.5 1233 2131.92 1233 2129 1230.08 2129 1226.5 2129 1222.92 2131.92 1220 2135.5 1220 2139.08 1220 2142 1222.92 2142 1226.5" fill="#FFFFFF" fill-rule="evenodd"/><path d="M2142.34 1226.5 2144 1226.5C2144 1231.2 2140.2 1235 2135.5 1235 2130.8 1235 2127 1231.2 2127 1226.5 2127 1221.8 2130.8 1218 2135.5 1218 2140.2 1218 2144 1221.8 2144 1226.5L2142.34 1226.5 2140.68 1226.5C2140.68 1223.63 2138.37 1221.32 2135.5 1221.32 2132.63 1221.32 2130.32 1223.63 2130.32 1226.5 2130.32 1229.37 2132.63 1231.68 2135.5 1231.68 2138.37 1231.68 2140.68 1229.37 2140.68 1226.5L2142.34 1226.5Z" fill="#A55A26" fill-rule="evenodd"/><path d="M2178 1208C2178 1211.85 2175.08 1215 2171.5 1215 2167.92 1215 2165 1211.85 2165 1208 2165 1204.15 2167.92 1201 2171.5 1201 2175.08 1201 2178 1204.15 2178 1208" fill="#FFFFFF" fill-rule="evenodd"/><path d="M2178.34 1208.5 2180 1208.5C2180 1213.2 2176.2 1217 2171.5 1217 2166.8 1217 2163 1213.2 2163 1208.5 2163 1203.8 2166.8 1200 2171.5 1200 2176.2 1200 2180 1203.8 2180 1208.5L2178.34 1208.5 2176.68 1208.5C2176.68 1205.63 2174.37 1203.32 2171.5 1203.32 2168.63 1203.32 2166.32 1205.63 2166.32 1208.5 2166.32 1211.37 2168.63 1213.68 2171.5 1213.68 2174.37 1213.68 2176.68 1211.37 2176.68 1208.5L2178.34 1208.5Z" fill="#A55A26" fill-rule="evenodd"/><path d="M2214 1187C2214 1190.85 2210.85 1194 2207 1194 2203.15 1194 2200 1190.85 2200 1187 2200 1183.15 2203.15 1180 2207 1180 2210.85 1180 2214 1183.15 2214 1187" fill="#FFFFFF" fill-rule="evenodd"/><path d="M2213.34 1187.5 2215 1187.5C2215 1192.2 2211.2 1196 2206.5 1196 2201.8 1196 2198 1192.2 2198 1187.5 2198 1182.8 2201.8 1179 2206.5 1179 2211.2 1179 2215 1182.8 2215 1187.5L2213.34 1187.5 2211.68 1187.5C2211.68 1184.63 2209.37 1182.32 2206.5 1182.32 2203.63 1182.32 2201.32 1184.63 2201.32 1187.5 2201.32 1190.37 2203.63 1192.68 2206.5 1192.68 2209.37 1192.68 2211.68 1190.37 2211.68 1187.5L2213.34 1187.5Z" fill="#A55A26" fill-rule="evenodd"/><path d="M2249 1179C2249 1182.85 2246.08 1186 2242.5 1186 2238.92 1186 2236 1182.85 2236 1179 2236 1175.15 2238.92 1172 2242.5 1172 2246.08 1172 2249 1175.15 2249 1179" fill="#FFFFFF" fill-rule="evenodd"/><path d="M2249.34 1179.5 2251 1179.5C2251 1184.2 2247.2 1188 2242.5 1188 2237.8 1188 2234 1184.2 2234 1179.5 2234 1174.8 2237.8 1171 2242.5 1171 2247.2 1171 2251 1174.8 2251 1179.5L2249.34 1179.5 2247.68 1179.5C2247.68 1176.63 2245.37 1174.32 2242.5 1174.32 2239.63 1174.32 2237.32 1176.63 2237.32 1179.5 2237.32 1182.37 2239.63 1184.68 2242.5 1184.68 2245.37 1184.68 2247.68 1182.37 2247.68 1179.5L2249.34 1179.5Z" fill="#A55A26" fill-rule="evenodd"/><path d="M2285 1169C2285 1172.85 2281.85 1176 2278 1176 2274.15 1176 2271 1172.85 2271 1169 2271 1165.15 2274.15 1162 2278 1162 2281.85 1162 2285 1165.15 2285 1169" fill="#FFFFFF" fill-rule="evenodd"/><path d="M2285.34 1169 2287 1169C2287 1173.42 2283.2 1177 2278.5 1177 2273.8 1177 2270 1173.42 2270 1169 2270 1164.58 2273.8 1161 2278.5 1161 2283.2 1161 2287 1164.58 2287 1169L2285.34 1169 2283.68 1169C2283.68 1166.3 2281.37 1164.12 2278.5 1164.12 2275.63 1164.12 2273.32 1166.3 2273.32 1169 2273.32 1171.7 2275.63 1173.88 2278.5 1173.88 2281.37 1173.88 2283.68 1171.7 2283.68 1169L2285.34 1169Z" fill="#A55A26" fill-rule="evenodd"/><path d="M2321 1153.5C2321 1157.08 2317.85 1160 2314 1160 2310.15 1160 2307 1157.08 2307 1153.5 2307 1149.92 2310.15 1147 2314 1147 2317.85 1147 2321 1149.92 2321 1153.5" fill="#FFFFFF" fill-rule="evenodd"/><path d="M2320.34 1153.5 2322 1153.5C2322 1158.2 2318.2 1162 2313.5 1162 2308.8 1162 2305 1158.2 2305 1153.5 2305 1148.8 2308.8 1145 2313.5 1145 2318.2 1145 2322 1148.8 2322 1153.5L2320.34 1153.5 2318.68 1153.5C2318.68 1150.63 2316.37 1148.32 2313.5 1148.32 2310.63 1148.32 2308.32 1150.63 2308.32 1153.5 2308.32 1156.37 2310.63 1158.68 2313.5 1158.68 2316.37 1158.68 2318.68 1156.37 2318.68 1153.5L2320.34 1153.5Z" fill="#A55A26" fill-rule="evenodd"/><path d="M2356 1143C2356 1146.85 2352.85 1150 2349 1150 2345.15 1150 2342 1146.85 2342 1143 2342 1139.15 2345.15 1136 2349 1136 2352.85 1136 2356 1139.15 2356 1143" fill="#FFFFFF" fill-rule="evenodd"/><path d="M2356.34 1143 2358 1143C2358 1147.42 2354.2 1151 2349.5 1151 2344.8 1151 2341 1147.42 2341 1143 2341 1138.58 2344.8 1135 2349.5 1135 2354.2 1135 2358 1138.58 2358 1143L2356.34 1143 2354.68 1143C2354.68 1140.3 2352.37 1138.12 2349.5 1138.12 2346.63 1138.12 2344.32 1140.3 2344.32 1143 2344.32 1145.7 2346.63 1147.88 2349.5 1147.88 2352.37 1147.88 2354.68 1145.7 2354.68 1143L2356.34 1143Z" fill="#A55A26" fill-rule="evenodd"/><path d="M2392 1130C2392 1133.85 2388.85 1137 2385 1137 2381.15 1137 2378 1133.85 2378 1130 2378 1126.15 2381.15 1123 2385 1123 2388.85 1123 2392 1126.15 2392 1130" fill="#FFFFFF" fill-rule="evenodd"/><path d="M2392.34 1129.5 2394 1129.5C2394 1134.2 2390.2 1138 2385.5 1138 2380.8 1138 2377 1134.2 2377 1129.5 2377 1124.8 2380.8 1121 2385.5 1121 2390.2 1121 2394 1124.8 2394 1129.5L2392.34 1129.5 2390.68 1129.5C2390.68 1126.63 2388.37 1124.32 2385.5 1124.32 2382.63 1124.32 2380.32 1126.63 2380.32 1129.5 2380.32 1132.37 2382.63 1134.68 2385.5 1134.68 2388.37 1134.68 2390.68 1132.37 2390.68 1129.5L2392.34 1129.5Z" fill="#A55A26" fill-rule="evenodd"/><path d="M2427 1114C2427 1117.85 2424.08 1121 2420.5 1121 2416.92 1121 2414 1117.85 2414 1114 2414 1110.15 2416.92 1107 2420.5 1107 2424.08 1107 2427 1110.15 2427 1114" fill="#FFFFFF" fill-rule="evenodd"/><path d="M2427.34 1114.5 2429 1114.5C2429 1119.2 2425.2 1123 2420.5 1123 2415.8 1123 2412 1119.2 2412 1114.5 2412 1109.8 2415.8 1106 2420.5 1106 2425.2 1106 2429 1109.8 2429 1114.5L2427.34 1114.5 2425.68 1114.5C2425.68 1111.63 2423.37 1109.32 2420.5 1109.32 2417.63 1109.32 2415.32 1111.63 2415.32 1114.5 2415.32 1117.37 2417.63 1119.68 2420.5 1119.68 2423.37 1119.68 2425.68 1117.37 2425.68 1114.5L2427.34 1114.5Z" fill="#A55A26" fill-rule="evenodd"/><path d="M2463 1127.5C2463 1131.08 2459.85 1134 2456 1134 2452.15 1134 2449 1131.08 2449 1127.5 2449 1123.92 2452.15 1121 2456 1121 2459.85 1121 2463 1123.92 2463 1127.5" fill="#FFFFFF" fill-rule="evenodd"/><path d="M2462.44 1127.5 2464 1127.5C2464 1132.2 2460.42 1136 2456 1136 2451.58 1136 2448 1132.2 2448 1127.5 2448 1122.8 2451.58 1119 2456 1119 2460.42 1119 2464 1122.8 2464 1127.5L2462.44 1127.5 2460.88 1127.5C2460.88 1124.63 2458.7 1122.32 2456 1122.32 2453.3 1122.32 2451.12 1124.63 2451.12 1127.5 2451.12 1130.37 2453.3 1132.68 2456 1132.68 2458.7 1132.68 2460.88 1130.37 2460.88 1127.5L2462.44 1127.5Z" fill="#A55A26" fill-rule="evenodd"/><path d="M2499 1137.5C2499 1141.08 2495.85 1144 2492 1144 2488.15 1144 2485 1141.08 2485 1137.5 2485 1133.92 2488.15 1131 2492 1131 2495.85 1131 2499 1133.92 2499 1137.5" fill="#FFFFFF" fill-rule="evenodd"/><path d="M2498.34 1137.5 2500 1137.5C2500 1142.2 2496.2 1146 2491.5 1146 2486.8 1146 2483 1142.2 2483 1137.5 2483 1132.8 2486.8 1129 2491.5 1129 2496.2 1129 2500 1132.8 2500 1137.5L2498.34 1137.5 2496.68 1137.5C2496.68 1134.63 2494.37 1132.32 2491.5 1132.32 2488.63 1132.32 2486.32 1134.63 2486.32 1137.5 2486.32 1140.37 2488.63 1142.68 2491.5 1142.68 2494.37 1142.68 2496.68 1140.37 2496.68 1137.5L2498.34 1137.5Z" fill="#A55A26" fill-rule="evenodd"/><path d="M2534 1135C2534 1138.85 2531.08 1142 2527.5 1142 2523.92 1142 2521 1138.85 2521 1135 2521 1131.15 2523.92 1128 2527.5 1128 2531.08 1128 2534 1131.15 2534 1135" fill="#FFFFFF" fill-rule="evenodd"/><path d="M2534.34 1135.5 2536 1135.5C2536 1140.2 2532.2 1144 2527.5 1144 2522.8 1144 2519 1140.2 2519 1135.5 2519 1130.8 2522.8 1127 2527.5 1127 2532.2 1127 2536 1130.8 2536 1135.5L2534.34 1135.5 2532.68 1135.5C2532.68 1132.63 2530.37 1130.32 2527.5 1130.32 2524.63 1130.32 2522.32 1132.63 2522.32 1135.5 2522.32 1138.37 2524.63 1140.68 2527.5 1140.68 2530.37 1140.68 2532.68 1138.37 2532.68 1135.5L2534.34 1135.5Z" fill="#A55A26" fill-rule="evenodd"/><path d="M2570 1132C2570 1135.85 2566.85 1139 2563 1139 2559.15 1139 2556 1135.85 2556 1132 2556 1128.15 2559.15 1125 2563 1125 2566.85 1125 2570 1128.15 2570 1132" fill="#FFFFFF" fill-rule="evenodd"/><path d="M2569.34 1132.5 2571 1132.5C2571 1137.2 2567.2 1141 2562.5 1141 2557.8 1141 2554 1137.2 2554 1132.5 2554 1127.8 2557.8 1124 2562.5 1124 2567.2 1124 2571 1127.8 2571 1132.5L2569.34 1132.5 2567.68 1132.5C2567.68 1129.63 2565.37 1127.32 2562.5 1127.32 2559.63 1127.32 2557.32 1129.63 2557.32 1132.5 2557.32 1135.37 2559.63 1137.68 2562.5 1137.68 2565.37 1137.68 2567.68 1135.37 2567.68 1132.5L2569.34 1132.5Z" fill="#A55A26" fill-rule="evenodd"/><path d="M2606 1140C2606 1143.85 2602.85 1147 2599 1147 2595.15 1147 2592 1143.85 2592 1140 2592 1136.15 2595.15 1133 2599 1133 2602.85 1133 2606 1136.15 2606 1140" fill="#FFFFFF" fill-rule="evenodd"/><path d="M2605.34 1140.5 2607 1140.5C2607 1145.2 2603.2 1149 2598.5 1149 2593.8 1149 2590 1145.2 2590 1140.5 2590 1135.8 2593.8 1132 2598.5 1132 2603.2 1132 2607 1135.8 2607 1140.5L2605.34 1140.5 2603.68 1140.5C2603.68 1137.63 2601.37 1135.32 2598.5 1135.32 2595.63 1135.32 2593.32 1137.63 2593.32 1140.5 2593.32 1143.37 2595.63 1145.68 2598.5 1145.68 2601.37 1145.68 2603.68 1143.37 2603.68 1140.5L2605.34 1140.5Z" fill="#A55A26" fill-rule="evenodd"/><path d="M1797 1294 1833 1294 1833 1324 1797 1324Z" fill="#FFFFFF" fill-rule="evenodd"/><path d="M1976 1232 2013 1232 2013 1262 1976 1262Z" fill="#FFFFFF" fill-rule="evenodd"/><text font-family="Arial,Arial_MSFontService,sans-serif" font-weight="400" font-size="28" transform="matrix(1 0 0 1 1796.94 1322)">3.5</text><path d="M2140 1161 2176 1161 2176 1191 2140 1191Z" fill="#FFFFFF" fill-rule="evenodd"/><text font-family="Arial,Arial_MSFontService,sans-serif" font-weight="400" font-size="28" transform="matrix(1 0 0 1 1976.36 1260)">5.7</text><path d="M2305 1096 2356 1096 2356 1126 2305 1126Z" fill="#FFFFFF" fill-rule="evenodd"/><text font-family="Arial,Arial_MSFontService,sans-serif" font-weight="400" font-size="28" transform="matrix(1 0 0 1 2140.27 1189)">8.6</text><path d="M2396 1066 2446 1066 2446 1096 2396 1096Z" fill="#FFFFFF" fill-rule="evenodd"/><text font-family="Arial,Arial_MSFontService,sans-serif" font-weight="400" font-size="28" transform="matrix(1 0 0 1 2305.02 1124)">11.1</text><path d="M2464 1157 2514 1157 2514 1187 2464 1187Z" fill="#FFFFFF" fill-rule="evenodd"/><text font-family="Arial,Arial_MSFontService,sans-serif" font-weight="400" font-size="28" transform="matrix(1 0 0 1 2395.71 1094)">12.2</text><path d="M2536 1081 2586 1081 2586 1111 2536 1111Z" fill="#FFFFFF" fill-rule="evenodd"/><text font-family="Arial,Arial_MSFontService,sans-serif" font-weight="400" font-size="28" transform="matrix(1 0 0 1 2463.51 1184)">11.3</text><path d="M2607 1096 2657 1096 2657 1126 2607 1126Z" fill="#FFFFFF" fill-rule="evenodd"/><text font-family="Arial,Arial_MSFontService,sans-serif" font-weight="400" font-size="28" transform="matrix(1 0 0 1 2535.76 1108)">11.5<tspan font-size="28" x="70.8162" y="16">11.2</tspan><tspan font-size="28" x="-795.79" y="337">0.0</tspan><tspan font-size="28" x="-795.634" y="285">2.0</tspan><tspan font-size="28" x="-795.79" y="233">4.0</tspan><tspan font-size="28" x="-795.79" y="181">6.0</tspan><tspan font-size="28" x="-796.1" y="128">8.0</tspan><tspan font-size="28" x="-810.394" y="76">10.0</tspan><tspan font-size="28" x="-810.394" y="24">12.0</tspan><tspan font-size="28" x="-810.394" y="-28">14.0</tspan><tspan font-size="28" x="-748.934" y="367">1990</tspan><tspan font-size="28" x="-570.867" y="367">1995</tspan><tspan font-size="28" x="-392.803" y="367">2000</tspan><tspan font-size="28" x="-214.733" y="367">2005</tspan><tspan font-size="28" x="-36.6677" y="367">2010</tspan><tspan font-size="28" x="47.9739" y="369">2012</tspan><tspan font-style="italic" font-size="28" x="-817.939" y="-88">In millions</tspan></text></g></svg>