<?xml version="1.0" encoding="utf-8"?>
<!-- Generator: Adobe Illustrator 16.0.0, SVG Export Plug-In . SVG Version: 6.00 Build 0)  -->
<!DOCTYPE svg PUBLIC "-//W3C//DTD SVG 1.1 Basic//EN" "http://www.w3.org/Graphics/SVG/1.1/DTD/svg11-basic.dtd">
<svg version="1.1" baseProfile="basic" id="Layer_1"
	 xmlns="http://www.w3.org/2000/svg" xmlns:xlink="http://www.w3.org/1999/xlink" x="0px" y="0px" width="422.841px"
	 height="291.848px" viewBox="0 0 422.841 291.848" xml:space="preserve">
<rect x="48.137" y="5.248" fill="#FFFFFF" width="354.96" height="239.88"/>
<path fill="#BFBFBF" d="M48.137,4.888h354.96v0.72H48.137V4.888z M48.137,28.888h354.96v0.72H48.137V28.888z M48.137,52.888h354.96
	v0.72H48.137V52.888z M48.137,76.888h354.96v0.72H48.137V76.888z M48.137,100.888h354.96v0.72H48.137V100.888z M48.137,124.888
	h354.96v0.721H48.137V124.888z M48.137,148.888h354.96v0.721H48.137V148.888z M48.137,172.769h354.96v0.72H48.137V172.769z
	 M48.137,196.769h354.96v0.72H48.137V196.769z M48.137,220.769h354.96v0.72H48.137V220.769z"/>
<path fill="#D9D9D9" d="M402.736,5.248h0.721v239.88h-0.721V5.248z M398.656,5.248h0.721v239.88h-0.721V5.248z M394.217,5.248h0.72
	v239.88h-0.72V5.248z M389.057,5.248h0.72v239.88h-0.72V5.248z M383.057,5.248h0.72v239.88h-0.72V5.248z M376.097,5.248h0.72v239.88
	h-0.72V5.248z M367.457,5.248h0.72v239.88h-0.72V5.248z M356.417,5.248h0.72v239.88h-0.72V5.248z M340.696,5.248h0.721v239.88
	h-0.721V5.248z M314.057,5.248h0.72v239.88h-0.72V5.248z M309.977,5.248h0.72v239.88h-0.72V5.248z M305.417,5.248h0.72v239.88h-0.72
	V5.248z M300.257,5.248h0.72v239.88h-0.72V5.248z M294.377,5.248h0.72v239.88h-0.72V5.248z M287.297,5.248h0.72v239.88h-0.72V5.248z
	 M278.656,5.248h0.721v239.88h-0.721V5.248z M267.616,5.248h0.721v239.88h-0.721V5.248z M252.017,5.248h0.72v239.88h-0.72V5.248z
	 M225.257,5.248h0.72v239.88h-0.72V5.248z M221.177,5.248h0.72v239.88h-0.72V5.248z M216.616,5.248h0.721v239.88h-0.721V5.248z
	 M211.576,5.248h0.721v239.88h-0.721V5.248z M205.576,5.248h0.721v239.88h-0.721V5.248z M198.497,5.248h0.72v239.88h-0.72V5.248z
	 M189.977,5.248h0.72v239.88h-0.72V5.248z M178.816,5.248h0.72v239.88h-0.72V5.248z M163.217,5.248h0.72v239.88h-0.72V5.248z
	 M136.577,5.248h0.72v239.88h-0.72V5.248z M132.497,5.248h0.72v239.88h-0.72V5.248z M127.937,5.248h0.72v239.88h-0.72V5.248z
	 M122.777,5.248h0.72v239.88h-0.72V5.248z M116.777,5.248h0.72v239.88h-0.72V5.248z M109.816,5.248h0.72v239.88h-0.72V5.248z
	 M101.177,5.248h0.72v239.88h-0.72V5.248z M90.137,5.248h0.72v239.88h-0.72V5.248z M74.537,5.248h0.72v239.88h-0.72V5.248z"/>
<path d="M48.497,245.128l-0.36-0.359h354.96l-0.36,0.359V5.248l0.36,0.36H48.137l0.36-0.36 M47.777,5.248l0.12-0.24l0.24-0.12
	h354.96l0.24,0.12l0.12,0.24v239.88l-0.12,0.24l-0.24,0.12H48.137l-0.24-0.12l-0.12-0.24V5.248z"/>
<rect x="47.777" y="5.248" fill="#868686" width="0.72" height="239.88"/>
<path fill="#868686" d="M45.137,4.888h3v0.72h-3V4.888z M45.137,28.888h3v0.72h-3V28.888z M45.137,52.888h3v0.72h-3V52.888z
	 M45.137,76.888h3v0.72h-3V76.888z M45.137,100.888h3v0.72h-3V100.888z M45.137,124.888h3v0.721h-3V124.888z M45.137,148.888h3
	v0.721h-3V148.888z M45.137,172.769h3v0.72h-3V172.769z M45.137,196.769h3v0.72h-3V196.769z M45.137,220.769h3v0.72h-3V220.769z
	 M45.137,244.769h3v0.72h-3V244.769z"/>
<rect x="48.137" y="244.769" fill="#868686" width="354.96" height="0.72"/>
<path fill="#868686" d="M402.736,245.128h0.721v3h-0.721V245.128z M314.057,245.128h0.72v3h-0.72V245.128z M225.257,245.128h0.72v3
	h-0.72V245.128z M136.577,245.128h0.72v3h-0.72V245.128z M47.777,245.128h0.72v3h-0.72V245.128z"/>
<polyline fill="#FF0000" points="264.856,166.168 268.816,170.128 264.856,174.088 260.896,170.128 "/>
<path fill="#A8423F" d="M261.137,170.368v-0.48l3.96,3.96h-0.48l3.96-3.96v0.48l-3.96-3.96h0.48 M264.616,165.928
	c0.12-0.12,0.36-0.12,0.48,0l3.96,3.96c0.24,0.12,0.24,0.36,0,0.48l-3.96,3.96c-0.12,0.12-0.36,0.12-0.48,0l-3.96-3.96
	c-0.119-0.12-0.119-0.36,0-0.48L264.616,165.928z"/>
<polyline fill="#FF0000" points="243.977,136.288 247.937,140.248 243.977,144.208 240.017,140.248 "/>
<path d="M240.257,140.488v-0.48l3.96,3.96h-0.48l3.96-3.96v0.48l-3.96-3.96h0.48 M243.736,136.048c0.12-0.12,0.36-0.12,0.48,0
	l3.96,3.96c0.24,0.12,0.24,0.36,0,0.48l-3.96,3.96c-0.12,0.12-0.36,0.12-0.48,0l-3.96-3.96c-0.12-0.12-0.12-0.36,0-0.48
	L243.736,136.048z"/>
<polyline fill="#7030A0" points="289.337,196.168 293.297,200.128 289.337,204.088 285.377,200.128 "/>
<path d="M285.616,200.368v-0.48l3.96,3.96h-0.479l3.96-3.96v0.48l-3.96-3.96h0.479 M289.097,195.928c0.12-0.12,0.36-0.12,0.479,0
	l3.961,3.96c0.239,0.12,0.239,0.36,0,0.48l-3.961,3.96c-0.119,0.12-0.359,0.12-0.479,0l-3.96-3.96c-0.12-0.12-0.12-0.36,0-0.48
	L289.097,195.928z"/>
<polyline fill="#0000FF" points="341.057,226.168 345.017,230.128 341.057,234.088 337.097,230.128 "/>
<path d="M337.337,230.368v-0.48l3.96,3.96h-0.48l3.96-3.96v0.48l-3.96-3.96h0.48 M340.816,225.928c0.12-0.12,0.36-0.12,0.48,0
	l3.96,3.96c0.24,0.12,0.24,0.36,0,0.48l-3.96,3.96c-0.12,0.12-0.36,0.12-0.48,0l-3.96-3.96c-0.12-0.12-0.12-0.36,0-0.48
	L340.816,225.928z"/>
<polyline fill="#0000FF" points="234.497,106.288 238.457,110.248 234.497,114.208 230.537,110.248 "/>
<path d="M230.776,110.488v-0.48l3.96,3.96h-0.479l3.96-3.96v0.48l-3.96-3.96h0.479 M234.257,106.048c0.12-0.12,0.359-0.12,0.479,0
	l3.96,3.96c0.24,0.12,0.24,0.36,0,0.48l-3.96,3.96c-0.12,0.12-0.359,0.12-0.479,0l-3.96-3.96c-0.12-0.12-0.12-0.36,0-0.48
	L234.257,106.048z"/>
<polyline fill="#0000FF" points="200.537,76.288 204.497,80.248 200.537,84.208 196.577,80.248 "/>
<path d="M196.816,80.488v-0.48l3.96,3.96h-0.479l3.96-3.96v0.48l-3.96-3.96h0.479 M200.297,76.048c0.12-0.12,0.359-0.12,0.479,0
	l3.96,3.96c0.24,0.12,0.24,0.36,0,0.48l-3.96,3.96c-0.12,0.12-0.359,0.12-0.479,0l-3.96-3.96c-0.12-0.12-0.12-0.36,0-0.48
	L200.297,76.048z"/>
<polyline fill="#FF3399" points="55.097,25.288 59.057,29.248 55.097,33.208 51.137,29.248 "/>
<path d="M51.376,29.488v-0.48l3.96,3.96h-0.48l3.96-3.96v0.48l-3.96-3.96h0.48 M54.856,25.048c0.12-0.12,0.36-0.12,0.48,0l3.96,3.96
	c0.24,0.12,0.24,0.36,0,0.48l-3.96,3.96c-0.12,0.12-0.36,0.12-0.48,0l-3.96-3.96c-0.12-0.12-0.12-0.36,0-0.48L54.856,25.048z"/>
<polyline fill="#0000FF" points="145.336,16.288 149.297,20.248 145.336,24.208 141.376,20.248 "/>
<path d="M141.617,20.488v-0.48l3.96,3.96h-0.48l3.96-3.96v0.48l-3.96-3.96h0.48 M145.097,16.048c0.12-0.12,0.36-0.12,0.48,0
	l3.96,3.96c0.24,0.12,0.24,0.36,0,0.48l-3.96,3.96c-0.12,0.12-0.36,0.12-0.48,0l-3.96-3.96c-0.12-0.12-0.12-0.36,0-0.48
	L145.097,16.048z"/>
<polyline fill="#FF0000" points="195.737,46.288 199.697,50.248 195.737,54.208 191.776,50.248 "/>
<path d="M192.017,50.488v-0.48l3.96,3.96h-0.48l3.96-3.96v0.48l-3.96-3.96h0.48 M195.497,46.048c0.12-0.12,0.36-0.12,0.48,0
	l3.96,3.96c0.24,0.12,0.24,0.36,0,0.48l-3.96,3.96c-0.12,0.12-0.36,0.12-0.48,0l-3.96-3.96c-0.12-0.12-0.12-0.36,0-0.48
	L195.497,46.048z"/>
<path fill="#4A452A" d="M145.457,7.528l11.04,13.2c32.575,39.33,65.332,78.55,97.92,117.84l0.72,0.84c0.24,0.36,0.12,0.72-0.12,1.08
	c-0.36,0.24-0.72,0.12-1.08-0.12l-0.72-0.84l-0.72-0.96l-0.841-0.96c-2.167-2.802-4.685-5.46-6.84-8.28l-0.96-1.08
	c-4.395-5.581-9.251-10.966-13.68-16.56l-1.44-1.681c-21.642-25.986-43.3-51.983-64.92-78l-8.52-10.32l-11.04-13.2
	c-0.24-0.36-0.12-0.84,0.12-1.08C144.737,7.168,145.097,7.288,145.457,7.528"/>
<path fill="#4A452A" d="M255.017,139.408l0.84,0.84h0.12l0.72,0.96l0.721,0.84l0.6,0.84h-0.12l0.72,0.721
	c2.71,3.089,5.393,6.428,8.04,9.6l0.48,0.6c0,0,0.12,0,0.12,0.12l0.479,0.721c2.103,2.172,3.956,4.74,6,6.96l0.36,0.72l-0.12-0.12
	l1.08,1.08l0.36,0.48h-0.12l1.08,1.079l0.359,0.48h-0.12l0.48,0.479h0.12l0.359,0.48l0.48,0.6l0.72,0.96h-0.12l0.48,0.48h0.12
	l0.72,0.96l-0.12-0.12l0.48,0.36c0,0.12,0,0.12,0.12,0.12l0.359,0.479c0.24,0.36,0.12,0.84-0.12,1.08
	c-0.359,0.24-0.84,0.12-1.08-0.12l-0.359-0.479l0.12,0.12l-0.48-0.36c0-0.12,0-0.12-0.12-0.12l-0.72-0.96h0.12l-0.48-0.48h-0.12
	l-0.72-0.96l-0.479-0.6l-0.36-0.479h0.12l-0.48-0.48h-0.119l-0.36-0.48l-0.36-0.6l-0.479-0.479h-0.12l-0.36-0.48l-0.359-0.6
	l-0.48-0.48c-0.12,0-0.12-0.12-0.12-0.12l-0.359-0.479c-1.965-2.401-4.063-4.767-6-7.2l-0.48-0.72l0.12,0.12l-0.72-0.601
	c-2.568-3.205-5.394-6.293-7.801-9.6l-0.72-0.721c-0.12,0-0.12,0-0.12-0.119l-0.6-0.721l-0.72-0.84l-0.721-0.96h0.12l-0.84-0.84
	c-0.36-0.24-0.36-0.72,0-0.96C254.297,139.048,254.776,139.048,255.017,139.408"/>
<path fill="#4A452A" d="M280.816,170.128l1.08,1.44h-0.12l0.36,0.359h0.12l0.359,0.48h-0.119l0.359,0.36h0.12l0.72,0.96h-0.12
	l0.36,0.359h0.12l0.36,0.48h-0.12l0.359,0.359h0.12l0.36,0.48h-0.12l0.36,0.36c0,0,0.12,0,0.12,0.119l0.239,0.36l0.36,0.36h-0.12
	l0.72,0.72c0.12,0,0.12,0.12,0.12,0.12l0.24,0.479l-0.12-0.12l0.72,0.721c0,0,0.12,0,0.12,0.12l0.24,0.359l-0.12-0.12l0.72,0.721
	c0,0,0.12,0,0.12,0.12l0.24,0.359l0.36,0.36l0.239,0.479l-0.119-0.12l0.359,0.36c0,0,0.12,0,0.12,0.12l0.24,0.36l-0.12-0.12
	l0.36,0.359c0,0,0.12,0,0.12,0.12l0.239,0.36l-0.12-0.12l0.96,0.96c0,0,0.12,0,0.12,0.12l0.48,0.72l-0.12-0.12l0.36,0.36
	c0,0,0.119,0,0.119,0.12l0.24,0.36l-0.12-0.12l0.601,0.6c0,0,0.12,0,0.12,0.12l0.479,0.72l-0.12-0.12l0.601,0.601
	c0,0,0.12,0,0.12,0.12l0.239,0.359l-0.12-0.12l0.24,0.24c0,0,0.12,0,0.12,0.12l0.48,0.72l-0.24-0.239l0.359,0.239
	c0.12,0,0.24,0.12,0.24,0.24l0.24,0.36c0.24,0.239,0.12,0.72-0.24,0.96c-0.24,0.239-0.72,0.12-0.96-0.24l-0.24-0.36l0.24,0.24
	l-0.359-0.24c-0.12,0-0.24-0.12-0.24-0.239l-0.48-0.721l0.12,0.12l-0.24-0.24c-0.119,0-0.119,0-0.119-0.119l-0.24-0.36l0.12,0.12
	l-0.601-0.601c-0.12,0-0.12,0-0.12-0.12l-0.479-0.72l0.12,0.12l-0.601-0.6c-0.12,0-0.12,0-0.12-0.12l-0.239-0.36l0.12,0.12
	l-0.36-0.36c-0.12,0-0.12,0-0.12-0.119l-0.479-0.721l0.119,0.12l-0.96-0.96c-0.12,0-0.12,0-0.12-0.12l-0.239-0.359l0.12,0.119
	l-0.36-0.359c-0.12,0-0.12,0-0.12-0.12l-0.24-0.36l0.12,0.12l-0.359-0.359c-0.12,0-0.12,0-0.12-0.12l-0.24-0.24l-0.36-0.601
	l-0.239-0.359l0.119,0.12l-0.72-0.721c-0.12,0-0.12,0-0.12-0.119l-0.24-0.36l0.12,0.12l-0.72-0.72c-0.12,0-0.12-0.12-0.12-0.12
	l-0.24-0.48l0.12,0.12l-0.72-0.72h-0.12l-0.359-0.601l-0.24-0.359l0.12,0.12l-0.36-0.36h-0.12l-0.36-0.48h0.12l-0.359-0.359h-0.12
	l-0.36-0.48h0.12l-0.36-0.359h-0.119l-0.721-0.96h0.12l-0.359-0.36h-0.12l-0.36-0.48h0.12l-0.36-0.359h-0.12l-1.08-1.44
	c-0.239-0.359-0.119-0.84,0.12-1.08C280.097,169.769,280.576,169.888,280.816,170.128"/>
<path fill="#4A452A" d="M295.937,188.488l0.24,0.24c0,0,0.12,0,0.12,0.119l0.24,0.36l-0.12-0.12l0.239,0.24c0,0,0.12,0,0.12,0.12
	l0.48,0.72l-0.12-0.12l0.479,0.48c0,0,0.12,0,0.12,0.12l0.24,0.359l-0.12-0.12l0.24,0.24c0,0,0.12,0,0.12,0.12l0.24,0.36l-0.12-0.12
	l0.239,0.24c0,0,0.12,0,0.12,0.119l0.24,0.36l-0.12-0.12l0.48,0.48c0,0,0.12,0,0.12,0.12l0.239,0.359l-0.119-0.12l0.479,0.48
	c0,0,0.12,0,0.12,0.12l0.24,0.359l-0.12-0.119l0.72,0.72c0,0,0.12,0,0.12,0.12l0.24,0.359l-0.12-0.12l0.24,0.24
	c0.119,0,0.119,0.12,0.119,0.12l0.12,0.24l-0.12-0.12l0.24,0.24c0,0,0.12,0,0.12,0.12l0.24,0.359l-0.12-0.12l0.48,0.48
	c0.119,0,0.119,0.12,0.119,0.12l0.12,0.24l-0.12-0.12l0.721,0.72c0,0,0.12,0,0.12,0.12l0.239,0.359l0.12,0.24l-0.12-0.12
	l0.721,0.721c0.119,0,0.119,0.119,0.119,0.119l0.12,0.24l-0.12-0.12l0.48,0.48c0.12,0,0.12,0.12,0.12,0.12l0.12,0.24l-0.12-0.12
	l0.479,0.479c0.12,0,0.12,0.12,0.12,0.12l0.12,0.24l-0.12-0.12l0.48,0.479c0.12,0,0.12,0.12,0.12,0.12l0.12,0.24l-0.12-0.12
	l0.479,0.48c0.36,0.239,0.36,0.72,0,0.96c-0.24,0.359-0.72,0.359-0.96,0l-0.479-0.48c-0.12,0-0.12-0.12-0.12-0.12l-0.12-0.239
	l0.12,0.119l-0.48-0.479c-0.12,0-0.12-0.12-0.12-0.12l-0.12-0.24l0.12,0.12l-0.479-0.479c-0.12,0-0.12-0.12-0.12-0.12l-0.12-0.24
	l0.12,0.12l-0.48-0.48c-0.119,0-0.119-0.119-0.119-0.119l-0.12-0.24l0.12,0.12l-0.721-0.721c-0.12,0-0.12-0.12-0.12-0.12
	l-0.119-0.239l-0.24-0.36l0.12,0.12l-0.721-0.72c-0.12,0-0.12-0.12-0.12-0.12l-0.119-0.24l0.119,0.12l-0.479-0.48
	c-0.12,0-0.12,0-0.12-0.119l-0.24-0.36l0.12,0.12l-0.24-0.24c-0.119,0-0.119-0.12-0.119-0.12l-0.12-0.24l0.12,0.12l-0.24-0.24
	c-0.12,0-0.12,0-0.12-0.119l-0.24-0.36l0.12,0.12l-0.72-0.72c-0.12,0-0.12,0-0.12-0.12l-0.24-0.36l0.12,0.12l-0.48-0.48
	c-0.119,0-0.119,0-0.119-0.119l-0.24-0.36l0.12,0.12l-0.48-0.48c-0.12,0-0.12,0-0.12-0.12l-0.239-0.359l0.119,0.12l-0.239-0.24
	c-0.12,0-0.12,0-0.12-0.12l-0.24-0.36l0.12,0.12l-0.24-0.24c-0.12,0-0.12,0-0.12-0.119l-0.239-0.36l0.119,0.12l-0.479-0.48
	c-0.12,0-0.12,0-0.12-0.12l-0.48-0.72l0.12,0.12l-0.239-0.24c-0.12,0-0.12,0-0.12-0.12l-0.24-0.359l0.12,0.12l-0.24-0.24
	c-0.36-0.24-0.36-0.72,0-0.96C295.217,188.128,295.696,188.128,295.937,188.488"/>
<path fill="#4A452A" d="M306.977,201.688l0.12,0.239l-0.12-0.12l0.24,0.24c0.12,0,0.12,0.12,0.12,0.12l0.12,0.24l-0.12-0.12
	l0.239,0.24c0.12,0,0.12,0.12,0.12,0.12l0.12,0.239l-0.24-0.239l0.24,0.12c0,0,0.12,0,0.12,0.119l0.24,0.24
	c0.12,0,0.12,0.12,0.12,0.12l0.12,0.24l-0.12-0.12l0.24,0.24c0.119,0,0.119,0.12,0.119,0.12l0.12,0.239l-0.12-0.12l0.24,0.24
	c0.12,0,0.12,0.12,0.12,0.12l0.12,0.24l-0.24-0.24l0.24,0.12c0.12,0,0.24,0.12,0.24,0.24l0.12,0.239l-0.12-0.119l0.239,0.239
	c0.12,0,0.12,0.12,0.12,0.12l0.12,0.24l-0.12-0.12l0.601,0.601c0.12,0,0.12,0.119,0.12,0.119l0.119,0.24l-0.119-0.12l0.6,0.601
	c0.12,0,0.12,0.12,0.12,0.12l0.12,0.239l-0.12-0.12l0.36,0.36c0.119,0,0.119,0.12,0.119,0.12l0.12,0.24l-0.12-0.12l0.601,0.6
	c0.12,0,0.12,0.12,0.12,0.12l0.12,0.24l-0.12-0.12l0.359,0.36c0.12,0,0.12,0.12,0.12,0.12l0.12,0.239l-0.24-0.239l0.24,0.119
	c0.12,0,0.24,0.12,0.24,0.24l0.24,0.48l-0.24-0.24l0.24,0.12c0.119,0,0.239,0.12,0.239,0.24l0.24,0.479l-0.24-0.24l0.24,0.12
	c0.12,0,0.24,0.12,0.24,0.24l0.12,0.24l-0.12-0.12l0.36,0.359c0.119,0,0.119,0.12,0.119,0.12l0.12,0.24l-0.12-0.12l0.48,0.48
	c0.12,0,0.12,0.12,0.12,0.12l0.12,0.239c0.239,0.36,0.12,0.841-0.24,0.96c-0.36,0.24-0.84,0.12-0.96-0.239l-0.12-0.24l0.12,0.12
	l-0.48-0.48c-0.12,0-0.12-0.12-0.12-0.12l-0.119-0.239l0.119,0.12l-0.359-0.36c-0.12,0-0.12-0.12-0.12-0.12l-0.12-0.24l0.24,0.24
	l-0.24-0.12c-0.12,0-0.24-0.12-0.24-0.24l-0.239-0.479l0.239,0.24l-0.239-0.12c-0.12,0-0.24-0.12-0.24-0.24l-0.24-0.48l0.24,0.24
	l-0.24-0.12c-0.12,0-0.24-0.12-0.24-0.239l-0.12-0.24l0.12,0.12l-0.359-0.36c-0.12,0-0.12-0.12-0.12-0.12l-0.12-0.24l0.12,0.12
	l-0.601-0.6c-0.12,0-0.12-0.12-0.12-0.12l-0.119-0.24l0.119,0.12l-0.359-0.36c-0.12,0-0.12-0.119-0.12-0.119l-0.12-0.24l0.12,0.12
	l-0.6-0.601c-0.12,0-0.12-0.12-0.12-0.12l-0.12-0.239l0.12,0.12l-0.601-0.601c-0.12,0-0.12-0.12-0.12-0.12l-0.119-0.239l0.119,0.119
	l-0.239-0.239c-0.12,0-0.12-0.12-0.12-0.12l-0.12-0.24l0.24,0.24l-0.24-0.12c-0.12,0-0.24-0.12-0.24-0.24l-0.12-0.24l0.12,0.12
	l-0.24-0.24c-0.12,0-0.12-0.119-0.12-0.119l-0.119-0.24l0.119,0.12l-0.239-0.24c-0.12,0-0.12-0.12-0.12-0.12l-0.12-0.24l0.12,0.12
	l-0.24-0.24l0.12,0.12l-0.24-0.12c-0.12,0-0.24-0.119-0.24-0.239l-0.119-0.24l0.119,0.12l-0.239-0.24c-0.12,0-0.12-0.12-0.12-0.12
	l-0.12-0.24l0.12,0.12l-0.24-0.239c-0.12,0-0.12-0.12-0.12-0.12l-0.12-0.24c-0.239-0.36-0.12-0.84,0.24-0.96
	C306.377,201.208,306.856,201.328,306.977,201.688"/>
<path fill="#4A452A" d="M315.137,211.648l0.24,0.12c0.12,0,0.239,0.119,0.239,0.239l0.12,0.24l0.12,0.24l-0.12-0.12l0.48,0.479
	c0.12,0,0.12,0.12,0.12,0.12l0.12,0.24l-0.12-0.12l0.479,0.48c0.12,0,0.12,0.12,0.12,0.12l0.12,0.239l-0.12-0.12l0.48,0.48
	c0.12,0,0.12,0.12,0.12,0.12l0.119,0.24l-0.119-0.12l0.119,0.12l-0.119-0.12l0.239,0.12c0.12,0,0.24,0.12,0.24,0.239l0.12,0.24
	l-0.12-0.12l0.12,0.12c0.12,0,0.12,0.12,0.12,0.12l0.12,0.24l-0.12-0.12l0.479,0.479c0.12,0,0.12,0.12,0.12,0.12l0.12,0.24
	l-0.12-0.12l0.24,0.24c0.12,0,0.12,0.12,0.12,0.12l0.12,0.24l-0.24-0.24l0.24,0.12c0.12,0,0.239,0.12,0.239,0.239l0.12,0.24
	l-0.12-0.12l0.24,0.24c0.12,0,0.12,0.12,0.12,0.12l0.12,0.24l-0.12-0.12l0.601,0.6c0.119,0,0.119,0.12,0.119,0.12l0.12,0.24
	l-0.12-0.12l0.24,0.24c0.12,0,0.12,0.12,0.12,0.12l0.12,0.239l-0.12-0.119l0.12,0.119l0.6,0.601c0.12,0,0.12,0.12,0.12,0.12
	l0.12,0.239l-0.12-0.119l0.36,0.359c0.359,0.24,0.359,0.721,0,0.96c-0.24,0.36-0.72,0.36-0.96,0l-0.36-0.359
	c-0.12,0-0.12-0.12-0.12-0.12l-0.12-0.24l0.12,0.12l-0.72-0.72c-0.12,0-0.12-0.12-0.12-0.12l-0.12-0.24l0.12,0.12l-0.24-0.24
	c-0.12,0-0.12-0.12-0.12-0.12l-0.119-0.24l0.119,0.12l-0.6-0.6c-0.12,0-0.12-0.12-0.12-0.12l-0.12-0.24l0.12,0.12l-0.24-0.24
	c-0.119,0-0.119-0.119-0.119-0.119l-0.12-0.24l0.239,0.24l-0.239-0.12c-0.12,0-0.24-0.12-0.24-0.24l-0.12-0.24l0.12,0.12l-0.24-0.24
	c-0.12,0-0.12-0.12-0.12-0.12l-0.12-0.239l0.12,0.119l-0.479-0.479c-0.12,0-0.12-0.12-0.12-0.12l-0.12-0.24l0.12,0.12l-0.12-0.12
	c-0.12,0-0.12-0.12-0.12-0.12l-0.12-0.239l0.24,0.239l-0.24-0.119c0,0-0.12,0-0.12-0.12l-0.12-0.12c-0.119,0-0.119-0.12-0.119-0.12
	l-0.12-0.24l0.12,0.12l-0.48-0.479c-0.12,0-0.12-0.12-0.12-0.12l-0.12-0.24l0.12,0.12l-0.479-0.48c-0.12,0-0.12-0.12-0.12-0.12
	l-0.12-0.239l0.12,0.119l-0.48-0.479c-0.12,0-0.12-0.12-0.12-0.12l-0.239-0.479l0.239,0.239l-0.239-0.12
	c-0.36-0.119-0.48-0.6-0.24-0.96C314.297,211.528,314.776,211.408,315.137,211.648"/>
<path fill="#4A452A" d="M322.337,220.168l0.12,0.24l-0.12-0.12l0.239,0.24c0.12,0,0.12,0.12,0.12,0.12l0.12,0.239l-0.12-0.119
	l0.12,0.119l-0.12-0.119l0.24,0.119c0,0,0.12,0,0.12,0.12l0.12,0.12c0.12,0,0.12,0.12,0.12,0.12l0.12,0.24l-0.12-0.12l0.24,0.24
	c0.119,0,0.119,0.12,0.119,0.12l0.12,0.239l-0.12-0.12l0.48,0.48c0.12,0,0.12,0.12,0.12,0.12l0.12,0.24l-0.12-0.12l0.359,0.359
	c0.12,0,0.12,0.12,0.12,0.12l0.12,0.24l-0.12-0.12l0.48,0.48c0.12,0,0.12,0.12,0.12,0.12l0.12,0.239l-0.12-0.12l0.479,0.48
	c0.12,0,0.12,0.12,0.12,0.12l0.12,0.24l-0.12-0.12l0.601,0.6c0.119,0,0.119,0.12,0.119,0.12l0.12,0.24l-0.12-0.12l0.601,0.6
	c0.12,0,0.12,0.12,0.12,0.12l0.12,0.24l-0.12-0.12l0.239,0.24c0.12,0.12,0.24,0.24,0.24,0.479v0.12l-0.24-0.479l0.48,0.479
	c0.36,0.24,0.36,0.72,0,0.96c-0.24,0.36-0.72,0.36-0.96,0l-0.12-0.12l-0.36-0.359c-0.119-0.12-0.239-0.24-0.239-0.48v-0.12
	l0.239,0.48l-0.239-0.24c-0.12,0-0.12-0.12-0.12-0.12l-0.12-0.24l0.12,0.12l-0.601-0.6c-0.12,0-0.12-0.12-0.12-0.12l-0.119-0.24
	l0.119,0.12l-0.6-0.6c-0.12,0-0.12-0.12-0.12-0.12l-0.12-0.24l0.12,0.12l-0.479-0.48c-0.12,0-0.12-0.119-0.12-0.119l-0.12-0.24
	l0.12,0.12l-0.48-0.48c-0.12,0-0.12-0.12-0.12-0.12l-0.119-0.239l0.119,0.119l-0.359-0.359c-0.12,0-0.12-0.12-0.12-0.12l-0.12-0.24
	l0.12,0.12l-0.48-0.48c-0.12,0-0.12-0.119-0.12-0.119l-0.119-0.24l0.119,0.12l-0.239-0.24c-0.12,0-0.12-0.12-0.12-0.12l-0.12-0.24
	l0.12,0.12l-0.12-0.12l0.12,0.12l-0.24-0.12c0,0-0.12,0-0.12-0.12l-0.12-0.119c-0.12,0-0.12-0.12-0.12-0.12l-0.119-0.24l0.119,0.12
	l-0.239-0.24c-0.12,0-0.12-0.12-0.12-0.12l-0.12-0.24c-0.24-0.359-0.12-0.84,0.24-0.96
	C321.736,219.688,322.217,219.808,322.337,220.168"/>
<path fill="#4A452A" d="M328.217,227.248l0.12,0.24l-0.12-0.12l0.12,0.12c0.2,0.2,0.399,0.399,0.6,0.6l0.12,0.12
	c0.12,0.12,0.24,0.24,0.24,0.48v0.119l-0.24-0.479l0.24,0.24c0.12,0,0.12,0.12,0.12,0.12l0.12,0.239l-0.12-0.12l0.6,0.601
	c0.12,0.12,0.24,0.24,0.24,0.479v0.12l-0.24-0.479l0.12,0.12c0.2,0.199,0.4,0.399,0.6,0.6l0.12,0.12c0.12,0.12,0.24,0.24,0.24,0.479
	v0.12l-0.24-0.479l0.48,0.479c0.12,0,0.12,0.12,0.12,0.12l0.119,0.24l-0.119-0.12l0.119,0.12c0.12,0.12,0.24,0.24,0.24,0.479v0.12
	l-0.24-0.479l0.601,0.6c0.12,0.12,0.24,0.24,0.24,0.48v0.12l-0.24-0.48l0.6,0.601c0.12,0.119,0.24,0.239,0.24,0.479v0.12l-0.24-0.48
	l0.48,0.48c0.359,0.24,0.359,0.72,0,0.96c-0.24,0.36-0.72,0.36-0.96,0l-0.48-0.48c-0.12-0.119-0.24-0.239-0.24-0.479v-0.12
	l0.24,0.48l-0.6-0.601c-0.12-0.12-0.24-0.24-0.24-0.479v-0.12l0.24,0.479l-0.601-0.6c-0.119-0.12-0.239-0.24-0.239-0.48v-0.12
	l0.239,0.48l-0.119-0.12c-0.12,0-0.12-0.12-0.12-0.12l-0.12-0.24l0.12,0.12l-0.12-0.12l-0.36-0.359c-0.12-0.12-0.24-0.24-0.24-0.48
	v-0.12l0.24,0.48l-0.12-0.12c-0.2-0.2-0.399-0.4-0.6-0.6l-0.12-0.12c-0.12-0.12-0.24-0.24-0.24-0.48v-0.12l0.24,0.48l-0.6-0.6
	c-0.12,0-0.12-0.12-0.12-0.12l-0.12-0.24l0.12,0.12l-0.24-0.24c-0.12-0.12-0.24-0.24-0.24-0.48v-0.119l0.24,0.479l-0.12-0.12
	c-0.2-0.2-0.4-0.399-0.6-0.6l-0.12-0.12c-0.12,0-0.12-0.12-0.12-0.12l-0.12-0.24c-0.24-0.359-0.12-0.84,0.24-0.96
	C327.616,226.769,328.097,226.888,328.217,227.248"/>
<path fill="#4A452A" d="M332.776,233.128h0.12c0.36,0,0.72,0.36,0.72,0.72v0.12l-0.239-0.479l0.479,0.479
	c0.12,0.12,0.24,0.24,0.24,0.48v0.12l-0.24-0.48l0.48,0.48c0.12,0.12,0.239,0.239,0.239,0.479v0.12l-0.239-0.479l0.359,0.359
	c0.12,0.12,0.24,0.24,0.24,0.48v0.12l-0.24-0.48l0.48,0.48c0.12,0.12,0.24,0.239,0.24,0.479v0.12l-0.721-0.72h0.12
	c0.24,0,0.36,0.12,0.48,0.24l0.24,0.239c0.119,0.12,0.239,0.24,0.239,0.48v0.12l-0.239-0.48l0.359,0.36
	c0.12,0.12,0.24,0.24,0.24,0.479v0.12l-0.24-0.479l0.72,0.72c0.12,0.12,0.24,0.24,0.24,0.479v0.12l-0.24-0.479l0.36,0.359
	c0.12,0.12,0.24,0.24,0.24,0.48v0.12l-0.24-0.48l0.12,0.12l-0.48-0.24h0.12c0.24,0,0.36,0.12,0.48,0.24l0.12,0.12
	c0.12,0.12,0.239,0.24,0.239,0.48v0.12l-0.239-0.48l0.359,0.36c0.12,0.12,0.24,0.239,0.24,0.479v0.12l-0.24-0.479l0.12,0.119
	c0.36,0.24,0.36,0.721,0,0.96c-0.24,0.36-0.72,0.36-0.96,0l-0.12-0.119c-0.12-0.12-0.239-0.24-0.239-0.48v-0.12l0.239,0.48
	l-0.359-0.36c-0.12-0.12-0.24-0.24-0.24-0.479v-0.12l0.24,0.479l-0.12-0.12l0.479,0.24h-0.12c-0.239,0-0.359-0.12-0.479-0.24
	l-0.12-0.12c-0.12-0.119-0.24-0.239-0.24-0.479v-0.12l0.24,0.48l-0.36-0.36c-0.119-0.12-0.239-0.24-0.239-0.48v-0.12l0.239,0.48
	l-0.72-0.72c-0.12-0.12-0.24-0.24-0.24-0.48v-0.12l0.24,0.48l-0.36-0.36c-0.119-0.12-0.239-0.24-0.239-0.479v-0.12l0.239,0.479
	l-0.239-0.239l0.479,0.239h-0.12c-0.359,0-0.72-0.359-0.72-0.72v-0.12l0.24,0.48l-0.48-0.48c-0.12-0.12-0.239-0.24-0.239-0.479
	v-0.12l0.239,0.479l-0.359-0.359c-0.12-0.12-0.24-0.24-0.24-0.48v-0.12l0.24,0.48l-0.48-0.48c-0.12-0.12-0.24-0.24-0.24-0.479v-0.12
	l0.24,0.479l-0.479-0.479c-0.12-0.12-0.24-0.24-0.24-0.48v-0.12l0.72,0.721h-0.12c-0.359,0-0.72-0.36-0.72-0.721
	C332.057,233.488,332.417,233.128,332.776,233.128"/>
<path fill="#4A452A" d="M337.337,238.648h0.12c0.359,0,0.72,0.359,0.72,0.72v0.12l-0.24-0.48l0.36,0.36
	c0.12,0.12,0.24,0.24,0.24,0.479v0.12l-0.24-0.479l0.12,0.12l-0.48-0.24h0.12c0.36,0,0.72,0.36,0.72,0.72v0.12l-0.239-0.479
	l0.359,0.359c0.12,0.12,0.24,0.24,0.24,0.48v0.12l-0.72-0.721h0.12c0.239,0,0.359,0.12,0.479,0.24l0.12,0.12
	c0.12,0.12,0.24,0.24,0.24,0.479v0.12l-0.24-0.479l0.24,0.24c0.12,0.119,0.239,0.239,0.239,0.479v0.12l-0.72-0.72h0.12
	c0.24,0,0.36,0.12,0.48,0.239l0.119,0.12c0.12,0.12,0.24,0.24,0.24,0.48v0.12l-0.24-0.48l0.601,0.601
	c0.12,0.12,0.24,0.239,0.24,0.479v0.12l-0.24-0.479l0.24,0.239c0.359,0.24,0.359,0.721,0,0.96c-0.24,0.36-0.721,0.36-0.96,0
	l-0.24-0.239c-0.12-0.12-0.24-0.24-0.24-0.48v-0.12l0.24,0.48l-0.12-0.12l-0.48-0.48c-0.119-0.12-0.239-0.239-0.239-0.479v-0.12
	l0.239,0.479l-0.119-0.119l0.479,0.239h-0.12c-0.359,0-0.72-0.359-0.72-0.72v-0.12l0.24,0.48l-0.24-0.24
	c-0.12-0.12-0.24-0.24-0.24-0.48v-0.12l0.24,0.48l-0.12-0.12l0.48,0.24h-0.12c-0.36,0-0.721-0.36-0.721-0.72v-0.12l0.24,0.479
	l-0.36-0.359c-0.119-0.12-0.239-0.24-0.239-0.48v-0.12l0.72,0.72h-0.12c-0.24,0-0.36-0.119-0.479-0.239l-0.12-0.12
	c-0.12-0.12-0.24-0.24-0.24-0.48v-0.12l0.24,0.48l-0.36-0.36c-0.12-0.12-0.24-0.239-0.24-0.479v-0.12l0.721,0.72h-0.12
	c-0.36,0-0.721-0.359-0.721-0.72S336.977,238.648,337.337,238.648"/>
<path fill="#006600" d="M145.937,13.048l11.28,13.32c32.756,38.922,65.541,77.874,98.28,116.76l0.72,0.84
	c0.24,0.36,0.12,0.721-0.12,1.08c-0.36,0.24-0.72,0.12-1.08-0.12l-0.72-0.84l-0.721-0.96l-0.84-0.96l-0.72-0.84l-0.84-0.96
	l-0.84-1.08l-0.84-0.96l-0.721-1.08l-1.08-0.96l-0.84-1.08l-0.96-1.2l-0.96-1.08l-0.96-1.199c-3.213-4.115-6.933-7.813-10.08-12
	l-1.2-1.561l-1.56-1.56l-1.32-1.681c-21.759-25.751-43.505-51.557-65.16-77.399l-19.92-23.52c-0.24-0.36-0.12-0.72,0.12-1.08
	C145.217,12.688,145.577,12.808,145.937,13.048"/>
<path fill="#006600" d="M256.217,143.968l0.72,0.84l0.72,0.961l0.721,0.84l0.6,0.72l0.84,0.84l0.601,0.84h-0.12l0.72,0.721h0.12
	l0.6,0.84h-0.12l0.721,0.72c2.015,2.108,3.992,4.698,5.88,6.96l0.479,0.6c0,0,0.12,0,0.12,0.12l0.48,0.721l-0.12-0.12l0.6,0.6
	c1.912,2.196,4.012,4.534,5.761,6.84l0.479,0.48c0.12,0,0.12,0,0.12,0.12l0.36,0.6l-0.12-0.12l0.96,0.96c0.12,0,0.12,0,0.12,0.12
	l0.359,0.601l-0.12-0.12l0.48,0.479h0.12l0.359,0.48h-0.119l0.479,0.479h0.12l0.72,0.96h-0.12l0.48,0.48h0.12l1.08,1.439l-0.12-0.12
	l0.479,0.36c0.24,0.24,0.36,0.72,0.12,1.08c-0.24,0.24-0.72,0.36-1.08,0.12l-0.479-0.36c0-0.12,0-0.12-0.12-0.12l-1.08-1.439h0.12
	l-0.48-0.48h-0.12l-0.72-0.96h0.12l-0.48-0.479h-0.119l-0.36-0.48h0.12l-0.48-0.479c-0.12,0-0.12-0.12-0.12-0.12l-0.359-0.601
	l0.12,0.12l-0.96-0.96c-0.12,0-0.12-0.12-0.12-0.12l-0.36-0.6l0.12,0.12l-0.48-0.48l-0.6-0.479l-0.479-0.601l-0.36-0.479
	l-0.48-0.601l-0.359-0.6l-0.601-0.479l-0.479-0.601l-0.36-0.6l-0.72-0.601l-0.96-1.199l-0.36-0.601l-0.6-0.6
	c-0.12,0-0.12,0-0.12-0.12l-0.48-0.72l0.12,0.119l-0.72-0.6c-1.786-2.309-3.972-4.623-5.64-6.96l-0.721-0.72
	c-0.119,0-0.119,0-0.119-0.12l-0.601-0.84l0.12,0.12l-0.72-0.721c-0.12,0-0.12,0-0.12-0.12l-0.601-0.72l-0.6-0.84l-0.84-0.72
	l-0.72-0.84l-0.721-0.96l-0.72-0.841c-0.24-0.359-0.12-0.72,0.12-1.08C255.497,143.608,255.856,143.729,256.217,143.968"/>
<path fill="#006600" d="M281.896,174.328l1.08,1.44h-0.12l0.36,0.359h0.12l0.359,0.48h-0.12l0.36,0.359h0.12l0.36,0.48h-0.12
	l0.359,0.359h0.12l0.36,0.48h-0.12l0.36,0.36h0.12l0.359,0.479h-0.12l0.36,0.36h0.12l0.359,0.479l0.24,0.48l-0.12-0.12l0.721,0.72
	h0.12l0.359,0.48l0.24,0.479l-0.12-0.12l0.72,0.721c0,0,0.12,0,0.12,0.12l0.24,0.359l0.36,0.36h-0.12l0.359,0.359
	c0,0,0.12,0,0.12,0.12l0.24,0.36l-0.12-0.12l0.36,0.36c0,0,0.12,0,0.12,0.12l0.239,0.359l-0.119-0.12l0.359,0.36
	c0,0,0.12,0,0.12,0.12l0.24,0.36l-0.12-0.12l0.36,0.359c0,0,0.119,0,0.119,0.12l0.24,0.36l-0.12-0.12l0.601,0.6
	c0,0,0.12,0,0.12,0.12l0.239,0.36l-0.12-0.12l0.36,0.36c0,0,0.12,0,0.12,0.12l0.24,0.359l-0.12-0.12l0.6,0.601c0,0,0.12,0,0.12,0.12
	l0.24,0.359l-0.12-0.12l0.36,0.36c0,0,0.12,0,0.12,0.12l0.239,0.359l-0.12-0.119l0.24,0.239c0,0,0.12,0,0.12,0.12l0.24,0.36
	l-0.12-0.12l0.6,0.6c0,0,0.12,0,0.12,0.12l0.48,0.721l-0.12-0.12l0.84,0.84c0.36,0.24,0.36,0.72,0,0.96c-0.24,0.36-0.72,0.36-0.96,0
	l-0.84-0.84c-0.12,0-0.12,0-0.12-0.12l-0.48-0.72l0.12,0.119l-0.6-0.6c-0.12,0-0.12,0-0.12-0.12l-0.24-0.359l0.12,0.119l-0.24-0.239
	c-0.119,0-0.119,0-0.119-0.12l-0.24-0.36l0.12,0.12l-0.36-0.36c-0.12,0-0.12,0-0.12-0.12l-0.24-0.359l0.12,0.12l-0.6-0.601
	c-0.12,0-0.12,0-0.12-0.12l-0.24-0.359l0.12,0.12l-0.36-0.36c-0.119,0-0.119,0-0.119-0.12l-0.24-0.359l0.12,0.119l-0.601-0.6
	c-0.12,0-0.12,0-0.12-0.12l-0.239-0.36l0.12,0.12l-0.36-0.359c-0.12,0-0.12,0-0.12-0.12l-0.24-0.36l0.12,0.12l-0.36-0.36
	c-0.119,0-0.119,0-0.119-0.119l-0.24-0.36l0.12,0.12l-0.36-0.36c-0.12,0-0.12,0-0.12-0.12l-0.24-0.359l0.12,0.12l-0.359-0.36h-0.12
	l-0.36-0.601l-0.24-0.359l0.12,0.12l-0.72-0.721c-0.12,0-0.12,0-0.12-0.119l-0.24-0.24l-0.359-0.48h0.12l-0.721-0.72
	c-0.12,0-0.12,0-0.12-0.12l-0.239-0.24l-0.36-0.479h0.12l-0.36-0.36h-0.12l-0.359-0.479h0.12l-0.36-0.36h-0.12l-0.36-0.479h0.12
	l-0.359-0.36h-0.12l-0.36-0.48h0.12l-0.36-0.359h-0.119l-0.36-0.48h0.12l-0.36-0.359h-0.12l-1.08-1.44
	c-0.239-0.36-0.12-0.84,0.12-1.08C281.177,173.968,281.656,174.088,281.896,174.328"/>
<path fill="#006600" d="M297.137,192.568l0.24,0.359l-0.12-0.12l0.24,0.24c0,0,0.119,0,0.119,0.12l0.24,0.36l-0.12-0.12l0.24,0.24
	c0,0,0.12,0,0.12,0.12l0.24,0.359l-0.12-0.12l0.24,0.24c0,0,0.119,0,0.119,0.12l0.24,0.36l-0.12-0.12l0.48,0.479
	c0,0,0.12,0,0.12,0.12l0.24,0.36l-0.12-0.12l0.239,0.24c0,0,0.12,0,0.12,0.119l0.24,0.36l-0.12-0.12l0.48,0.48c0,0,0.12,0,0.12,0.12
	l0.239,0.359l-0.12-0.12l0.721,0.721c0,0,0.12,0,0.12,0.12l0.239,0.359l-0.12-0.12l0.721,0.721c0,0,0.12,0,0.12,0.119l0.239,0.36
	l0.12,0.24l-0.12-0.12l0.721,0.72c0,0,0.12,0,0.12,0.12l0.239,0.36l0.12,0.24l-0.12-0.12l0.96,0.96c0.12,0,0.12,0.12,0.12,0.12
	l0.12,0.239l-0.12-0.12l0.721,0.721c0.119,0,0.119,0.12,0.119,0.12l0.12,0.239l-0.12-0.119l0.48,0.479c0.12,0,0.12,0.12,0.12,0.12
	l0.12,0.24l-0.12-0.12l0.479,0.479c0.12,0,0.12,0.12,0.12,0.12l0.12,0.24l-0.12-0.12l0.48,0.48c0.12,0,0.12,0.119,0.12,0.119
	l0.119,0.24l-0.119-0.12l0.479,0.48c0.36,0.24,0.36,0.72,0,0.96c-0.24,0.36-0.72,0.36-0.96,0l-0.479-0.48
	c-0.12,0-0.12-0.119-0.12-0.119l-0.12-0.24l0.12,0.12l-0.48-0.48c-0.12,0-0.12-0.12-0.12-0.12l-0.12-0.24l0.12,0.12l-0.479-0.479
	c-0.12,0-0.12-0.12-0.12-0.12l-0.12-0.24l0.12,0.12l-0.48-0.479c-0.12,0-0.12-0.12-0.12-0.12l-0.119-0.24l0.119,0.12l-0.72-0.72
	c-0.12,0-0.12-0.12-0.12-0.12l-0.12-0.24l0.12,0.12l-0.96-0.96c-0.12,0-0.12-0.12-0.12-0.12l-0.119-0.24l-0.24-0.36l0.12,0.12
	l-0.721-0.72c-0.12,0-0.12-0.12-0.12-0.12l-0.119-0.24l-0.24-0.359l0.12,0.12l-0.721-0.721c-0.119,0-0.119,0-0.119-0.12l-0.24-0.359
	l0.12,0.12l-0.721-0.721c-0.119,0-0.119,0-0.119-0.119l-0.24-0.36l0.12,0.12l-0.48-0.48c-0.12,0-0.12,0-0.12-0.12l-0.24-0.359
	l0.12,0.12l-0.239-0.24c-0.12,0-0.12,0-0.12-0.12l-0.24-0.36l0.12,0.12l-0.48-0.479c-0.12,0-0.12,0-0.12-0.12l-0.239-0.36l0.12,0.12
	l-0.24-0.24c-0.12,0-0.12,0-0.12-0.12l-0.24-0.359l0.12,0.12l-0.24-0.24c-0.12,0-0.12,0-0.12-0.12l-0.239-0.36l0.12,0.12
	l-0.24-0.239c-0.12,0-0.12,0-0.12-0.12l-0.24-0.36c-0.24-0.24-0.12-0.72,0.24-0.96C296.417,192.088,296.896,192.208,297.137,192.568
	"/>
<path fill="#006600" d="M308.057,205.528l0.12,0.24l-0.12-0.12l0.24,0.239c0.12,0,0.12,0.12,0.12,0.12l0.12,0.24l-0.12-0.12
	l0.239,0.24c0.12,0,0.12,0.12,0.12,0.12l0.12,0.24l-0.24-0.24l0.24,0.12c0,0,0.12,0,0.12,0.12l0.24,0.239
	c0.12,0,0.12,0.12,0.12,0.12l0.12,0.24l-0.12-0.12l0.239,0.24c0.12,0,0.12,0.12,0.12,0.12l0.12,0.239l-0.12-0.119l0.601,0.6
	c0.12,0,0.12,0.12,0.12,0.12l0.119,0.24l-0.119-0.12l0.239,0.24c0.12,0,0.12,0.119,0.12,0.119l0.12,0.24l-0.24-0.24l0.24,0.12
	c0.12,0,0.24,0.12,0.24,0.24l0.12,0.24l-0.12-0.12l0.24,0.24c0.12,0,0.12,0.12,0.12,0.12l0.119,0.239l-0.239-0.239l0.239,0.119
	c0.12,0,0.24,0.12,0.24,0.24l0.12,0.24l-0.12-0.12l0.601,0.6c0.119,0,0.119,0.12,0.119,0.12l0.12,0.24l0.12,0.24l-0.24-0.24
	l0.24,0.12c0.12,0,0.24,0.12,0.24,0.24l0.12,0.24l-0.12-0.12l0.36,0.359c0.119,0,0.119,0.12,0.119,0.12l0.12,0.24l-0.12-0.12
	l0.721,0.72c0.12,0,0.12,0.12,0.12,0.12l0.12,0.24l-0.12-0.12l0.359,0.36c0.12,0,0.12,0.12,0.12,0.12l0.12,0.239l-0.12-0.12
	l0.36,0.36c0.12,0,0.12,0.12,0.12,0.12l0.12,0.24l-0.24-0.24l0.24,0.12c0.119,0,0.239,0.12,0.239,0.24l0.12,0.239l-0.12-0.119
	l0.48,0.479c0.12,0,0.12,0.12,0.12,0.12l0.12,0.24c0.239,0.359,0.119,0.84-0.24,0.96c-0.36,0.239-0.84,0.12-0.96-0.24l-0.12-0.24
	l0.12,0.12l-0.48-0.479c-0.12,0-0.12-0.12-0.12-0.12l-0.119-0.24l0.239,0.24l-0.239-0.12c-0.12,0-0.24-0.12-0.24-0.24l-0.12-0.24
	l0.12,0.12l-0.36-0.359c-0.12,0-0.12-0.12-0.12-0.12l-0.12-0.24l0.12,0.12l-0.359-0.36c-0.12,0-0.12-0.12-0.12-0.12l-0.12-0.24
	l0.12,0.12l-0.721-0.72c-0.119,0-0.119-0.12-0.119-0.12l-0.12-0.24l0.12,0.12l-0.36-0.359c-0.12,0-0.12-0.12-0.12-0.12l-0.12-0.24
	l0.24,0.24l-0.24-0.12c-0.12,0-0.24-0.12-0.24-0.24l-0.239-0.479l0.12,0.12l-0.601-0.601c-0.12,0-0.12-0.12-0.12-0.12l-0.12-0.24
	l0.24,0.24l-0.24-0.12c-0.12,0-0.239-0.12-0.239-0.239l-0.12-0.24l0.12,0.12l-0.24-0.24c-0.12,0-0.12-0.12-0.12-0.12l-0.12-0.24
	l0.24,0.24l-0.24-0.12c-0.12,0-0.24-0.12-0.24-0.24l-0.12-0.239l0.12,0.12l-0.239-0.24c-0.12,0-0.12-0.12-0.12-0.12l-0.12-0.24
	l0.12,0.12l-0.601-0.6c-0.12,0-0.12-0.12-0.12-0.12l-0.119-0.24l0.119,0.12l-0.239-0.24c-0.12,0-0.12-0.12-0.12-0.12l-0.12-0.24
	l0.12,0.12l-0.24-0.239l0.12,0.119l-0.24-0.119c-0.12,0-0.24-0.12-0.24-0.24l-0.12-0.24l0.12,0.12l-0.239-0.24
	c-0.12,0-0.12-0.12-0.12-0.12l-0.12-0.239l0.12,0.119l-0.24-0.239c-0.12,0-0.12-0.12-0.12-0.12l-0.12-0.24
	c-0.24-0.36-0.12-0.84,0.24-0.96C307.457,205.048,307.937,205.168,308.057,205.528"/>
<path fill="#006600" d="M316.337,215.488l0.359,0.359c0.12,0,0.12,0.12,0.12,0.12l0.12,0.24l-0.12-0.12l0.48,0.48
	c0.12,0,0.12,0.12,0.12,0.12l0.12,0.239l-0.12-0.12l0.479,0.48c0.12,0,0.12,0.12,0.12,0.12l0.12,0.24l-0.12-0.12l0.12,0.12
	l-0.12-0.12l0.24,0.12c0.12,0,0.24,0.12,0.24,0.239l0.119,0.24l-0.119-0.12l0.119,0.12c0.12,0,0.12,0.12,0.12,0.12l0.12,0.24
	l-0.24-0.24l0.24,0.12c0.12,0,0.24,0.12,0.24,0.24l0.12,0.239l-0.12-0.119l0.12,0.119c0.12,0,0.12,0.12,0.12,0.12l0.12,0.24
	l-0.12-0.12l0.12,0.12l-0.12-0.12l0.239,0.12c0.12,0,0.24,0.12,0.24,0.24l0.12,0.24l-0.12-0.12l0.12,0.12
	c0.12,0,0.12,0.119,0.12,0.119l0.12,0.24l-0.12-0.12l0.6,0.601c0.12,0,0.12,0.12,0.12,0.12l0.12,0.239l-0.12-0.119l0.24,0.239
	c0.12,0,0.12,0.12,0.12,0.12l0.12,0.24l-0.12-0.12l0.12,0.12l-0.12-0.12l0.24,0.12c0.12,0,0.239,0.12,0.239,0.24l0.12,0.239
	l-0.12-0.119l0.12,0.119l0.12,0.12c0.12,0,0.12,0.12,0.12,0.12l0.12,0.24l-0.12-0.12l0.24,0.24c0.12,0,0.12,0.12,0.12,0.12
	l0.12,0.239l-0.24-0.239l0.24,0.12c0,0,0.119,0,0.119,0.119l0.12,0.12c0.12,0,0.12,0.12,0.12,0.12l0.12,0.24l-0.12-0.12l0.36,0.36
	c0.12,0,0.12,0.12,0.12,0.12l0.12,0.239c0.239,0.36,0.12,0.841-0.24,0.96c-0.36,0.24-0.84,0.12-0.96-0.239l-0.12-0.24l0.12,0.12
	l-0.36-0.36c-0.12,0-0.12-0.12-0.12-0.12l-0.12-0.239l0.12,0.119l-0.12-0.119l0.12,0.119l-0.239-0.119c-0.12,0-0.24-0.12-0.24-0.24
	l-0.12-0.24l0.12,0.12l-0.12-0.12l-0.12-0.12c-0.12,0-0.12-0.12-0.12-0.12l-0.12-0.24l0.12,0.12l-0.24-0.239
	c-0.119,0-0.119-0.12-0.119-0.12l-0.12-0.24l0.239,0.24l-0.239-0.12c0,0-0.12,0-0.12-0.12l-0.12-0.12c-0.12,0-0.12-0.12-0.12-0.12
	l-0.12-0.24l0.12,0.12l-0.24-0.239c-0.12,0-0.12-0.12-0.12-0.12l-0.12-0.24l0.12,0.12l-0.6-0.601c-0.12,0-0.12-0.119-0.12-0.119
	l-0.12-0.24l0.12,0.12l-0.12-0.12c-0.12,0-0.12-0.12-0.12-0.12l-0.12-0.24l0.24,0.24l-0.24-0.12c0,0-0.119,0-0.119-0.12l-0.12-0.12
	c-0.12,0-0.12-0.12-0.12-0.12l-0.12-0.239l0.12,0.119l-0.12-0.119c-0.12,0-0.12-0.12-0.12-0.12l-0.12-0.24l0.24,0.24l-0.24-0.12
	c-0.12,0-0.24-0.12-0.24-0.24l-0.119-0.24l0.119,0.12l-0.119-0.12c-0.12,0-0.12-0.12-0.12-0.12l-0.12-0.239l0.24,0.239l-0.24-0.119
	c0,0-0.12,0-0.12-0.12l-0.12-0.12c-0.12,0-0.12-0.12-0.12-0.12l-0.12-0.24l0.12,0.12l-0.479-0.479c-0.12,0-0.12-0.12-0.12-0.12
	l-0.12-0.24l0.12,0.12l-0.48-0.48c-0.12,0-0.12-0.12-0.12-0.12l-0.12-0.239l0.12,0.119l-0.359-0.359c-0.36-0.24-0.36-0.72,0-0.96
	C315.616,215.128,316.097,215.128,316.337,215.488"/>
<path fill="#006600" d="M323.297,223.769l0.24,0.239c0.119,0,0.119,0.12,0.119,0.12l0.12,0.24l-0.12-0.12l0.24,0.24l-0.12-0.12
	l0.24,0.12c0.12,0,0.24,0.12,0.24,0.24l0.12,0.239l-0.12-0.12l0.359,0.36c0.12,0,0.12,0.12,0.12,0.12l0.12,0.24l-0.12-0.12
	l0.36,0.359c0.12,0,0.12,0.12,0.12,0.12l0.12,0.24l-0.12-0.12l0.479,0.48c0.12,0,0.12,0.12,0.12,0.12l0.12,0.239l-0.12-0.119
	l0.48,0.479c0.12,0,0.12,0.12,0.12,0.12l0.12,0.24l-0.12-0.12l0.6,0.6c0.12,0,0.12,0.12,0.12,0.12l0.12,0.24l-0.12-0.12l0.6,0.6
	c0.12,0,0.12,0.12,0.12,0.12l0.12,0.24l-0.12-0.12l0.12,0.12c0.2,0.2,0.4,0.4,0.6,0.6l0.12,0.12c0.12,0.12,0.24,0.24,0.24,0.48v0.24
	l-0.24-0.48l0.48,0.48c0.36,0.239,0.36,0.72,0,0.96c-0.24,0.359-0.72,0.359-0.96,0l-0.48-0.48c-0.12-0.12-0.239-0.24-0.239-0.479
	v-0.24l0.239,0.479l-0.12-0.12c-0.199-0.199-0.399-0.399-0.6-0.6l-0.12-0.12c-0.12,0-0.12-0.12-0.12-0.12l-0.12-0.239l0.12,0.119
	l-0.6-0.6c-0.12,0-0.12-0.12-0.12-0.12l-0.12-0.24l0.12,0.12l-0.6-0.6c-0.12,0-0.12-0.12-0.12-0.12l-0.12-0.24l0.12,0.12
	l-0.48-0.479c-0.12,0-0.12-0.12-0.12-0.12l-0.12-0.24l0.12,0.12l-0.12-0.12l-0.359-0.36c-0.12,0-0.12-0.12-0.12-0.12l-0.12-0.239
	l0.12,0.12l-0.36-0.36c-0.12,0-0.12-0.12-0.12-0.12l-0.119-0.24l0.119,0.12l-0.359-0.36c-0.12,0-0.12-0.119-0.12-0.119l-0.12-0.24
	l0.24,0.24l-0.24-0.12c0,0-0.12,0-0.12-0.12l-0.24-0.24c-0.12,0-0.12-0.12-0.12-0.12l-0.119-0.24l0.119,0.12l-0.239-0.239
	c-0.36-0.24-0.36-0.721,0-0.96C322.576,223.408,323.057,223.408,323.297,223.769"/>
<path fill="#006600" d="M329.177,230.729l0.6,0.6c0.12,0,0.12,0.12,0.12,0.12l0.12,0.24l-0.12-0.12l0.24,0.239
	c0.12,0.12,0.24,0.24,0.24,0.48v0.12l-0.24-0.48l0.12,0.12c0.24,0.24,0.479,0.48,0.72,0.721l0.12,0.119
	c0.12,0.12,0.24,0.24,0.24,0.48v0.12l-0.24-0.48l0.36,0.36c0.119,0,0.119,0.12,0.119,0.12l0.12,0.24l-0.12-0.12l0.36,0.359
	c0.12,0.12,0.24,0.24,0.24,0.48v0.12l-0.24-0.48l0.72,0.72c0.12,0.12,0.24,0.24,0.24,0.48v0.12l-0.24-0.48l0.601,0.601
	c0.12,0.12,0.24,0.24,0.24,0.479v0.12l-0.24-0.479l0.6,0.6c0.12,0.12,0.24,0.24,0.24,0.48v0.119l-0.24-0.479l0.48,0.479
	c0.359,0.24,0.359,0.721,0,0.96c-0.24,0.36-0.721,0.36-0.96,0l-0.48-0.479c-0.12-0.12-0.24-0.24-0.24-0.48v-0.119l0.24,0.479
	l-0.6-0.6c-0.12-0.12-0.24-0.24-0.24-0.48v-0.12l0.24,0.48l-0.12-0.12l-0.48-0.48c-0.12-0.119-0.239-0.239-0.239-0.479v-0.12
	l0.239,0.48l-0.72-0.721c-0.12-0.12-0.24-0.24-0.24-0.479v-0.12l0.24,0.479l-0.36-0.359c-0.119,0-0.119-0.12-0.119-0.12l-0.12-0.24
	l0.12,0.12l-0.36-0.36c-0.12-0.12-0.24-0.239-0.24-0.479v-0.12l0.24,0.479l-0.12-0.119c-0.24-0.24-0.479-0.48-0.72-0.721l-0.12-0.12
	c-0.12-0.119-0.24-0.239-0.24-0.479v-0.12l0.24,0.48l-0.24-0.24c-0.12,0-0.12-0.12-0.12-0.12l-0.12-0.24l0.12,0.12l-0.6-0.6
	c-0.36-0.24-0.36-0.721,0-0.96C328.457,230.368,328.937,230.368,329.177,230.729"/>
<path fill="#006600" d="M333.856,236.608h0.12c0.36,0,0.72,0.359,0.72,0.72v0.12l-0.239-0.48l0.479,0.48
	c0.12,0.12,0.24,0.24,0.24,0.479v0.12l-0.24-0.479l0.48,0.479c0.12,0.12,0.239,0.24,0.239,0.48v0.12l-0.239-0.48l0.359,0.36
	c0.12,0.12,0.24,0.24,0.24,0.479v0.12l-0.24-0.479l0.24,0.239l-0.479-0.239h0.119c0.24,0,0.36,0.12,0.48,0.239l0.12,0.12
	c0.12,0.12,0.24,0.24,0.24,0.48v0.12l-0.24-0.48l0.359,0.36c0.12,0.12,0.24,0.24,0.24,0.479v0.12l-0.24-0.479l0.36,0.359
	c0.12,0.12,0.24,0.24,0.24,0.48v0.12l-0.72-0.721h0.119c0.24,0,0.36,0.12,0.48,0.24l0.36,0.36c0.119,0.12,0.239,0.24,0.239,0.479
	v0.12l-0.239-0.479l0.239,0.239c0.12,0.12,0.24,0.24,0.24,0.48v0.12l-0.24-0.48l0.12,0.12l-0.479-0.24h0.12
	c0.239,0,0.359,0.12,0.479,0.24l0.12,0.12c0.12,0.12,0.24,0.24,0.24,0.48v0.12l-0.24-0.48l0.36,0.36
	c0.12,0.12,0.239,0.239,0.239,0.479v0.12l-0.239-0.479l0.12,0.119l-0.48-0.239h0.12c0.24,0,0.36,0.12,0.479,0.239l0.12,0.12
	c0.12,0.12,0.24,0.24,0.24,0.48v0.12c0,0.359-0.36,0.72-0.72,0.72c-0.36,0-0.721-0.36-0.721-0.72v-0.12l0.24,0.479l-0.12-0.12
	l0.48,0.24h-0.12c-0.24,0-0.36-0.12-0.48-0.24l-0.119-0.119c-0.12-0.12-0.24-0.24-0.24-0.48v-0.12l0.24,0.48l-0.36-0.36
	c-0.12-0.12-0.24-0.24-0.24-0.479v-0.12l0.24,0.479l-0.12-0.12l0.48,0.24h-0.12c-0.24,0-0.36-0.12-0.48-0.24l-0.12-0.12
	c-0.12-0.119-0.239-0.239-0.239-0.479v-0.12l0.239,0.48l-0.239-0.24c-0.12-0.12-0.24-0.24-0.24-0.48v-0.12l0.24,0.48l-0.36-0.36
	l0.479,0.24h-0.119c-0.36,0-0.721-0.36-0.721-0.72v-0.12l0.24,0.479l-0.36-0.359c-0.119-0.12-0.239-0.24-0.239-0.48v-0.12
	l0.239,0.48l-0.359-0.36c-0.12-0.12-0.24-0.24-0.24-0.479v-0.12l0.24,0.479l-0.12-0.12l0.479,0.24h-0.119
	c-0.24,0-0.36-0.12-0.48-0.24l-0.24-0.239c-0.12-0.12-0.24-0.24-0.24-0.48v-0.12l0.24,0.48l-0.359-0.36
	c-0.12-0.12-0.24-0.24-0.24-0.479v-0.12l0.24,0.479l-0.48-0.479c-0.12-0.12-0.24-0.24-0.24-0.48v-0.12l0.24,0.48l-0.479-0.48
	c-0.12-0.12-0.24-0.239-0.24-0.479v-0.12l0.72,0.72h-0.12c-0.359,0-0.72-0.359-0.72-0.72S333.497,236.608,333.856,236.608"/>
<g>
	<defs>
		<rect id="SVGID_1_" x="48.017" y="5.128" width="355.08" height="240"/>
	</defs>
	<clipPath id="SVGID_2_">
		<use xlink:href="#SVGID_1_"  overflow="visible"/>
	</clipPath>
	<g clip-path="url(#SVGID_2_)">
		<defs>
			<rect id="SVGID_3_" x="-105.943" y="-292.772" width="612" height="792"/>
		</defs>
		<clipPath id="SVGID_4_">
			<use xlink:href="#SVGID_3_"  overflow="visible"/>
		</clipPath>
		<path clip-path="url(#SVGID_4_)" fill="#006600" d="M338.776,242.128l0.24,0.24c0.12,0.12,0.24,0.24,0.24,0.479v0.12l-0.24-0.479
			l0.12,0.12l-0.48-0.24h0.12c0.24,0,0.36,0.12,0.48,0.24l0.12,0.12c0.12,0.119,0.239,0.239,0.239,0.479v0.12l-0.239-0.48
			l0.239,0.24c0.12,0.12,0.24,0.24,0.24,0.48v0.12l-0.72-0.721h0.12c0.24,0,0.359,0.12,0.479,0.24l0.24,0.24
			c0.12,0.12,0.24,0.24,0.24,0.479v0.12l-0.24-0.479l0.48,0.479c0.119,0.12,0.239,0.24,0.239,0.48v0.12l-0.239-0.48l0.239,0.24
			l-0.479-0.24h0.12c0.359,0,0.72,0.36,0.72,0.72v0.12l-0.24-0.479l0.24,0.24c0.12,0.119,0.24,0.239,0.24,0.479v0.12l-0.721-0.72
			h0.12c0.24,0,0.36,0.12,0.48,0.239l0.12,0.12c0.12,0.12,0.24,0.24,0.24,0.48v0.12l-0.24-0.48l0.24,0.24
			c0.359,0.24,0.359,0.72,0,0.96c-0.24,0.36-0.721,0.36-0.961,0l-0.239-0.24c-0.12-0.12-0.24-0.24-0.24-0.479v-0.12l0.24,0.479
			l-0.12-0.12l0.479,0.24h-0.12c-0.359,0-0.72-0.359-0.72-0.72v-0.12l0.24,0.48l-0.24-0.24c-0.12-0.12-0.24-0.24-0.24-0.48v-0.12
			l0.721,0.721h-0.12c-0.24,0-0.36-0.12-0.48-0.24l-0.239-0.24c-0.12-0.12-0.24-0.24-0.24-0.479v-0.12l0.24,0.479l-0.48-0.479
			c-0.12-0.12-0.24-0.24-0.24-0.48v-0.12l0.24,0.48l-0.24-0.24l0.48,0.24h-0.12c-0.36,0-0.72-0.36-0.72-0.72v-0.12l0.239,0.479
			l-0.239-0.24c-0.12-0.119-0.24-0.239-0.24-0.479v-0.12l0.24,0.48l-0.12-0.12l0.479,0.239h-0.12c-0.239,0-0.359-0.119-0.479-0.239
			l-0.12-0.12c-0.12-0.12-0.24-0.24-0.24-0.48v-0.12l0.24,0.48l-0.24-0.24c-0.359-0.24-0.359-0.72,0-0.96
			C338.057,241.769,338.537,241.769,338.776,242.128"/>
	</g>
</g>
<rect x="218.537" y="163.048" fill="#FFFFFF" width="39.359" height="14.4"/>
<rect x="202.816" y="43.048" fill="#FFFFFF" width="39.36" height="14.52"/>
<text transform="matrix(1 0 0 1 221.2969 173.8477)"><tspan x="0" y="0" font-family="'TimesNewRomanPSMT'" font-size="9.96">1</tspan><tspan x="5.04" y="0" font-family="'TimesNewRomanPSMT'" font-size="9.96">7</tspan></text>
<text transform="matrix(1 0 0 1 231.377 173.8477)"><tspan x="0" y="0" font-family="'TimesNewRomanPSMT'" font-size="9.96">2</tspan><tspan x="5.04" y="0" font-family="'TimesNewRomanPSMT'" font-size="9.96">9</tspan></text>
<text transform="matrix(1 0 0 1 241.457 173.8477)"><tspan x="0" y="0" font-family="'TimesNewRomanPSMT'" font-size="9.96">-3</tspan><tspan x="8.416" y="0" font-family="'TimesNewRomanPSMT'" font-size="9.96">3</tspan></text>
<rect x="197.777" y="133.048" fill="#FFFFFF" width="39.36" height="14.4"/>
<text transform="matrix(1 0 0 1 205.5762 53.8481)" font-family="'TimesNewRomanPSMT'" font-size="9.96">1</text>
<text transform="matrix(1 0 0 1 210.6162 53.8481)"><tspan x="0" y="0" font-family="'TimesNewRomanPSMT'" font-size="9.96">7</tspan><tspan x="5.04" y="0" font-family="'TimesNewRomanPSMT'" font-size="9.96">8</tspan></text>
<text transform="matrix(1 0 0 1 220.6963 53.8481)"><tspan x="0" y="0" font-family="'TimesNewRomanPSMT'" font-size="9.96">1-8</tspan><tspan x="13.456" y="0" font-family="'TimesNewRomanPSMT'" font-size="9.96">2</tspan></text>
<rect x="243.017" y="192.928" fill="#FFFFFF" width="39.36" height="14.521"/>
<text transform="matrix(1 0 0 1 200.5371 143.8477)"><tspan x="0" y="0" font-family="'TimesNewRomanPSMT'" font-size="9.96">1</tspan><tspan x="5.04" y="0" font-family="'TimesNewRomanPSMT'" font-size="9.96">8</tspan></text>
<text transform="matrix(1 0 0 1 210.6162 143.8477)"><tspan x="0" y="0" font-family="'TimesNewRomanPSMT'" font-size="9.96">3</tspan><tspan x="5.04" y="0" font-family="'TimesNewRomanPSMT'" font-size="9.96">2</tspan></text>
<text transform="matrix(1 0 0 1 220.6963 143.8477)"><tspan x="0" y="0" font-family="'TimesNewRomanPSMT'" font-size="9.96">-3</tspan><tspan x="8.416" y="0" font-family="'TimesNewRomanPSMT'" font-size="9.96">3</tspan></text>
<rect x="348.017" y="222.928" fill="#FFFFFF" width="26.04" height="14.521"/>
<text transform="matrix(1 0 0 1 245.7764 203.7285)"><tspan x="0" y="0" font-family="'TimesNewRomanPSMT'" font-size="9.96">1</tspan><tspan x="5.04" y="0" font-family="'TimesNewRomanPSMT'" font-size="9.96">8</tspan></text>
<text transform="matrix(1 0 0 1 255.8564 203.7285)"><tspan x="0" y="0" font-family="'TimesNewRomanPSMT'" font-size="9.96">8</tspan><tspan x="5.04" y="0" font-family="'TimesNewRomanPSMT'" font-size="9.96">9</tspan></text>
<text transform="matrix(1 0 0 1 265.9365 203.7285)"><tspan x="0" y="0" font-family="'TimesNewRomanPSMT'" font-size="9.96">-9</tspan><tspan x="8.416" y="0" font-family="'TimesNewRomanPSMT'" font-size="9.96">0</tspan></text>
<rect x="241.576" y="103.048" fill="#FFFFFF" width="26.04" height="14.521"/>
<text transform="matrix(1 0 0 1 350.8965 233.7285)"><tspan x="0" y="0" font-family="'TimesNewRomanPSMT'" font-size="9.96">1</tspan><tspan x="5.04" y="0" font-family="'TimesNewRomanPSMT'" font-size="9.96">9</tspan></text>
<text transform="matrix(1 0 0 1 360.9766 233.7285)"><tspan x="0" y="0" font-family="'TimesNewRomanPSMT'" font-size="9.96">1</tspan><tspan x="5.04" y="0" font-family="'TimesNewRomanPSMT'" font-size="9.96">8</tspan></text>
<rect x="213.257" y="71.848" fill="#FFFFFF" width="25.92" height="14.52"/>
<text transform="matrix(1 0 0 1 244.457 113.8477)" font-family="'TimesNewRomanPSMT'" font-size="9.96">1</text>
<text transform="matrix(1 0 0 1 249.4971 113.8477)"><tspan x="0" y="0" font-family="'TimesNewRomanPSMT'" font-size="9.96">9</tspan><tspan x="5.04" y="0" font-family="'TimesNewRomanPSMT'" font-size="9.96">5</tspan></text>
<text transform="matrix(1 0 0 1 259.5762 113.8477)" font-family="'TimesNewRomanPSMT'" font-size="9.96">7</text>
<rect x="62.177" y="22.048" fill="#FFFFFF" width="30.96" height="14.52"/>
<text transform="matrix(1 0 0 1 216.0166 82.6479)"><tspan x="0" y="0" font-family="'TimesNewRomanPSMT'" font-size="9.96">1</tspan><tspan x="5.04" y="0" font-family="'TimesNewRomanPSMT'" font-size="9.96">9</tspan></text>
<text transform="matrix(1 0 0 1 226.0967 82.6479)"><tspan x="0" y="0" font-family="'TimesNewRomanPSMT'" font-size="9.96">6</tspan><tspan x="5.04" y="0" font-family="'TimesNewRomanPSMT'" font-size="9.96">8</tspan></text>
<rect x="112.457" y="13.048" fill="#FFFFFF" width="26.04" height="14.521"/>
<text transform="matrix(1 0 0 1 65.0566 32.8481)"><tspan x="0" y="0" font-family="'TimesNewRomanPSMT'" font-size="9.96">1</tspan><tspan x="5.04" y="0" font-family="'TimesNewRomanPSMT'" font-size="9.96">9</tspan></text>
<text transform="matrix(1 0 0 1 75.1367 32.8481)"><tspan x="0" y="0" font-family="'TimesNewRomanPSMT'" font-size="9.96">7</tspan><tspan x="5.04" y="0" font-family="'TimesNewRomanPSMT'" font-size="9.96">7</tspan></text>
<text transform="matrix(1 0 0 1 85.2168 32.8481)" font-family="'TimesNewRomanPSMT'" font-size="9.96">*</text>
<rect x="63.137" y="143.368" fill="#FFFFFF" width="99.6" height="23.76"/>
<path fill="#4A452A" d="M63.617,167.128l-0.48-0.6h99.6l-0.48,0.6v-23.76l0.48,0.479h-99.6l0.48-0.479 M62.657,143.368
	c0-0.24,0.24-0.48,0.48-0.48h99.6c0.36,0,0.48,0.24,0.48,0.48v23.76c0,0.24-0.12,0.48-0.48,0.48h-99.6c-0.24,0-0.48-0.24-0.48-0.48
	V143.368z"/>
<text transform="matrix(1 0 0 1 115.3364 23.8481)"><tspan x="0" y="0" font-family="'TimesNewRomanPSMT'" font-size="9.96">2</tspan><tspan x="5.04" y="0" font-family="'TimesNewRomanPSMT'" font-size="9.96">0</tspan></text>
<text transform="matrix(1 0 0 1 125.4165 23.8481)"><tspan x="0" y="0" font-family="'TimesNewRomanPSMT'" font-size="9.96">0</tspan><tspan x="5.04" y="0" font-family="'TimesNewRomanPSMT'" font-size="9.96">9</tspan></text>
<text transform="matrix(1 0 0 1 70.3364 153.208)"><tspan x="0" y="0" font-family="'TimesNewRomanPSMT'" font-size="9">y</tspan><tspan x="4.545" y="0" font-family="'TimesNewRomanPSMT'" font-size="9"> </tspan></text>
<text transform="matrix(1 0 0 1 77.1768 153.208)" font-family="'TimesNewRomanPSMT'" font-size="9">=</text>
<text transform="matrix(1 0 0 1 82.3037 153.208)" font-family="'TimesNewRomanPSMT'" font-size="9"> </text>
<text transform="matrix(1 0 0 1 84.6045 153.208)"><tspan x="0" y="0" font-family="'TimesNewRomanPSMT'" font-size="9">-0.193ln(x) </tspan><tspan x="43.532" y="0" font-family="'TimesNewRomanPSMT'" font-size="9">+</tspan></text>
<text transform="matrix(1 0 0 1 130.2158 153.208)" font-family="'TimesNewRomanPSMT'" font-size="9"> </text>
<text transform="matrix(1 0 0 1 132.5171 153.208)"><tspan x="0" y="0" font-family="'TimesNewRomanPSMT'" font-size="9"> 2.8062</tspan></text>
<rect x="301.097" y="86.368" fill="#FFFFFF" width="95.16" height="23.64"/>
<path fill="#006600" d="M301.576,110.008l-0.479-0.479h95.16l-0.48,0.479v-23.64l0.48,0.48h-95.16l0.479-0.48 M300.616,86.368
	c0-0.24,0.24-0.48,0.48-0.48h95.16c0.239,0,0.479,0.24,0.479,0.48v23.64c0,0.36-0.24,0.601-0.479,0.601h-95.16
	c-0.24,0-0.48-0.24-0.48-0.601V86.368z"/>
<text transform="matrix(1 0 0 1 308.2969 96.208)"><tspan x="0" y="0" font-family="'TimesNewRomanPSMT'" font-size="9">y</tspan><tspan x="4.545" y="0" font-family="'TimesNewRomanPSMT'" font-size="9"> </tspan></text>
<text transform="matrix(1 0 0 1 101.5396 163.5313)"><tspan x="0" y="0" font-family="'TimesNewRomanPSMT'" font-size="9">R²</tspan><tspan x="8.737" y="0" font-family="'TimesNewRomanPSMT'" font-size="9"> </tspan><tspan x="10.96" y="0" font-family="'TimesNewRomanPSMT'" font-size="9">=</tspan><tspan x="16.054" y="0" font-family="'TimesNewRomanPSMT'" font-size="9"> </tspan><tspan x="18.277" y="0" font-family="'TimesNewRomanPSMT'" font-size="9">1</tspan></text>
<text transform="matrix(1 0 0 1 315.1367 96.208)"><tspan x="0" y="0" font-family="'TimesNewRomanPSMT'" font-size="9">=</tspan><tspan x="5.121" y="0" font-family="'TimesNewRomanPSMT'" font-size="9"> </tspan><tspan x="7.344" y="0" font-family="'TimesNewRomanPSMT'" font-size="9">-0.191ln(x)</tspan><tspan x="48.58" y="0" font-family="'TimesNewRomanPSMT'" font-size="9"> </tspan><tspan x="50.804" y="0" font-family="'TimesNewRomanPSMT'" font-size="9">+</tspan><tspan x="55.924" y="0" font-family="'TimesNewRomanPSMT'" font-size="9"> </tspan><tspan x="58.138" y="0" font-family="'TimesNewRomanPSMT'" font-size="9">2.76</tspan><tspan x="74.068" y="0" font-family="'TimesNewRomanPSMT'" font-size="9">4</tspan></text>
<text transform="matrix(1 0 0 1 25.5767 248.1943)" font-family="'TimesNewRomanPSMT'" font-size="9.96">0</text>
<text transform="matrix(1 0 0 1 30.5376 248.1943)" font-family="'TimesNewRomanPSMT'" font-size="9.96">.</text>
<text transform="matrix(1 0 0 1 33.0088 248.1943)" font-family="'TimesNewRomanPSMT'" font-size="9.96">0</text>
<text transform="matrix(1 0 0 1 326.8994 106.5313)"><tspan x="0" y="0" font-family="'TimesNewRomanPSMT'" font-size="9">R²</tspan><tspan x="8.791" y="0" font-family="'TimesNewRomanPSMT'" font-size="9"> </tspan><tspan x="11.015" y="0" font-family="'TimesNewRomanPSMT'" font-size="9">=</tspan><tspan x="16.135" y="0" font-family="'TimesNewRomanPSMT'" font-size="9"> </tspan><tspan x="18.357" y="0" font-family="'TimesNewRomanPSMT'" font-size="9">0.961</tspan><tspan x="38.833" y="0" font-family="'TimesNewRomanPSMT'" font-size="9">1</tspan></text>
<text transform="matrix(1 0 0 1 25.5767 224.1904)" font-family="'TimesNewRomanPSMT'" font-size="9.96">0</text>
<text transform="matrix(1 0 0 1 30.5376 224.1904)" font-family="'TimesNewRomanPSMT'" font-size="9.96">.</text>
<text transform="matrix(1 0 0 1 33.0088 224.1904)" font-family="'TimesNewRomanPSMT'" font-size="9.96">1</text>
<text transform="matrix(1 0 0 1 25.5767 200.1865)" font-family="'TimesNewRomanPSMT'" font-size="9.96">0</text>
<text transform="matrix(1 0 0 1 30.5376 200.1865)" font-family="'TimesNewRomanPSMT'" font-size="9.96">.</text>
<text transform="matrix(1 0 0 1 33.0088 200.1865)" font-family="'TimesNewRomanPSMT'" font-size="9.96">2</text>
<text transform="matrix(1 0 0 1 25.5767 176.1826)" font-family="'TimesNewRomanPSMT'" font-size="9.96">0</text>
<text transform="matrix(1 0 0 1 30.5376 176.1836)" font-family="'TimesNewRomanPSMT'" font-size="9.96">.</text>
<text transform="matrix(1 0 0 1 33.0088 176.1836)" font-family="'TimesNewRomanPSMT'" font-size="9.96">3</text>
<text transform="matrix(1 0 0 1 25.5767 152.2988)" font-family="'TimesNewRomanPSMT'" font-size="9.96">0</text>
<text transform="matrix(1 0 0 1 30.5376 152.2988)" font-family="'TimesNewRomanPSMT'" font-size="9.96">.</text>
<text transform="matrix(1 0 0 1 33.0088 152.2988)" font-family="'TimesNewRomanPSMT'" font-size="9.96">4</text>
<text transform="matrix(1 0 0 1 25.5767 128.2949)" font-family="'TimesNewRomanPSMT'" font-size="9.96">0</text>
<text transform="matrix(1 0 0 1 30.5376 128.2959)" font-family="'TimesNewRomanPSMT'" font-size="9.96">.</text>
<text transform="matrix(1 0 0 1 33.0088 128.2959)" font-family="'TimesNewRomanPSMT'" font-size="9.96">5</text>
<text transform="matrix(1 0 0 1 25.5767 104.292)" font-family="'TimesNewRomanPSMT'" font-size="9.96">0</text>
<text transform="matrix(1 0 0 1 30.5376 104.292)" font-family="'TimesNewRomanPSMT'" font-size="9.96">.</text>
<text transform="matrix(1 0 0 1 33.0088 104.292)" font-family="'TimesNewRomanPSMT'" font-size="9.96">6</text>
<text transform="matrix(1 0 0 1 25.5767 80.2881)" font-family="'TimesNewRomanPSMT'" font-size="9.96">0</text>
<text transform="matrix(1 0 0 1 30.5376 80.2886)" font-family="'TimesNewRomanPSMT'" font-size="9.96">.</text>
<text transform="matrix(1 0 0 1 33.0088 80.2886)" font-family="'TimesNewRomanPSMT'" font-size="9.96">7</text>
<text transform="matrix(1 0 0 1 25.5767 56.2842)" font-family="'TimesNewRomanPSMT'" font-size="9.96">0</text>
<text transform="matrix(1 0 0 1 30.5376 56.2847)" font-family="'TimesNewRomanPSMT'" font-size="9.96">.</text>
<text transform="matrix(1 0 0 1 33.0088 56.2847)" font-family="'TimesNewRomanPSMT'" font-size="9.96">8</text>
<text transform="matrix(1 0 0 1 25.5767 32.2808)" font-family="'TimesNewRomanPSMT'" font-size="9.96">0</text>
<text transform="matrix(1 0 0 1 30.5376 32.2813)" font-family="'TimesNewRomanPSMT'" font-size="9.96">.</text>
<text transform="matrix(1 0 0 1 33.0088 32.2813)" font-family="'TimesNewRomanPSMT'" font-size="9.96">9</text>
<text transform="matrix(1 0 0 1 25.5767 8.2773)" font-family="'TimesNewRomanPSMT'" font-size="9.96">1</text>
<text transform="matrix(1 0 0 1 30.5376 8.2773)" font-family="'TimesNewRomanPSMT'" font-size="9.96">.</text>
<text transform="matrix(1 0 0 1 33.0088 8.2773)" font-family="'TimesNewRomanPSMT'" font-size="9.96">0</text>
<text transform="matrix(1 0 0 1 35.6567 260.1553)"><tspan x="0" y="0" font-family="'TimesNewRomanPSMT'" font-size="9.96">1,00</tspan><tspan x="17.39" y="0" font-family="'TimesNewRomanPSMT'" font-size="9.96">0</tspan></text>
<text transform="matrix(1 0 0 1 121.5815 260.1553)" font-family="'TimesNewRomanPSMT'" font-size="9.96">1</text>
<text transform="matrix(1 0 0 1 126.5439 260.1563)"><tspan x="0" y="0" font-family="'TimesNewRomanPSMT'" font-size="9.96">0</tspan><tspan x="4.97" y="0" font-family="'TimesNewRomanPSMT'" font-size="9.96">,</tspan></text>
<text transform="matrix(1 0 0 1 133.98 260.1563)"><tspan x="0" y="0" font-family="'TimesNewRomanPSMT'" font-size="9.96">00</tspan><tspan x="9.94" y="0" font-family="'TimesNewRomanPSMT'" font-size="9.96">0</tspan></text>
<text transform="matrix(1 0 0 1 207.6064 260.1563)"><tspan x="0" y="0" font-family="'TimesNewRomanPSMT'" font-size="9.96">100,00</tspan><tspan x="27.33" y="0" font-family="'TimesNewRomanPSMT'" font-size="9.96">0</tspan></text>
<text transform="matrix(1 0 0 1 292.0762 260.1563)"><tspan x="0" y="0" font-family="'TimesNewRomanPSMT'" font-size="9.96">1,000,00</tspan><tspan x="34.78" y="0" font-family="'TimesNewRomanPSMT'" font-size="9.96">0</tspan></text>
<text transform="matrix(1 0 0 1 378.1104 260.1563)"><tspan x="0" y="0" font-family="'TimesNewRomanPSMT'" font-size="9.96">10,000,00</tspan><tspan x="39.75" y="0" font-family="'TimesNewRomanPSMT'" font-size="9.96">0</tspan></text>
<rect x="63.017" y="130.769" fill="#FFFFFF" width="99.6" height="12.72"/>
<path fill="#4A452A" d="M63.497,143.488l-0.48-0.48h99.6l-0.48,0.48v-12.72l0.48,0.479h-99.6l0.48-0.479 M62.537,130.769
	c0-0.24,0.24-0.48,0.48-0.48h99.6c0.24,0,0.48,0.24,0.48,0.48v12.72c0,0.24-0.24,0.479-0.48,0.479h-99.6
	c-0.24,0-0.48-0.239-0.48-0.479V130.769z"/>
<rect x="301.457" y="70.888" fill="#FFFFFF" width="94.92" height="16.08"/>
<text transform="matrix(1 0 0 1 206.6563 278.1084)"><tspan x="0" y="0" font-family="'TimesNewRomanPS-BoldMT'" font-size="9.96">Fatalities</tspan></text>
<path fill="#006600" d="M301.937,86.968l-0.479-0.6h94.92l-0.48,0.6v-16.08l0.48,0.48h-94.92l0.479-0.48 M300.977,70.888
	c0-0.24,0.24-0.48,0.48-0.48h94.92c0.239,0,0.479,0.24,0.479,0.48v16.08c0,0.24-0.24,0.48-0.479,0.48h-94.92
	c-0.24,0-0.48-0.24-0.48-0.48V70.888z"/>
<text transform="matrix(1 0 0 1 100.9365 140.248)"><tspan x="0" y="0" font-family="'TimesNewRomanPSMT'" font-size="9">M</tspan><tspan x="8.047" y="0" font-family="'TimesNewRomanPSMT'" font-size="9">ode</tspan><tspan x="21.204" y="0" font-family="'TimesNewRomanPSMT'" font-size="9">l</tspan></text>
<text transform="matrix(-6.123234e-017 -1 1 -6.123234e-017 8.2773 202.7686)"><tspan x="0" y="0" font-family="'TimesNewRomanPS-BoldMT'" font-size="9.96">Conditional probability of exceedancee</tspan></text>

<text transform="matrix(1 0 0 1 310.8164 82.0479)"><tspan x="0" y="0" font-family="'TimesNewRomanPSMT'" font-size="9">Historical pandemic</tspan><tspan x="72.212" y="0" font-family="'TimesNewRomanPSMT'" font-size="9">s</tspan></text>
<text transform="matrix(1 0 0 1 211.457 290.1611)" font-family="'TimesNewRomanPSMT'" font-size="5.5">*</text>
<text transform="matrix(1 0 0 1 214.1758 290.1611)"><tspan x="0" y="0" font-family="'TimesNewRomanPSMT'" font-size="5.5">1977 H1</tspan><tspan x="18.904" y="0" font-family="'TimesNewRomanPSMT'" font-size="5.5">N</tspan></text>
<text transform="matrix(1 0 0 1 236.9941 290.1611)"><tspan x="0" y="0" font-family="'TimesNewRomanPSMT'" font-size="5.5">1</tspan><tspan x="2.723" y="0" font-family="'TimesNewRomanPSMT'" font-size="5.5"> </tspan></text>
<text transform="matrix(1 0 0 1 241.0527 290.1611)" font-family="'TimesNewRomanPSMT'" font-size="5.5">pa</text>
<text transform="matrix(1 0 0 1 246.2959 290.1611)" font-family="'TimesNewRomanPSMT'" font-size="5.5">n</text>
<text transform="matrix(1 0 0 1 249.0977 290.1611)" font-family="'TimesNewRomanPSMT'" font-size="5.5">d</text>
<text transform="matrix(1 0 0 1 251.8994 290.1611)"><tspan x="0" y="0" font-family="'TimesNewRomanPSMT'" font-size="5.5">em</tspan><tspan x="6.818" y="0" font-family="'TimesNewRomanPSMT'" font-size="5.5">i</tspan></text>
<text transform="matrix(1 0 0 1 260.3057 290.1611)"><tspan x="0" y="0" font-family="'TimesNewRomanPSMT'" font-size="5.5">c</tspan><tspan x="2.49" y="0" font-family="'TimesNewRomanPSMT'" font-size="5.5"> </tspan></text>
<text transform="matrix(1 0 0 1 264.0205 290.1611)" font-family="'TimesNewRomanPSMT'" font-size="5.5">i</text>
<text transform="matrix(1 0 0 1 265.6016 290.1611)" font-family="'TimesNewRomanPSMT'" font-size="5.5">s</text>
<text transform="matrix(1 0 0 1 267.793 290.1611)" font-family="'TimesNewRomanPSMT'" font-size="5.5"> </text>
<text transform="matrix(1 0 0 1 268.9609 290.1611)" font-family="'TimesNewRomanPSMT'" font-size="5.5">n</text>
<text transform="matrix(1 0 0 1 271.7627 290.1611)" font-family="'TimesNewRomanPSMT'" font-size="5.5">o</text>
<text transform="matrix(1 0 0 1 274.5645 290.1611)" font-family="'TimesNewRomanPSMT'" font-size="5.5">t</text>
<text transform="matrix(1 0 0 1 276.1455 290.1611)" font-family="'TimesNewRomanPSMT'" font-size="5.5"> </text>
<text transform="matrix(1 0 0 1 277.5313 290.1611)" font-family="'TimesNewRomanPSMT'" font-size="5.5">b</text>
<text transform="matrix(1 0 0 1 280.334 290.1611)"><tspan x="0" y="0" font-family="'TimesNewRomanPSMT'" font-size="5.5">eli</tspan><tspan x="5.646" y="0" font-family="'TimesNewRomanPSMT'" font-size="5.5">e</tspan></text>
<text transform="matrix(1 0 0 1 288.4805 290.1611)" font-family="'TimesNewRomanPSMT'" font-size="5.5">v</text>
<text transform="matrix(1 0 0 1 291.2822 290.1611)"><tspan x="0" y="0" font-family="'TimesNewRomanPSMT'" font-size="5.5">e</tspan><tspan x="2.49" y="0" font-family="'TimesNewRomanPSMT'" font-size="5.5">d</tspan></text>
<text transform="matrix(1 0 0 1 296.5791 290.1611)" font-family="'TimesNewRomanPSMT'" font-size="5.5"> </text>
<text transform="matrix(1 0 0 1 297.9551 290.1611)"><tspan x="0" y="0" font-family="'TimesNewRomanPSMT'" font-size="5.5">t</tspan><tspan x="1.577" y="0" font-family="'TimesNewRomanPSMT'" font-size="5.5">o</tspan></text>
<text transform="matrix(1 0 0 1 302.3369 290.1611)" font-family="'TimesNewRomanPSMT'" font-size="5.5"> </text>
<text transform="matrix(1 0 0 1 303.5938 290.1611)" font-family="'TimesNewRomanPSMT'" font-size="5.5">b</text>
<text transform="matrix(1 0 0 1 306.3955 290.1611)" font-family="'TimesNewRomanPSMT'" font-size="5.5">e</text>
<text transform="matrix(1 0 0 1 308.8896 290.1611)" font-family="'TimesNewRomanPSMT'" font-size="5.5"> </text>
<text transform="matrix(1 0 0 1 310.2422 290.1611)"><tspan x="0" y="0" font-family="'TimesNewRomanPSMT'" font-size="5.5">o</tspan><tspan x="2.8" y="0" font-family="'TimesNewRomanPSMT'" font-size="5.5">f</tspan></text>
<text transform="matrix(1 0 0 1 314.9277 290.1611)" font-family="'TimesNewRomanPSMT'" font-size="5.5"> </text>
<text transform="matrix(1 0 0 1 316.1348 290.1611)" font-family="'TimesNewRomanPSMT'" font-size="5.5">n</text>
<text transform="matrix(1 0 0 1 318.9365 290.1611)"><tspan x="0" y="0" font-family="'TimesNewRomanPSMT'" font-size="5.5">atura</tspan><tspan x="11.239" y="0" font-family="'TimesNewRomanPSMT'" font-size="5.5">l</tspan></text>
<text transform="matrix(1 0 0 1 331.7725 290.1611)" font-family="'TimesNewRomanPSMT'" font-size="5.5"> </text>
<text transform="matrix(1 0 0 1 333.0137 290.1611)" font-family="'TimesNewRomanPSMT'" font-size="5.5">o</text>
<text transform="matrix(1 0 0 1 335.8154 290.1611)"><tspan x="0" y="0" font-family="'TimesNewRomanPSMT'" font-size="5.5">r</tspan><tspan x="1.881" y="0" font-family="'TimesNewRomanPSMT'" font-size="5.5">i</tspan></text>
<text transform="matrix(1 0 0 1 339.2803 290.1611)" font-family="'TimesNewRomanPSMT'" font-size="5.5">gi</text>
<text transform="matrix(1 0 0 1 343.5967 290.1611)" font-family="'TimesNewRomanPSMT'" font-size="5.5">n</text>
<text transform="matrix(1 0 0 1 346.3867 290.1611)" font-family="'TimesNewRomanPSMT'" font-size="5.5">, </text>
<text transform="matrix(1 0 0 1 349.0332 290.1611)" font-family="'TimesNewRomanPSMT'" font-size="5.5">b</text>
<text transform="matrix(1 0 0 1 351.7539 290.1611)" font-family="'TimesNewRomanPSMT'" font-size="5.5">u</text>
<text transform="matrix(1 0 0 1 354.4736 290.1611)"><tspan x="0" y="0" font-family="'TimesNewRomanPSMT'" font-size="5.5">t is incl</tspan><tspan x="15.946" y="0" font-family="'TimesNewRomanPSMT'" font-size="5.5">u</tspan></text>
<text transform="matrix(1 0 0 1 373.1172 290.1611)" font-family="'TimesNewRomanPSMT'" font-size="5.5">d</text>
<text transform="matrix(1 0 0 1 375.8379 290.1611)"><tspan x="0" y="0" font-family="'TimesNewRomanPSMT'" font-size="5.5">e</tspan><tspan x="2.414" y="0" font-family="'TimesNewRomanPSMT'" font-size="5.5">d</tspan></text>
<text transform="matrix(1 0 0 1 380.9697 290.1611)"><tspan x="0" y="0" font-family="'TimesNewRomanPSMT'" font-size="5.5"> </tspan><tspan x="1.342" y="0" font-family="'TimesNewRomanPSMT'" font-size="5.5">f</tspan></text>
<text transform="matrix(1 0 0 1 384.1104 290.1611)" font-family="'TimesNewRomanPSMT'" font-size="5.5">o</text>
<text transform="matrix(1 0 0 1 386.8301 290.1611)"><tspan x="0" y="0" font-family="'TimesNewRomanPSMT'" font-size="5.5">r co</tspan><tspan x="8.288" y="0" font-family="'TimesNewRomanPSMT'" font-size="5.5">m</tspan></text>
<text transform="matrix(1 0 0 1 399.3574 290.1611)" font-family="'TimesNewRomanPSMT'" font-size="5.5">pl</text>
<text transform="matrix(1 0 0 1 403.6191 290.1611)"><tspan x="0" y="0" font-family="'TimesNewRomanPSMT'" font-size="5.5">eteness</tspan><tspan x="15.806" y="0" font-family="'TimesNewRomanPSMT'" font-size="5.5">.</tspan></text>
</svg>
