<?xml version="1.0" encoding="utf-8"?>
<!-- Generator: Adobe Illustrator 16.0.0, SVG Export Plug-In . SVG Version: 6.00 Build 0)  -->
<!DOCTYPE svg PUBLIC "-//W3C//DTD SVG 1.1 Basic//EN" "http://www.w3.org/Graphics/SVG/1.1/DTD/svg11-basic.dtd">
<svg version="1.1" baseProfile="basic" id="Layer_1"
	 xmlns="http://www.w3.org/2000/svg" xmlns:xlink="http://www.w3.org/1999/xlink" x="0px" y="0px" width="235.9956px"
	 height="464.6401px" viewBox="0 0 235.9956 464.6401" xml:space="preserve">
<path fill="#D9D9D9" d="M34.1558,62.1597h201.1201v0.2402H34.1558V62.1597z M34.1558,124.6797h201.1201v0.2402H34.1558V124.6797z
	 M34.1558,187.0796h201.1201v0.2402H34.1558V187.0796z M34.1558,249.5996h201.1201v0.2402H34.1558V249.5996z M34.1558,311.9995
	h201.1201v0.2402H34.1558V311.9995z M34.1558,374.52h201.1201v0.2393H34.1558V374.52z M34.1558,437.0396h201.1201v0.2402H34.1558
	V437.0396z"/>
<rect x="34.0356" y="0.48" width="0.2397" height="436.6807"/>
<path d="M34.1558,62.1602h2.1597v0.2397h-2.1597V62.1602z M34.1558,124.6802h2.1597v0.2402h-2.1597V124.6802z M34.1558,187.0801
	h2.1597v0.2402h-2.1597V187.0801z M34.1558,249.6001h2.1597v0.2402h-2.1597V249.6001z M34.1558,312.0005h2.1597v0.2393h-2.1597
	V312.0005z M34.1558,374.52h2.1597v0.2402h-2.1597V374.52z M34.1558,437.0405h2.1597v0.2393h-2.1597V437.0405z"/>
<rect x="34.1558" y="0.3604" width="201.1201" height="0.2397"/>
<path d="M222.5552,0.48h0.2402v3.1201h-0.2402V0.48z M159.6753,0.48h0.2402v3.1201h-0.2402V0.48z M96.7954,0.48h0.2402v3.1201
	h-0.2402V0.48z M34.0356,0.48h0.2397v3.1201h-0.2397V0.48z"/>
<g>
	<defs>
		<rect id="SVGID_1_" x="34.0356" y="30.3618" width="201.96" height="437.4014"/>
	</defs>
	<clipPath id="SVGID_2_">
		<use xlink:href="#SVGID_1_"  overflow="visible"/>
	</clipPath>
	<g clip-path="url(#SVGID_2_)">
		<defs>
			<rect id="SVGID_3_" x="-166.0044" y="-73.3784" width="612" height="792.002"/>
		</defs>
		<clipPath id="SVGID_4_">
			<use xlink:href="#SVGID_3_"  overflow="visible"/>
		</clipPath>
		<rect x="49.9956" y="380.8804" clip-path="url(#SVGID_4_)" fill="#EC2227" width="6" height="56.1602"/>
		<rect x="82.6357" y="427.6802" clip-path="url(#SVGID_4_)" fill="#EC2227" width="6" height="9.3604"/>
		<rect x="114.0757" y="404.2798" clip-path="url(#SVGID_4_)" fill="#EC2227" width="6" height="32.7607"/>ssss
		<rect x="149.9556" y="390.8403" clip-path="url(#SVGID_4_)" fill="#EC2227" width="6" height="46.2002"/>
		<rect x="168.1958" y="31.0801" clip-path="url(#SVGID_4_)" fill="#EC2227" width="6" height="405.9604"/>
		<rect x="192.6753" y="411.48" clip-path="url(#SVGID_4_)" fill="#EC2227" width="6" height="25.5605"/>
		<rect x="199.6353" y="426.48" clip-path="url(#SVGID_4_)" fill="#EC2227" width="6" height="10.5605"/>
		<rect x="225.3159" y="434.52" clip-path="url(#SVGID_4_)" fill="#EC2227" width="6" height="2.5205"/>
	</g>
</g>
<text transform="matrix(1 0 0 1 16.1538 377.6567)"><tspan x="0" y="0" font-family="'TimesNewRomanPSMT'" font-size="8">10</tspan><tspan x="7.9839" y="0" font-family="'TimesNewRomanPSMT'" font-size="8">0</tspan></text>
<text transform="matrix(1 0 0 1 16.1538 315.2544)"><tspan x="0" y="0" font-family="'TimesNewRomanPSMT'" font-size="8">20</tspan><tspan x="7.9839" y="0" font-family="'TimesNewRomanPSMT'" font-size="8">0</tspan></text>
<text transform="matrix(1 0 0 1 16.1538 252.7319)"><tspan x="0" y="0" font-family="'TimesNewRomanPSMT'" font-size="8">30</tspan><tspan x="7.9839" y="0" font-family="'TimesNewRomanPSMT'" font-size="8">0</tspan></text>
<text transform="matrix(1 0 0 1 16.1538 190.21)"><tspan x="0" y="0" font-family="'TimesNewRomanPSMT'" font-size="8">40</tspan><tspan x="7.9839" y="0" font-family="'TimesNewRomanPSMT'" font-size="8">0</tspan></text>
<text transform="matrix(1 0 0 1 16.1538 127.8071)"><tspan x="0" y="0" font-family="'TimesNewRomanPSMT'" font-size="8">50</tspan><tspan x="7.9839" y="0" font-family="'TimesNewRomanPSMT'" font-size="8">0</tspan></text>
<text transform="matrix(1 0 0 1 16.1538 65.2852)"><tspan x="0" y="0" font-family="'TimesNewRomanPSMT'" font-size="8">60</tspan><tspan x="7.9839" y="0" font-family="'TimesNewRomanPSMT'" font-size="8">0</tspan></text>
<text transform="matrix(-6.123234e-017 -1 1 -6.123234e-017 7.4795 272)"><tspan x="0" y="0" font-family="'TimesNewRomanPS-BoldMT'" font-size="9">Deaths per 100,000 population</tspan></text>

<text transform="matrix(0.7071 -0.7071 0.7071 0.7071 38.397 464.604)" fill="#231F20" font-family="'TimesNewRomanPSMT'" font-size="8.5">1729-33</text>
<text transform="matrix(0.7071 -0.7071 0.7071 0.7071 70.8052 464.604)" fill="#231F20" font-family="'TimesNewRomanPSMT'" font-size="8.5">1781-82</text>
<text transform="matrix(0.7071 -0.7071 0.7071 0.7071 101.6372 464.604)" fill="#231F20" font-family="'TimesNewRomanPSMT'" font-size="8.5">1832-33</text>
<text transform="matrix(0.7071 -0.7071 0.7071 0.7071 137.0781 464.604)" fill="#231F20" font-family="'TimesNewRomanPSMT'" font-size="8.5">1889-90</text>
<text transform="matrix(0.7071 -0.7071 0.7071 0.7071 155.8696 464.604)" fill="#231F20" font-family="'TimesNewRomanPSMT'" font-size="8.5">1918-20</text>
<text transform="matrix(0.7071 -0.7071 0.7071 0.7071 178.3882 464.604)" fill="#231F20" font-family="'TimesNewRomanPSMT'" font-size="8.5">1957-58</text>
<text transform="matrix(0.7071 -0.7071 0.7071 0.7071 189.6753 464.604)" fill="#231F20" font-family="'TimesNewRomanPSMT'" font-size="8.5">1968-69</text>
<text transform="matrix(0.7071 -0.7071 0.7071 0.7071 213.1675 464.604)" fill="#231F20" font-family="'TimesNewRomanPSMT'" font-size="8.5">2009-10</text>

<rect x="34.3955" y="0.48" fill="none" stroke="#000000" stroke-width="0.75" stroke-miterlimit="10" width="201.6001" height="436.2002"/>
<rect x="22.9956" y="6.7202" fill="#FFFFFF" width="22.2002" height="11.7598"/>
<rect x="85.8755" y="6.7202" fill="#FFFFFF" width="22.2002" height="11.7598"/>
<rect x="148.7554" y="6.7202" fill="#FFFFFF" width="22.2002" height="11.7598"/>
<rect x="211.6353" y="6.7202" fill="#FFFFFF" width="22.0801" height="11.7598"/>
<text transform="matrix(1 0 0 1 22.9956 16.2622)" font-family="'TimesNewRomanPSMT'" font-size="9.96">1700</text>
<text transform="matrix(1 0 0 1 85.8735 16.2622)" font-family="'TimesNewRomanPSMT'" font-size="9.96">1800</text>
<text transform="matrix(1 0 0 1 148.7515 16.2632)" font-family="'TimesNewRomanPSMT'" font-size="9.96">1900</text>
<text transform="matrix(1 0 0 1 211.6284 16.2632)" font-family="'TimesNewRomanPSMT'" font-size="9.96">2000</text>
<text transform="matrix(1 0 0 1 24.1377 439.6655)" font-family="'TimesNewRomanPSMT'" font-size="8">0</text>
</svg>
