<?xml version="1.0" encoding="utf-8"?>
<!-- Generator: Adobe Illustrator 25.3.1, SVG Export Plug-In . SVG Version: 6.00 Build 0)  -->
<svg version="1.0" id="Layer_1" xmlns="http://www.w3.org/2000/svg" xmlns:xlink="http://www.w3.org/1999/xlink" x="0px" y="0px"
	 viewBox="0 0 437.64 291.96" enable-background="new 0 0 437.64 291.96" xml:space="preserve">
<rect x="0.36" y="0.24" fill="#FFFFFF" width="436.8" height="291.24"/>
<rect x="45.84" y="26.88" fill="#FFFFFF" width="368.16" height="227.76"/>
<path fill="#B7B7B7" d="M45.84,31.68H414v0.72H45.84V31.68z M45.84,37.56H414v0.72H45.84V37.56z M45.84,44.16H414v0.72H45.84V44.16z
	 M45.84,51.72H414v0.72H45.84V51.72z M45.84,60.72H414v0.72H45.84V60.72z M45.84,71.76H414v0.72H45.84V71.76z M45.84,86.04H414v0.72
	H45.84V86.04z M45.84,106.08H414v0.72H45.84V106.08z M45.84,145.56H414v0.72H45.84V145.56z M45.84,151.44H414v0.72H45.84V151.44z
	 M45.84,158.04H414v0.72H45.84V158.04z M45.84,165.72H414v0.72H45.84V165.72z M45.84,174.72H414v0.72H45.84V174.72z M45.84,185.76
	H414v0.72H45.84V185.76z M45.84,199.92H414v0.72H45.84V199.92z M45.84,220.08H414v0.72H45.84V220.08z"/>
<path fill="#868686" d="M45.84,26.52H414v0.72H45.84V26.52z M45.84,140.4H414v0.72H45.84V140.4z"/>
<path fill="#B7B7B7" d="M413.64,26.88h0.72v227.76h-0.72V26.88z M408,26.88h0.72v227.76H408V26.88z M401.76,26.88h0.72v227.76h-0.72
	V26.88z M394.68,26.88h0.72v227.76h-0.72V26.88z M386.4,26.88h0.72v227.76h-0.72V26.88z M376.68,26.88h0.72v227.76h-0.72V26.88z
	 M364.8,26.88h0.72v227.76h-0.72V26.88z M349.44,26.88h0.72v227.76h-0.72V26.88z M327.84,26.88h0.72v227.76h-0.72V26.88z
	 M290.88,26.88h0.72v227.76h-0.72V26.88z M285.36,26.88h0.72v227.76h-0.72V26.88z M279,26.88h0.72v227.76H279V26.88z M271.92,26.88
	h0.72v227.76h-0.72V26.88z M263.64,26.88h0.72v227.76h-0.72V26.88z M253.92,26.88h0.72v227.76h-0.72V26.88z M242.04,26.88h0.72
	v227.76h-0.72V26.88z M226.8,26.88h0.72v227.76h-0.72V26.88z M205.08,26.88h0.72v227.76h-0.72V26.88z M168.24,26.88h0.72v227.76
	h-0.72V26.88z M162.6,26.88h0.72v227.76h-0.72V26.88z M156.36,26.88h0.72v227.76h-0.72V26.88z M149.16,26.88h0.72v227.76h-0.72
	V26.88z M141,26.88h0.72v227.76H141V26.88z M131.28,26.88H132v227.76h-0.72V26.88z M119.4,26.88h0.72v227.76h-0.72V26.88z
	 M104.04,26.88h0.72v227.76h-0.72V26.88z M82.44,26.88h0.72v227.76h-0.72V26.88z M45.48,26.88h0.72v227.76h-0.72V26.88z"/>
<rect x="45.48" y="26.88" fill="#868686" width="0.72" height="227.76"/>
<path fill="#868686" d="M43.44,26.52h2.4v0.72h-2.4V26.52z M43.44,140.4h2.4v0.72h-2.4V140.4z M43.44,254.28h2.4V255h-2.4V254.28z"
	/>
<rect x="45.84" y="254.28" fill="#868686" width="368.16" height="0.72"/>
<path fill="#868686" d="M413.64,254.64h0.72v2.52h-0.72V254.64z M290.88,254.64h0.72v2.52h-0.72V254.64z M168.24,254.64h0.72v2.52
	h-0.72V254.64z M45.48,254.64h0.72v2.52h-0.72V254.64z"/>
<g>
	<defs>
		<rect id="SVGID_1_" x="45.72" y="26.76" width="369" height="228.6"/>
	</defs>
	<clipPath id="SVGID_2_">
		<use xlink:href="#SVGID_1_"  overflow="visible"/>
	</clipPath>
	<g clip-path="url(#SVGID_2_)">
		<defs>
			<rect id="SVGID_3_" x="-72.24" y="-124.86" width="612" height="792"/>
		</defs>
		<clipPath id="SVGID_4_">
			<use xlink:href="#SVGID_3_"  overflow="visible"/>
		</clipPath>
		<path clip-path="url(#SVGID_4_)" fill="#0F07AD" d="M132.24,115.32L147.6,129l21.6,16.2l15.24,12.48l31.32,21.72l-0.36-0.12
			l18.6,5.88l67.8,23.28c0,0.12,0.12,0.12,0.24,0.24l58.56,45.24l45.6,34.32c0.36,0.24,0.48,0.84,0.12,1.32
			c-0.24,0.36-0.84,0.48-1.32,0.12l-45.6-34.32l-58.56-45.24l0.24,0.24l-67.56-23.28l-18.6-5.88c-0.12-0.12-0.24-0.12-0.36-0.12
			l-31.32-21.96L168,146.64l-21.6-16.2l-15.36-13.68c-0.48-0.36-0.48-0.96-0.12-1.32C131.28,114.96,131.88,114.96,132.24,115.32"/>
		<path clip-path="url(#SVGID_4_)" fill="#600173" d="M132.24,81l15.36,13.68L169.2,111l15.24,12.36l31.32,21.72l-0.36-0.12
			l18.6,5.88l67.8,23.28c0,0.12,0.12,0.12,0.24,0.24l58.56,45.36l45.6,34.2c0.36,0.24,0.48,0.84,0.12,1.32
			c-0.24,0.36-0.84,0.48-1.32,0.12l-45.6-34.2l-58.56-45.36l0.24,0.24l-67.56-23.28l-18.6-5.88c-0.12-0.12-0.24-0.12-0.36-0.12
			l-31.32-21.96L168,112.44l-21.6-16.32l-15.36-13.68c-0.48-0.36-0.48-0.96-0.12-1.32C131.28,80.64,131.88,80.64,132.24,81"/>
	</g>
</g>
<path fill="#8E0009" d="M132.24,60.96l15.36,13.68l21.6,16.2l15.24,12.48l31.32,21.72l-0.36-0.12l18.6,5.88l67.8,23.28
	c0,0.12,0.12,0.12,0.24,0.24l58.56,45.24l45.6,34.32c0.36,0.24,0.48,0.84,0.12,1.32c-0.24,0.36-0.84,0.48-1.32,0.12L359.4,201
	l-58.56-45.24l0.24,0.24l-67.56-23.28l-18.6-5.88c-0.12-0.12-0.24-0.12-0.36-0.12l-31.32-21.96L168,92.28l-21.6-16.2L131.04,62.4
	c-0.48-0.36-0.48-0.96-0.12-1.32C131.28,60.6,131.88,60.6,132.24,60.96"/>
<path fill="#FF0000" d="M192.24,109.08l6.12-6.12l1.08,1.2l-6.12,6.12 M198.36,110.28l-6.12-6.12l1.08-1.2l6.12,6.12L198.36,110.28z
	"/>
<path fill="#FF0000" d="M229.2,237.24l6.12-6.12l1.08,1.2l-6.12,6.12 M235.32,238.44l-6.12-6.12l1.08-1.2l6.12,6.12L235.32,238.44z"
	/>
<path fill="#FF0000" d="M165,106.68l6.12-6.12l1.08,1.2l-6.12,6.12 M171.12,107.88l-6.12-6.12l1.08-1.2l6.12,6.12L171.12,107.88z"/>
<path fill="#FF0000" d="M266.16,202.92l6.12-6.12l1.08,1.2l-6.12,6.12 M272.28,204.12l-6.12-6.12l1.08-1.2l6.12,6.12L272.28,204.12z
	"/>
<text transform="matrix(1 0 0 1 30.0002 257.117)"><tspan x="0" y="0" font-family="'TimesNewRomanPSMT'" font-size="8.04px">10</tspan></text>
<text transform="matrix(1 0 0 1 25.5618 143.2381)"><tspan x="0" y="0" font-family="'TimesNewRomanPSMT'" font-size="8.04px">100</tspan></text>
<text transform="matrix(1 0 0 1 18.9612 29.2391)"><tspan x="0" y="0" font-family="'TimesNewRomanPSMT'" font-size="8.04px">1,000</tspan></text>
<text transform="matrix(1 0 0 1 34.8782 266.7161)"><tspan x="0" y="0" font-family="'TimesNewRomanPSMT'" font-size="8.04px">0.0001</tspan></text>
<text transform="matrix(1 0 0 1 157.633 266.7161)"><tspan x="0" y="0" font-family="'TimesNewRomanPSMT'" font-size="8.04px">0.0010</tspan></text>
<text transform="matrix(1 0 0 1 280.2668 266.7161)"><tspan x="0" y="0" font-family="'TimesNewRomanPSMT'" font-size="8.04px">0.0100</tspan></text>
<text transform="matrix(1 0 0 1 403.0217 266.7161)"><tspan x="0" y="0" font-family="'TimesNewRomanPSMT'" font-size="8.04px">0.1000</tspan></text>
<text transform="matrix(0 -1 1 0 13.8719 192.4114)"><tspan x="0" y="0" font-family="'TimesNewRomanPS-BoldMT'" font-size="9px">Direct Economic Loss ($B)</tspan></text>
<text transform="matrix(1 0 0 1 128.5749 282.7918)"><tspan x="0" y="0" font-family="'TimesNewRomanPS-BoldMT'" font-size="9px">Annual Probability of Exceedance (1/Return Period)</tspan></text>
<rect x="268.2" y="51.6" fill="#FFFFFF" width="120.84" height="43.56"/>
<path fill="#7D60A0" d="M268.56,95.16l-0.36-0.36h120.84l-0.36,0.36V51.6l0.36,0.36H268.2l0.36-0.36 M267.84,51.6l0.12-0.24
	l0.24-0.12h120.84l0.24,0.12l0.12,0.24v43.56l-0.12,0.24l-0.24,0.12H268.2l-0.24-0.12l-0.12-0.24V51.6z"/>
<path fill="#0F07AD" d="M273.12,56.04h19.2c0.48,0,0.96,0.48,0.96,0.96s-0.48,0.96-0.96,0.96h-19.2c-0.48,0-0.96-0.48-0.96-0.96
	S272.64,56.04,273.12,56.04"/>
<path fill="#600173" d="M273.12,66.96h19.2c0.48,0,0.96,0.48,0.96,0.96s-0.48,0.96-0.96,0.96h-19.2c-0.48,0-0.96-0.48-0.96-0.96
	S272.64,66.96,273.12,66.96"/>
<text transform="matrix(1 0 0 1 294.3596 59.4769)"><tspan x="0" y="0" font-family="'TimesNewRomanPSMT'" font-size="8.04px">US Low</tspan></text>
<path fill="#8E0009" d="M273.12,77.88h19.2c0.48,0,0.96,0.48,0.96,0.96s-0.48,0.96-0.96,0.96h-19.2c-0.48,0-0.96-0.48-0.96-0.96
	S272.64,77.88,273.12,77.88"/>
<text transform="matrix(1 0 0 1 294.3596 70.3973)"><tspan x="0" y="0" font-family="'TimesNewRomanPSMT'" font-size="8.04px">US Best</tspan></text>
<path fill="#FF0000" d="M280.32,91.2l3.96-3.96l1.08,1.08l-3.96,3.96 M284.28,92.28l-3.96-3.96l1.08-1.08l3.96,3.96L284.28,92.28z"/>
<text transform="matrix(1 0 0 1 294.3596 81.1971)"><tspan x="0" y="0" font-family="'TimesNewRomanPSMT'" font-size="8.04px">US High</tspan></text>
<text transform="matrix(1 0 0 1 126.5061 17.2288)"><tspan x="0" y="0" font-family="'TimesNewRomanPS-BoldMT'" font-size="9px">Estimated U.S. Earthquake Direct Economic Loss ($B)</tspan></text>
<path fill="#868686" d="M0.84,291.6l-0.48-0.48h436.8l-0.36,0.48V0.36l0.36,0.36H0.36l0.48-0.36 M0,0.36C0,0.12,0.24,0,0.36,0h436.8
	c0.24,0,0.48,0.12,0.48,0.36V291.6c0,0.12-0.24,0.36-0.48,0.36H0.36c-0.12,0-0.36-0.24-0.36-0.36V0.36z"/>
<text transform="matrix(1 0 0 1 294.3596 92.117)"><tspan x="0" y="0" font-family="'TimesNewRomanPSMT'" font-size="8.04px">Some Historic EQ Events</tspan></text>
</svg>
