<?xml version="1.0" encoding="iso-8859-1"?>
<!-- Generator: Adobe Illustrator 16.0.0, SVG Export Plug-In . SVG Version: 6.00 Build 0)  -->
<!DOCTYPE svg PUBLIC "-//W3C//DTD SVG 1.0//EN" "http://www.w3.org/TR/2001/REC-SVG-20010904/DTD/svg10.dtd">
<svg version="1.0" id="Layer_1" xmlns="http://www.w3.org/2000/svg" xmlns:xlink="http://www.w3.org/1999/xlink" x="0px" y="0px"
	 width="435.8px" height="372.1px" viewBox="135.2 151.2 435.8 372.1" enable-background="new 135.2 151.2 435.8 372.1"
	 xml:space="preserve">
<rect x="158.8" y="151.5" fill="#FFFFFF" width="388.8" height="208.8"/>
<path fill="#005400" d="M352.3,278.4l54.1-44.8c-13.4-16.1-33.2-25.4-54.1-25.4"/>
<path d="M352.1,208.2l0.2-0.2c7.8,0.1,15.6,1.2,22.9,3.8l1.8,0.6l1.8,0.7c9.5,3.9,18.1,9.9,25.2,17.4l2.5,3l0.1,0.1l-0.1,0.2
	l-54.1,44.6l-0.2,0.1l-0.1-0.2 M352.6,278.4l-0.4-0.2l54-44.6v0.2l-2.5-2.9c-12.7-13.7-30.8-21.9-49.4-22.4h-1.9l0.2-0.2V278.4
	L352.6,278.4z"/>
<path fill="#7D7447" d="M352.3,278.4v-70.2c-38.8,0-70.2,31.4-70.2,70.2c0,38.8,31.4,70.1,70.2,70.1c38.8,0,70.2-31.3,70.2-70.1
	c0-16.3-5.8-32.2-16.1-44.8"/>
<path d="M406.2,233.5l0.2-0.1l0.1,0.1l1.9,2.4l1.8,2.5c15.8,22.7,16.6,52.8,2.3,76.4l-1.8,2.9l-2,2.8
	c-17.9,24.1-48.9,33.9-77.4,25.1l-3.2-1.1l-6.2-2.6l-3.1-1.6c-25-13.8-39.3-40.7-36.5-69.1l0.5-3.6l0.6-3.5
	c6.5-31.3,33.4-54.4,65.4-56l1.8-0.1h1.8l0.2,0.1v70.3l-0.4-0.2 M352.4,278.5l-0.2,0.1l-0.1-0.2v-70.2l0.2,0.2h-1.8l-1.8,0.1
	l-3.5,0.2c-30.5,3.2-55,25.5-61.4,55.4l-0.6,3.5l-0.5,3.5c-2.8,28.1,11.4,55.1,36.2,68.6l3,1.6l3.1,1.4l3.2,1.2l3.2,1.1
	c27.1,8.5,56.6-0.3,74.8-22.3l2-2.6l1.9-2.8c15.6-23,15.9-52.7,1.3-76.2l-1.7-2.5l-1.8-2.5l-1.9-2.4l0.4,0.1L352.4,278.5z"/>
<text transform="matrix(1 0 0 1 357.7192 241.814)" fill="#FFFFFF" font-family="'TimesNewRomanPSMT'" font-size="12">14%</text>
<text transform="matrix(1 0 0 1 338.2798 303.7349)" fill="#FFFFFF" font-family="'TimesNewRomanPSMT'" font-size="12">86%</text>
<rect x="273.1" y="183.9" fill="#005400" width="4" height="4"/>
<path d="M273.4,187.9l-0.2-0.2h4l-0.2,0.2v-4l0.2,0.2h-4l0.2-0.2 M272.9,183.9l0.2-0.2h4l0.2,0.2v4l-0.2,0.2h-4l-0.2-0.2V183.9z"/>
<text transform="matrix(1 0 0 1 329 171.0249)" font-family="'TimesNewRomanPS-BoldMT'" font-size="11.96">Tornadoes</text>
<rect x="352.2" y="183.9" fill="#7D7447" width="4.1" height="4"/>
<path d="M352.4,187.9l-0.2-0.2h4.1l-0.2,0.2v-4l0.2,0.2h-4.1l0.2-0.2 M352,183.9l0.2-0.2h4.1l0.2,0.2v4l-0.2,0.2h-4.1l-0.2-0.2
	V183.9z"/>
<text transform="matrix(1 0 0 1 281.6401 188.6763)" font-family="'TimesNewRomanPSMT'" font-size="8.04">In the Threshold</text>
<path d="M159.2,360.4l-0.5-0.4h388.8l-0.4,0.4V151.6l0.4,0.4H158.8l0.5-0.4 M158.4,151.6c0-0.2,0.2-0.4,0.4-0.4h388.8
	c0.2,0,0.5,0.1,0.5,0.4v208.8c0,0.1-0.2,0.4-0.5,0.4H158.8c-0.1,0-0.4-0.2-0.4-0.4V151.6L158.4,151.6z"/>
<rect x="135.5" y="393.3" fill="#FFFFFF" width="144" height="129.6"/>
<path fill="#005400" d="M209.2,473.1l-43.4,8.3c4.6,24,27.7,39.7,51.7,35.2c24.1-4.6,39.8-27.7,35.3-51.7c-4-20.9-22.3-36-43.6-36"
	/>
<path d="M208.9,428.8l0.1-0.2h2.2c34.8,1.8,54.3,40.4,34.8,69.5l-1.2,1.8l-1.3,1.7l-1.4,1.6c-10.6,11.8-26.8,16.7-42.2,13.6
	l-4.1-1.2c-15.4-4.7-27.4-18.3-30.2-34.1v-0.1l0.1-0.1l43.6-8.3l-0.2,0.2 M209.4,473.1l-0.1,0.2l-43.6,8.3l0.2-0.4l0.5,2.3l0.6,2.2
	c10.5,34.6,55.5,42.6,77.4,13.8l1.2-1.7l1.1-1.8c17.1-28.1-1.1-63.7-33.6-66.8l-1.9-0.1h-2l0.2-0.2V473.1L209.4,473.1z"/>
<path fill="#7D7447" d="M209.2,473.1v-44.3c-24.5,0-44.3,19.8-44.3,44.3c0,2.8,0.2,5.5,0.8,8.3"/>
<path d="M165.7,481.6h-0.1l-0.1-0.2l-0.4-2c-1.6-11.5,1.3-23.6,8.4-32.9l1.3-1.7l1.4-1.7c7.7-8.7,19-13.9,30.6-14.5h2.5v44.5
	l-0.1,0.2 M209.2,472.9l-0.2,0.2v-44.3l0.2,0.2h-2.3c-26,1.5-44.8,24.5-41.3,50.3l0.4,2l-0.4-0.2L209.2,472.9z"/>
<rect x="144.1" y="417.7" fill="#005400" width="3.5" height="3.5"/>
<path d="M144.4,421.2l-0.2-0.2h3.5l-0.2,0.2v-3.5l0.2,0.2h-3.5l0.2-0.2 M143.9,417.7l0.2-0.2h3.5l0.2,0.2v3.5l-0.2,0.2h-3.5
	l-0.2-0.2V417.7z"/>
<text transform="matrix(1 0 0 1 360.7192 188.6763)" font-family="'TimesNewRomanPSMT'" font-size="8.04">Out of the Threshold</text>
<text transform="matrix(1 0 0 1 192 408.5054)" font-family="'TimesNewRomanPS-BoldMT'" font-size="9.96">Fatalities</text>
<rect x="206.9" y="417.7" fill="#7D7447" width="3.5" height="3.5"/>
<path d="M207.1,421.2l-0.2-0.2h3.5l-0.2,0.2v-3.5l0.2,0.2h-3.5l0.2-0.2 M206.6,417.7l0.2-0.2h3.5l0.2,0.2v3.5l-0.2,0.2h-3.5
	l-0.2-0.2V417.7z"/>
<text transform="matrix(1 0 0 1 152.1602 421.8423)" font-family="'TimesNewRomanPSMT'" font-size="6.96">In the Threshold</text>
<path d="M136,522.9l-0.4-0.4h144l-0.4,0.4V393.3l0.4,0.4h-144l0.4-0.4 M135.2,393.3c0-0.2,0.1-0.4,0.4-0.4h144
	c0.1,0,0.4,0.1,0.4,0.4v129.6c0,0.2-0.2,0.4-0.4,0.4h-144c-0.2,0-0.4-0.1-0.4-0.4V393.3L135.2,393.3z"/>
<text transform="matrix(1 0 0 1 222.7202 484.105)" fill="#FFFFFF" font-family="'TimesNewRomanPSMT'" font-size="9.96">72%</text>
<rect x="281" y="393.3" fill="#FFFFFF" width="144" height="129.6"/>
<path fill="#005400" d="M354.7,473.1l-32.6,30c16.6,18,44.6,19.1,62.6,2.5c18-16.6,19.1-44.5,2.5-62.5c-8.4-9.1-20.2-14.3-32.5-14.3
	"/>
<text transform="matrix(1 0 0 1 179.5229 462.2632)" fill="#FFFFFF" font-family="'TimesNewRomanPSMT'" font-size="9.96">28%</text>
<path d="M354.5,428.8v-0.2h2.5c30.6,2,50.1,32.2,39.1,61l-0.8,1.9l-1,2c-14.1,26.8-49.2,32.2-70.8,11.4l-1.6-1.7l-0.1-0.1l0.1-0.2
	l32.5-30v0.2 M355,473.1l-0.1,0.1l-32.5,30v-0.4l1.6,1.7l1.7,1.6c21.6,18.9,55,12.7,68.3-12.8l1-1.9l0.8-2
	c10.6-27.3-7.2-56.8-36.4-60l-2.3-0.2h-2.3l0.2-0.2V473.1L355,473.1z"/>
<path fill="#7D7447" d="M354.7,473.1v-44.3c-24.5,0-44.3,19.8-44.3,44.3c0,11,4.2,21.8,11.6,30"/>
<path d="M322.3,503.2l-0.2,0.1l-0.1-0.1c-26.1-28.8-6.2-74.4,32.8-74.6h0.1l0.1,0.2v44.3l-0.1,0.1 M354.5,472.9v0.2v-44.3l0.2,0.2
	h-2.3c-36.4,2.3-54.7,44-31.6,72.2l1.4,1.6H322L354.5,472.9z"/>
<text transform="matrix(1 0 0 1 214.9199 421.8423)" font-family="'TimesNewRomanPSMT'" font-size="6.96">Out of the Threshold</text>
<rect x="289.7" y="417.7" fill="#005400" width="3.5" height="3.5"/>
<path d="M289.9,421.2l-0.2-0.2h3.5l-0.2,0.2v-3.5l0.2,0.2h-3.5l0.2-0.2 M289.4,417.7l0.2-0.2h3.5l0.2,0.2v3.5l-0.2,0.2h-3.5
	l-0.2-0.2V417.7z"/>
<text transform="matrix(1 0 0 1 340 408.5054)" font-family="'TimesNewRomanPS-BoldMT'" font-size="9.96">Injuries</text>
<rect x="352.3" y="417.7" fill="#7D7447" width="3.6" height="3.5"/>
<path d="M352.6,421.2l-0.2-0.2h3.6l-0.2,0.2v-3.5l0.2,0.2h-3.6l0.2-0.2 M352.1,417.7l0.2-0.2h3.6l0.2,0.2v3.5l-0.2,0.2h-3.6
	l-0.2-0.2V417.7z"/>
<text transform="matrix(1 0 0 1 297.7202 421.8423)" font-family="'TimesNewRomanPSMT'" font-size="6.96">In the Threshold</text>
<path d="M281.4,522.9l-0.4-0.4h144l-0.4,0.4V393.3l0.4,0.4H281l0.4-0.4 M280.7,393.3c0-0.2,0.1-0.4,0.4-0.4h144
	c0.2,0,0.4,0.1,0.4,0.4v129.6c0,0.2-0.1,0.4-0.4,0.4H281c-0.2,0-0.4-0.1-0.4-0.4V393.3H280.7z"/>
<text transform="matrix(1 0 0 1 368.1606 484.105)" fill="#FFFFFF" font-family="'TimesNewRomanPSMT'" font-size="9.96">58%</text>
<rect x="426.5" y="393.3" fill="#FFFFFF" width="144" height="129.6"/>
<path fill="#005400" d="M500.2,473.1h-44.3c0,24.4,19.8,44.3,44.3,44.3s44.3-19.9,44.3-44.3c0-24.5-19.8-44.3-44.3-44.3"/>
<text transform="matrix(1 0 0 1 325.6812 465.022)" fill="#FFFFFF" font-family="'TimesNewRomanPSMT'" font-size="9.96">42%</text>
<path d="M499.9,428.8l0.1-0.2h2.4c37.7,2.2,55.8,46.3,30.7,74.4l-1.4,1.6l-1.6,1.4c-28.1,25.1-72.1,7-74.4-30.6l-0.1-2.3l0.1-0.2
	h44.4l-0.2,0.2 M500.4,473.1l-0.2,0.2h-44.3l0.2-0.2l0.1,2.3l0.1,2.2c4,36,46.5,52.4,73.4,28.1l1.6-1.4l1.4-1.6
	c24.2-26.9,7.9-69.4-28.1-73.3l-2.3-0.2H500l0.2-0.2v44.1H500.4z"/>
<path fill="#7D7447" d="M500.2,473.1v-44.3c-24.5,0-44.3,19.8-44.3,44.3"/>
<path d="M455.9,473.4l-0.2-0.2c0.2-10.6,3.4-20.1,10.2-28.3l1.4-1.7l1.4-1.6c7.7-7.7,18.3-12.4,29.2-13h2.5v44.5l-0.2,0.2
	 M500.2,472.9l-0.2,0.2v-44.3l0.2,0.2h-2.3c-22.5,1.3-40.5,19.2-41.6,41.8l-0.1,2.3l-0.2-0.2H500.2z"/>
<text transform="matrix(1 0 0 1 360.3599 421.8423)" font-family="'TimesNewRomanPSMT'" font-size="6.96">Out of the Threshold</text>
<rect x="435.1" y="417.7" fill="#005400" width="3.5" height="3.5"/>
<path d="M435.4,421.2l-0.2-0.2h3.5l-0.2,0.2v-3.5l0.2,0.2h-3.5l0.2-0.2 M434.9,417.7l0.2-0.2h3.5l0.2,0.2v3.5l-0.2,0.2h-3.5
	l-0.2-0.2V417.7z"/>
<text transform="matrix(1 0 0 1 464.0005 407.5454)" font-family="'TimesNewRomanPS-BoldMT'" font-size="9.96">Economic Damage</text>
<rect x="497.9" y="417.7" fill="#7D7447" width="3.5" height="3.5"/>
<path d="M498.1,421.2l-0.2-0.2h3.5l-0.2,0.2v-3.5l0.2,0.2h-3.5l0.2-0.2 M497.6,417.7l0.2-0.2h3.5l0.2,0.2v3.5l-0.2,0.2h-3.5
	l-0.2-0.2V417.7z"/>
<text transform="matrix(1 0 0 1 443.1606 421.8423)" font-family="'TimesNewRomanPSMT'" font-size="6.96">In the Threshold</text>
<path d="M427,522.9l-0.4-0.4h144l-0.4,0.4V393.3l0.4,0.4h-144l0.4-0.4 M426.2,393.3c0-0.2,0.1-0.4,0.4-0.4h144
	c0.1,0,0.4,0.1,0.4,0.4v129.6c0,0.2-0.2,0.4-0.4,0.4h-144c-0.2,0-0.4-0.1-0.4-0.4V393.3L426.2,393.3z"/>
<text transform="matrix(1 0 0 1 513.7192 484.105)" fill="#FFFFFF" font-family="'TimesNewRomanPSMT'" font-size="9.96">75%</text>
<path d="M355.8,385.2l-2.9,6.1l-3.1-6 M353.2,360.1l0.2,26.2h-1.1l-0.2-26.2H353.2z"/>
<path d="M206.4,385l-3,6l-3-6 M202.9,366.3h1V386h-1V366.3z"/>
<text transform="matrix(1 0 0 1 470.5239 462.2632)" fill="#FFFFFF" font-family="'TimesNewRomanPSMT'" font-size="9.96">25%</text>
<path d="M502.4,385l-3,6l-3-6 M499,366.3h1.1V386H499V366.3z"/>
<polyline points="203.4,367.5 499.6,367.6 499.6,368.4 203.4,368.2 "/>
<text transform="matrix(1 0 0 1 505.9204 421.8423)" font-family="'TimesNewRomanPSMT'" font-size="6.96">Out of the Threshold</text>
</svg>
